<svg width="9" height="15" viewBox="0 0 9 15" fill="none" xmlns="http://www.w3.org/2000/svg">
<path d="M2.02606 0.295888L8.69585 6.94589C8.77502 7.02506 8.83123 7.11082 8.86448 7.20318C8.89773 7.29554 8.91409 7.3945 8.91356 7.50006C8.91356 7.60561 8.8972 7.70457 8.86448 7.79693C8.83176 7.88929 8.77555 7.97506 8.69585 8.05422L2.02606 14.724C1.84134 14.9087 1.61044 15.0011 1.33335 15.0011C1.05627 15.0011 0.818769 14.9021 0.620852 14.7042C0.422936 14.5063 0.323978 14.2754 0.323978 14.0115C0.323978 13.7476 0.422937 13.5167 0.620853 13.3188L6.4396 7.50006L0.620854 1.68131C0.436132 1.49658 0.34377 1.26885 0.34377 0.998098C0.34377 0.727348 0.442728 0.493278 0.640645 0.295888C0.838562 0.0979722 1.06947 -0.000986785 1.33335 -0.000986762C1.59724 -0.000986739 1.82815 0.0979723 2.02606 0.295888Z" fill="#B8B8B8"/>
</svg>
