<svg width="81" height="50" viewBox="0 0 81 50" fill="none" xmlns="http://www.w3.org/2000/svg">
<g clip-path="url(#clip0_719_12483)">
<path d="M21.6715 24.9513C14.7289 24.9513 9.08398 19.3536 9.08398 12.4775C9.08398 5.60138 14.7327 0 21.6715 0C28.6104 0 34.2591 5.59763 34.2591 12.4738C34.2591 19.3499 28.6104 24.9475 21.6715 24.9475V24.9513ZM21.6715 2.77445C16.2725 2.77445 11.88 7.12732 11.88 12.4775C11.88 17.8277 16.2725 22.1806 21.6715 22.1806C27.0705 22.1806 31.4631 17.8277 31.4631 12.4775C31.4631 7.12732 27.0705 2.7707 21.6715 2.7707V2.77445Z" fill="#018AAA"/>
<path d="M40.4981 50H1.39988C0.628054 50 0 49.3776 0 48.6128V42.9364C0 31.49 9.3981 22.1768 20.949 22.1768C32.4999 22.1768 41.898 31.49 41.898 42.9364V48.6128C41.898 49.3776 41.2737 50 40.4981 50ZM2.79597 47.2256H39.102V42.9364C39.102 33.0159 30.96 24.9475 20.949 24.9475C10.938 24.9475 2.79597 33.0196 2.79597 42.9402V47.2293V47.2256Z" fill="#018AAA"/>
<path d="M59.3249 24.9513C52.3822 24.9513 46.7373 19.3536 46.7373 12.4775C46.7373 5.60138 52.3822 0 59.3249 0C66.2675 0 71.9124 5.59763 71.9124 12.4738C71.9124 19.3499 66.2637 24.9475 59.3249 24.9475V24.9513ZM59.3249 2.77445C53.9259 2.77445 49.5333 7.12732 49.5333 12.4775C49.5333 17.8277 53.9259 22.1806 59.3249 22.1806C64.7239 22.1806 69.1164 17.8277 69.1164 12.4775C69.1164 7.12732 64.7239 2.77445 59.3249 2.77445Z" fill="#018AAA"/>
<path d="M79.6005 50H40.4985C39.7267 50 39.0986 49.3776 39.0986 48.6128V42.9364C39.0986 31.49 48.4967 22.1768 60.0476 22.1768C71.5985 22.1768 80.9966 31.49 80.9966 42.9364V48.6128C80.9966 49.3776 80.3686 50 79.5967 50H79.6005ZM41.8984 47.2293H78.2006V42.9402C78.2006 33.0196 70.0587 24.9513 60.0476 24.9513C50.0366 24.9513 41.8946 33.0196 41.8946 42.9402V47.2293H41.8984Z" fill="#018AAA"/>
</g>
<defs>
<clipPath id="clip0_719_12483">
<rect width="81" height="50" fill="white"/>
</clipPath>
</defs>
</svg>
