<svg width="91" height="54" viewBox="0 0 91 54" fill="none" xmlns="http://www.w3.org/2000/svg">
<g clip-path="url(#clip0_719_12497)">
<path d="M17.8375 28.2479C10.0229 28.2479 3.66113 21.9131 3.66113 14.1262C3.66113 6.33933 10.0184 0 17.8375 0C25.6565 0 32.0092 6.33479 32.0092 14.1262C32.0092 21.9176 25.652 28.2479 17.8375 28.2479ZM17.8375 3.35345C11.8764 3.35345 7.03103 8.18622 7.03103 14.1217C7.03103 20.0571 11.8809 24.8899 17.8375 24.8899C23.794 24.8899 28.6439 20.0571 28.6439 14.1217C28.6439 8.18622 23.794 3.35345 17.8375 3.35345Z" fill="#018AAA"/>
<path d="M72.4481 28.2479C64.6336 28.2479 58.2764 21.9131 58.2764 14.1262C58.2764 6.33933 64.6336 0 72.4481 0C80.2626 0 86.6199 6.33479 86.6199 14.1262C86.6199 21.9176 80.2626 28.2479 72.4481 28.2479ZM72.4481 3.35345C66.4916 3.35345 61.6417 8.18622 61.6417 14.1217C61.6417 20.0571 66.4916 24.8899 72.4481 24.8899C78.4046 24.8899 83.2546 20.0571 83.2546 14.1217C83.2546 8.18622 78.4046 3.35345 72.4481 3.35345Z" fill="#018AAA"/>
<path d="M33.9858 54H1.68495C0.755949 54 0 53.2512 0 52.321V42.6645C0 32.8674 8.00122 24.8944 17.8377 24.8944C27.6741 24.8944 35.6708 32.8674 35.6708 42.6645V52.321C35.6708 53.2467 34.9194 54 33.9858 54ZM3.36534 50.642H32.3009V42.6645C32.3009 34.7143 25.8116 28.2479 17.8331 28.2479C9.85466 28.2479 3.36534 34.7143 3.36534 42.6645V50.642Z" fill="#018AAA"/>
<path d="M88.6011 54H56.3002C55.3712 54 54.6152 53.2512 54.6152 52.321V42.6645C54.6152 32.8674 62.6165 24.8944 72.4483 24.8944C82.2802 24.8944 90.2815 32.8674 90.2815 42.6645V52.321C90.2815 53.2467 89.5301 54 88.5965 54H88.6011ZM57.9806 50.6465H86.9161V42.6691C86.9161 34.7188 80.4268 28.2524 72.4483 28.2524C64.4699 28.2524 57.9806 34.7188 57.9806 42.6691V50.6465Z" fill="#018AAA"/>
<path d="M45.1431 36.2118C39.4598 36.2118 34.833 31.6014 34.833 25.9382C34.833 20.275 39.4598 15.6646 45.1431 15.6646C50.8263 15.6646 55.4531 20.275 55.4531 25.9382C55.4531 31.6014 50.8263 36.2118 45.1431 36.2118ZM45.1431 19.018C41.3132 19.018 38.1983 22.1219 38.1983 25.9382C38.1983 29.7545 41.3132 32.8583 45.1431 32.8583C48.9729 32.8583 52.0878 29.7545 52.0878 25.9382C52.0878 22.1219 48.9729 19.018 45.1431 19.018Z" fill="#018AAA"/>
<path d="M56.3002 54H33.9906C33.0616 54 32.3057 53.2513 32.3057 52.321V45.6504C32.3057 38.5941 38.0664 32.8583 45.1431 32.8583C52.2199 32.8583 57.9852 38.5987 57.9852 45.6504V52.321C57.9852 53.2467 57.2338 54 56.3002 54ZM35.671 50.6466H54.6153V45.655C54.6153 40.4501 50.3665 36.2163 45.1431 36.2163C39.9198 36.2163 35.671 40.4501 35.671 45.655V50.6466Z" fill="#018AAA"/>
</g>
<defs>
<clipPath id="clip0_719_12497">
<rect width="90.2812" height="54" fill="white"/>
</clipPath>
</defs>
</svg>
