<svg width="209" height="66" viewBox="0 0 209 66" fill="none" xmlns="http://www.w3.org/2000/svg">
<path d="M92.934 32.0932L92.8638 31.4446C92.8326 31.2157 92.7935 30.9868 92.7389 30.7655C92.6453 30.3306 92.5127 29.9033 92.3723 29.4913C92.0837 28.652 91.7248 27.8432 91.3113 27.0649C91.2411 26.9429 91.1631 26.836 91.1007 26.7139C91.0383 26.5156 90.9837 26.3172 90.9291 26.1188L90.4922 24.8675C90.3284 24.4631 90.188 24.0358 90.0008 23.639L89.3533 22.4945C88.9008 21.7315 88.4406 20.9761 87.9179 20.2589C87.6761 19.8926 87.3874 19.5416 87.1144 19.1983C86.8413 18.8397 86.5605 18.4963 86.2563 18.1682C85.6634 17.4891 84.9847 16.8864 84.3138 16.2912L83.2139 15.4748C82.8472 15.2077 82.4337 15.0093 82.0359 14.7652C81.2558 14.2997 80.4445 13.9488 79.6488 13.5749C78.5566 13.0789 77.4489 12.6135 76.3489 12.1633C75.9043 11.675 75.4284 11.2172 74.9525 10.7517C74.6951 10.4923 74.4065 10.2558 74.1334 10.004C73.8526 9.75983 73.5796 9.50804 73.2753 9.28676L72.4094 8.59242C72.113 8.37115 71.8009 8.15751 71.4967 7.94386C70.9038 7.50132 70.2563 7.11218 69.6322 6.73067C69.0159 6.34154 68.3528 6.00581 67.7132 5.63957C67.3075 5.38777 66.9097 5.15887 66.504 4.92997C66.0905 4.70869 65.6693 4.47979 65.248 4.26615C64.3977 3.83886 63.5474 3.43446 62.6581 3.07585C62.4396 2.97666 62.2212 2.89273 61.9872 2.80879C61.761 2.72486 61.5425 2.64093 61.3163 2.57226C60.8482 2.41203 60.3958 2.27469 59.9277 2.1526C59.6235 2.06104 59.2958 2.00763 58.976 1.94659C58.7419 1.90844 58.5079 1.86266 58.2661 1.83977C58.0945 1.82451 57.915 1.78636 57.7278 1.77873H57.0335C55.5123 1.65665 53.9677 1.49641 52.5011 1.19884C52.0096 1.03861 51.5416 0.916526 51.0579 0.802074C50.5508 0.672362 50.0438 0.573171 49.5367 0.481609C49.0374 0.390048 48.5226 0.329007 48.0077 0.252706C47.5006 0.199295 46.978 0.145884 46.4709 0.107734L44.9263 0.0390625L43.3817 0.0543227C42.8668 0.069583 42.3519 0.138254 41.8293 0.168774C41.3144 0.184035 40.8073 0.290856 40.3003 0.359527C39.7854 0.428198 39.2783 0.5045 38.779 0.626581C38.272 0.725773 37.7649 0.832595 37.2734 0.992827L35.8302 1.5422C35.3388 1.71006 34.8863 1.96185 34.4261 2.17549C33.9736 2.41966 33.4977 2.60278 33.0687 2.87747L31.7659 3.671C31.329 3.91516 30.9312 4.24326 30.5333 4.54846L29.3398 5.46407L30.6581 4.73158C31.095 4.50268 31.5163 4.23563 31.9921 4.0525L33.3495 3.44972C33.7942 3.24371 34.2934 3.12163 34.7537 2.95377C35.2218 2.79353 35.682 2.61041 36.1657 2.51122L37.6089 2.16023C38.0848 2.0763 38.5606 1.97711 39.0287 1.85503C39.4967 1.72532 39.9804 1.65665 40.4563 1.58798C40.9477 1.52694 41.447 1.42011 41.9619 1.40485C42.4533 1.37433 42.937 1.31329 43.4207 1.29803L44.9029 1.28277L45.8156 1.32092V1.32855C45.488 1.39722 45.1837 1.5422 44.8717 1.64902C44.5596 1.7711 44.2632 1.93896 43.9745 2.0763L43.1632 2.49596L42.3441 2.93088C41.252 3.54129 40.1832 4.17458 39.1535 4.96812L39.1223 4.99864C38.9117 5.18176 38.6542 5.38777 38.389 5.56327C38.1316 5.75402 37.8585 5.93714 37.5933 6.105C37.328 6.27287 37.0394 6.4331 36.7586 6.60096C36.4621 6.74593 36.1813 6.90617 35.8849 7.03588C35.5884 7.16559 35.292 7.30293 34.9877 7.42501L34.075 7.75311L33.1389 8.02016C32.8268 8.11936 32.4992 8.15751 32.1794 8.22618L31.7035 8.32537L31.2276 8.37878C30.9 8.4093 30.5879 8.47034 30.2603 8.47797L29.2852 8.49323C28.9575 8.51612 28.6377 8.46271 28.31 8.43219C27.9824 8.43219 27.6547 8.50849 27.3193 8.47797L26.3286 8.46271C25.9775 8.47797 25.6577 8.42456 25.3144 8.39404L24.2769 8.30248L25.213 8.75266C25.5251 8.88237 25.8449 9.05786 26.1725 9.15705L27.1789 9.47752C27.5143 9.5996 27.8654 9.66827 28.2086 9.72168C28.5597 9.72168 28.9185 9.77509 29.2696 9.7522L30.3305 9.73694C30.6815 9.72168 31.0248 9.66064 31.3914 9.63012L31.9219 9.57671L32.4368 9.46988C32.7878 9.38595 33.1311 9.3478 33.4665 9.24098L34.4807 8.95104L35.4714 8.59242C35.8068 8.46271 36.1267 8.31011 36.4465 8.17277C36.7586 8.02016 37.0784 7.8523 37.3827 7.6997C37.6869 7.52421 37.9911 7.34871 38.2954 7.16559C38.584 6.97484 38.8883 6.78408 39.1691 6.57044C39.4421 6.37206 39.6996 6.18131 39.9804 5.92951C40.8931 5.22754 41.9463 4.60187 42.9994 4.01435L43.8029 3.58707L44.6376 3.15978C44.8717 3.05296 45.0823 2.93088 45.3241 2.83168C45.3241 2.83168 45.3553 2.81642 45.4099 2.79353C45.8624 2.58752 48.0935 1.65665 50.7381 2H50.7771C50.7771 2 50.8083 2.00763 50.8239 2.00763C50.8239 2.00763 50.8317 2.00763 50.8395 2.00763C51.2919 2.10682 51.7444 2.23654 52.1579 2.37388L52.2125 2.38914H52.2437C53.0316 2.557 53.8195 2.67145 54.6074 2.77064C55.3953 2.85458 56.1754 2.93851 56.9711 2.99192H57.0413L57.681 3.00718C57.8916 3.01481 58.1101 3.05296 58.3285 3.07585C58.5391 3.09111 58.7575 3.15978 58.976 3.19793C59.1944 3.24371 59.4128 3.28949 59.6235 3.3429C60.0525 3.44972 60.4816 3.58707 60.9106 3.72441C61.1291 3.79308 61.3397 3.87701 61.5503 3.95331C61.761 4.03724 61.9716 4.11354 62.1822 4.20511C63.0169 4.54083 63.8516 4.92234 64.6629 5.34199C65.0686 5.54801 65.4743 5.76928 65.8799 5.99818C66.27 6.21946 66.6756 6.44836 67.0501 6.67726L67.0969 6.70015C67.721 7.05877 68.3528 7.37923 68.9613 7.75311C69.5698 8.13461 70.1783 8.50086 70.7556 8.92815C71.0442 9.14179 71.3484 9.33254 71.6215 9.54619L72.464 10.2176C72.737 10.4236 73.0023 10.6678 73.2753 10.9043C73.3143 10.9349 73.3611 10.9806 73.4001 11.0188C73.0101 10.8891 72.62 10.7517 72.23 10.6373C71.3797 10.3626 70.5215 10.1261 69.6478 9.91243C69.1954 9.80561 68.7975 9.72931 68.2982 9.63012C67.877 9.57671 67.4479 9.50041 67.0267 9.41647C66.1764 9.26387 65.3338 9.07312 64.4991 8.85948C63.6644 8.6382 62.8453 8.39404 62.0574 8.09646C61.5503 7.90571 61.0589 7.69207 60.6064 7.44027C58.4065 6.26524 56.3314 5.70061 55.8478 5.58616C55.7775 5.5709 55.7385 5.56327 55.7385 5.56327C55.6215 5.54038 55.5045 5.51749 55.3875 5.50223C55.013 5.44118 54.6386 5.38014 54.2485 5.35725C53.8585 5.31147 53.4762 5.30384 53.094 5.28858H52.5167C52.3295 5.28858 52.1344 5.3191 51.9472 5.32673C51.5572 5.34199 51.1905 5.42592 50.8161 5.4717C51.1983 5.50223 51.5728 5.50986 51.9472 5.57853C52.1344 5.60905 52.3139 5.62431 52.4933 5.67009L53.0472 5.77691C53.406 5.86847 53.7649 5.94477 54.1159 6.06685C54.467 6.16605 54.818 6.27287 55.1535 6.39495C55.5045 6.51703 55.8478 6.64674 56.1832 6.79935C56.5186 6.92906 56.8541 7.09692 57.1973 7.22663C57.5406 7.34871 57.8838 7.47079 58.2193 7.61577C58.2817 7.64629 58.3519 7.66918 58.4143 7.6997C58.4143 7.6997 57.369 7.73022 56.3236 7.9286C55.5279 8.0812 54.7322 8.333 54.428 8.73739C54.428 8.73739 54.896 8.6382 55.7151 8.59242C56.9633 8.52375 59.0462 8.57716 61.5893 9.31728C61.8156 9.38595 62.0418 9.44699 62.2602 9.5233C62.3148 9.53856 62.3772 9.56145 62.4318 9.58434H62.4474C63.0169 9.76746 63.5864 9.94295 64.1715 10.0879C65.0296 10.3168 65.9033 10.5076 66.7848 10.6678C67.2217 10.7517 67.6585 10.8204 68.1032 10.8891C68.4699 10.973 68.9301 11.0569 69.3358 11.1561C70.1705 11.3545 70.9974 11.5834 71.8243 11.8505C72.6434 12.1099 73.4625 12.3922 74.2738 12.6974C74.7029 12.8577 75.1398 13.0408 75.5766 13.2086C76.0447 13.7046 76.4659 14.2463 76.9028 14.7804C77.3319 15.3451 77.7609 15.9097 78.1432 16.5049C78.5176 17.0313 78.8375 17.596 79.1729 18.1453C79.2197 18.2216 79.2665 18.2979 79.3133 18.3742C79.4381 18.5802 79.5474 18.771 79.5474 18.771C79.0481 18.7557 78.6658 18.7023 78.4318 18.6565C78.385 18.6489 78.346 18.6413 78.3148 18.6337C78.2758 18.626 78.229 18.6184 78.19 18.6031C78.1822 18.6031 78.1744 18.6031 78.1666 18.5955C78.034 18.565 77.8935 18.5268 77.7609 18.4887C77.5035 18.42 77.246 18.3437 76.9964 18.2674C76.4893 18.0995 75.9979 17.9164 75.5142 17.6875C75.0305 17.4662 74.5703 17.2068 74.1334 16.9016C73.6966 16.604 73.2909 16.2454 72.9711 15.8105C73.4625 16.7872 74.3285 17.5502 75.2412 18.1606C75.7014 18.4658 76.1929 18.7557 76.6922 18.9999C76.7234 19.0152 76.7468 19.0304 76.778 19.0457C76.778 19.0457 76.7858 19.0457 76.7936 19.0457C77.7921 19.4959 78.6736 19.7019 78.9779 19.7629C79.0481 19.7782 79.0871 19.7782 79.0871 19.7782C79.4537 19.8545 79.8204 19.946 80.187 20.0452C80.2027 20.091 80.2338 20.1292 80.2573 20.1749C80.4211 20.4954 80.5615 20.8159 80.6941 21.1363C80.8345 21.4644 80.9828 21.7849 81.1076 22.113C81.3728 22.7692 81.6146 23.433 81.8331 24.1044C82.0437 24.7759 82.2153 25.4626 82.465 26.1264C82.6756 26.8055 82.8784 27.4846 83.0656 28.1637C83.2373 28.858 83.4089 29.5524 83.5493 30.2467C83.6195 30.5748 83.6819 30.9029 83.7365 31.2386L83.6273 30.9639C83.5571 30.8113 83.5103 30.735 83.4557 30.6206C83.3387 30.4146 83.2217 30.2238 83.1046 30.0407C82.6132 29.2853 82.0749 28.5833 81.482 27.9119C80.8969 27.2404 80.2651 26.6071 79.602 26.0196C78.9389 25.4245 78.229 24.8903 77.5113 24.3715L77.4801 24.3562L77.4177 24.3257C77.2617 24.2418 77.0588 24.1273 76.8794 24.0205C76.7 23.9061 76.5127 23.7764 76.3411 23.6619C75.9745 23.4101 75.6312 23.1354 75.2958 22.8531C74.9603 22.5861 74.6405 22.2732 74.3363 21.9604C74.1724 21.8078 74.0008 21.6704 73.8292 21.5178L73.3377 21.0677C73.1817 20.9227 73.0491 20.7701 72.8931 20.6175C72.737 20.4649 72.5966 20.3123 72.4562 20.152L71.9647 19.595L71.5357 19.0686C71.3016 18.7939 71.0988 18.4963 70.8804 18.1987C70.6932 17.9393 70.4045 17.5044 70.2329 17.2373L69.9755 16.8329L70.2095 17.4815C70.2875 17.6952 70.3577 17.9088 70.4591 18.1224C70.6464 18.5421 70.8258 18.977 71.0442 19.389L71.3641 19.9994L71.7541 20.6556C71.8711 20.854 71.9959 21.0371 72.1286 21.2203C72.2534 21.4034 72.3704 21.5865 72.503 21.7696C72.7916 22.1435 73.0647 22.5326 73.3923 22.876C73.5639 23.0439 73.7434 23.1888 73.9228 23.3567C74.1022 23.5093 74.2894 23.6772 74.4611 23.8221C74.8199 24.135 75.21 24.4173 75.6 24.6996C75.7951 24.8293 75.9979 24.9667 76.2085 25.0964C76.3957 25.2108 76.583 25.3176 76.8014 25.4245C77.4723 25.9204 78.1354 26.4164 78.7595 26.9657C79.3835 27.5227 79.9764 28.1103 80.5303 28.7436C81.0764 29.3692 81.5834 30.0331 82.0281 30.7198C82.1451 30.8876 82.2465 31.0631 82.3401 31.2386C82.3869 31.3225 82.4416 31.4294 82.465 31.4599L82.5742 31.7498C82.66 31.9558 82.7458 32.1618 82.8238 32.3755C82.8238 32.3755 82.8238 32.3908 82.8394 32.4289C82.855 32.4594 82.8706 32.4976 82.8862 32.5434C82.894 32.5891 82.9174 32.6425 82.9408 32.696V32.7112C83.5649 34.6416 86.0768 44.3624 77.3397 52.6258C77.3943 52.4732 78.19 49.9934 78.2524 46.186C78.9701 36.9917 73.9306 29.5295 73.9306 29.5295C72.1676 26.8742 70.6308 24.3105 70.6308 24.3105C70.4279 23.8374 70.1003 23.4635 69.835 23.021C69.562 22.6013 69.2578 22.1893 68.9613 21.7773C68.6337 21.3881 68.345 20.9761 68.0018 20.6022C67.6664 20.2207 67.3231 19.8392 66.9409 19.4882C66.5898 19.1144 66.1842 18.7939 65.7863 18.4505C65.5991 18.2827 65.3728 18.1377 65.1544 17.9851C64.936 17.8401 64.7176 17.6799 64.4991 17.5502C64.0389 17.306 63.5396 17.0237 63.1105 16.8329C62.2212 16.4057 61.3319 15.9631 60.4504 15.5129C59.5767 15.0628 58.7029 14.5897 57.8604 14.0937C57.0257 13.5978 56.191 13.0789 55.4967 12.4914C55.2861 12.293 55.0911 12.1099 54.8882 11.9344C54.6698 11.7513 54.4592 11.5605 54.2329 11.385C53.8039 11.0341 53.3436 10.6983 52.8756 10.3779C52.6649 10.2253 52.4465 10.0879 52.2281 9.95058C51.9628 9.79798 51.6976 9.63012 51.4324 9.48515C51.1827 9.3478 50.9253 9.1952 50.66 9.07312L49.8877 8.70687L49.0764 8.37878C48.858 8.28722 48.624 8.22618 48.3977 8.14225C48.0935 8.03542 47.7893 7.95912 47.4694 7.93623C47.1574 7.90571 46.8375 7.85993 46.5177 7.8523H45.644C45.3553 7.84467 45.0589 7.92097 44.7781 7.94386C44.4972 7.97438 44.2086 8.01253 43.9355 8.10409L43.1242 8.333L43.9667 8.35589C44.2398 8.35589 44.5128 8.40167 44.7859 8.43982C45.0589 8.49323 45.3241 8.50086 45.5816 8.57716L46.3617 8.76791C46.6191 8.85185 46.8687 8.95104 47.1184 9.03497C47.2432 9.08075 47.3602 9.1189 47.4928 9.16468C47.6098 9.23335 47.7269 9.27913 47.8595 9.31728C48.1169 9.38595 48.3665 9.44699 48.6084 9.54619L49.3417 9.84376L50.0672 10.1871C50.3012 10.2939 50.5196 10.4313 50.7459 10.5534C50.9877 10.6754 51.2217 10.8204 51.4558 10.973C51.6898 11.1256 51.9082 11.2553 52.1267 11.4156C52.4075 11.6063 52.6883 11.8047 52.9614 12.0107C52.9146 11.9802 52.8599 11.9649 52.8053 11.942C52.5011 11.8123 52.1891 11.675 51.877 11.5605C51.5572 11.4766 51.2217 11.4308 50.9019 11.3469C50.582 11.263 50.2544 11.2172 49.9268 11.1485C49.5913 11.0798 49.2559 11.0341 48.9126 10.9883C48.585 10.9425 48.2651 10.8891 47.9375 10.8662L46.9389 10.7746L45.9404 10.7441C45.605 10.7289 45.2695 10.7289 44.9419 10.7441C44.6064 10.7594 44.271 10.7594 43.9277 10.7746L42.9292 10.8738C42.5938 10.8891 42.2583 10.9425 41.9307 11.0035L41.7044 11.0417C41.5718 11.0569 41.4392 11.0798 41.3222 11.1027C41.0257 11.1561 40.7839 11.2248 40.6279 11.2706C40.6123 11.2706 40.5889 11.2859 40.5733 11.2859C40.5421 11.2935 40.5187 11.3011 40.4875 11.3164C40.4719 11.324 40.4563 11.3316 40.4329 11.3316C39.6996 11.5834 38.9429 11.8276 38.1862 12.0412C37.289 12.3083 36.3919 12.5448 35.487 12.7356C34.5743 12.934 33.6616 13.0942 32.7644 13.1781C32.5382 13.201 32.3276 13.1934 32.0935 13.2163L31.3914 13.2315C30.9312 13.2392 30.4709 13.2315 30.0029 13.2163C28.1462 13.1629 26.2896 12.9492 24.4797 12.5677C24.2535 12.5219 24.0429 12.4456 23.8088 12.3998L23.1223 12.3083L22.4358 12.2015L21.7415 12.0641C21.2735 11.9802 20.8288 11.8581 20.3686 11.7437C19.9161 11.6292 19.4636 11.469 19.0112 11.3393C19.4012 11.5987 19.7913 11.8886 20.2047 12.1328C20.6338 12.3617 21.0394 12.6135 21.4841 12.8119L22.1394 13.1247L22.8181 13.3918C23.0443 13.4833 23.2627 13.5825 23.4968 13.6512C23.7308 13.7046 23.9726 13.7351 24.2067 13.7962C25.9541 14.1624 27.725 14.3608 29.488 14.4524C29.371 14.5058 29.2618 14.5744 29.1369 14.6202C28.7469 14.7881 28.3256 14.9483 27.8654 15.1009C27.4051 15.2764 26.9136 15.3985 26.4066 15.5435C25.8839 15.6503 25.3534 15.8105 24.8074 15.8716C24.5265 15.9173 24.2535 15.9555 23.9726 16.0013L23.7152 16.0165H23.6996C19.3466 16.6117 14.3773 15.0399 14.1199 14.9559H14.1121C14.1121 14.9559 14.1121 14.9559 14.1199 14.9712C14.1277 14.9712 14.1511 14.9941 14.2057 15.0399C14.7674 15.4748 17.9502 17.7562 23.9336 17.2679H23.9414L24.1365 17.2526C24.4329 17.2068 24.7293 17.161 25.0258 17.1229C25.6187 17.0466 26.1803 16.8864 26.742 16.7643C27.2803 16.6117 27.8108 16.4667 28.3022 16.2912C28.7937 16.1233 29.254 15.9479 29.6674 15.7724C29.8624 15.6655 30.0965 15.6426 30.2525 15.4977C30.2525 15.4977 31.8283 14.6813 34.1452 14.2692C34.3168 14.2387 34.4729 14.2158 34.6445 14.1853C34.6913 14.1777 34.7303 14.1777 34.7615 14.17C35.0969 14.1014 35.4402 14.0403 35.7834 13.964C36.7274 13.758 37.6557 13.5062 38.5762 13.2468C39.3251 13.0255 40.0584 12.789 40.8073 12.5372C40.8697 12.5143 40.9321 12.4914 40.9945 12.4685C41.2286 12.3998 41.4314 12.3541 41.5406 12.3388C41.5718 12.3312 41.5952 12.3312 41.6108 12.3235C41.6264 12.3235 41.642 12.3235 41.642 12.3235L42.1569 12.2396C42.4611 12.1862 42.7732 12.1252 43.0774 12.1099L44.0214 12.026C44.349 12.0107 44.661 12.0107 44.9731 11.9955C45.2929 11.9802 45.6128 11.9802 45.9248 11.9955L46.8765 12.026L47.8283 12.1099C48.1481 12.1252 48.4602 12.1938 48.7722 12.232C49.0842 12.2778 49.4041 12.3235 49.7083 12.377C50.0204 12.4456 50.3402 12.499 50.6445 12.5677C50.9565 12.6211 51.2529 12.7356 51.565 12.7966C51.877 12.85 52.1969 12.9034 52.5167 12.9492C53.1486 13.0637 53.7805 13.1934 54.4124 13.3307C54.4826 13.346 54.5528 13.3612 54.623 13.3841L54.6542 13.4147V13.4299C55.0832 13.7656 55.5045 14.0861 55.9258 14.3608C56.3548 14.6507 56.7839 14.9102 57.2207 15.1696C58.1023 15.6884 58.9838 16.1615 59.8731 16.6193C60.7702 17.0847 61.6673 17.5273 62.5801 17.9622C63.0559 18.1758 63.4304 18.4048 63.8516 18.6108C64.0545 18.7405 64.2417 18.8854 64.4289 19.0075C64.6239 19.1372 64.819 19.267 64.9984 19.4272C65.365 19.7324 65.7317 20.0223 66.0593 20.381C66.4026 20.7014 66.7302 21.06 67.0423 21.4186C67.3699 21.7773 67.643 22.1588 67.9472 22.5326C68.228 22.9294 68.5245 23.3033 68.7819 23.7077C68.8677 23.8374 68.9457 23.9747 69.0315 24.0968C68.2826 23.4711 67.4947 22.8684 66.6834 22.319C66.0983 21.9222 65.5055 21.5407 64.8814 21.1821C64.2807 20.8159 63.6332 20.5107 63.0013 20.1902C62.3616 19.8697 61.6985 19.6256 61.0355 19.328C60.3646 19.0915 59.6937 18.8549 58.9994 18.6337C58.3051 18.4658 57.6264 18.2598 56.9165 18.1148C56.2066 18.0004 55.5045 17.8478 54.7946 17.7715C54.0769 17.718 53.3592 17.6417 52.6493 17.6036L50.4962 17.6265H50.4416C49.7161 17.7257 48.9672 17.7943 48.2183 17.8554C47.8517 17.8783 47.4772 17.9088 47.1028 17.9241C46.7283 17.9393 46.3617 17.9393 45.9872 17.9622L44.8795 18.0461C44.5128 18.0538 44.1384 18.0767 43.7795 18.0614C43.4051 18.069 43.0462 18.0461 42.6874 18.0156L42.1569 17.9546L41.642 17.8478C41.1662 17.6799 40.7059 17.5273 40.23 17.4052C39.7464 17.2602 39.2549 17.1534 38.7556 17.0466C37.7649 16.8635 36.7586 16.7643 35.7678 16.8177C36.7586 16.9016 37.7259 17.1458 38.6464 17.451C39.1223 17.6036 39.5748 17.7715 40.0272 17.9622C40.4719 18.1453 40.9243 18.3437 41.3534 18.565H41.3612L41.3846 18.5726L41.9619 18.7634L42.547 18.9083C42.937 18.977 43.3271 19.0533 43.7093 19.0915C44.3412 19.1601 44.9887 19.2135 45.6284 19.2288C45.4802 19.2746 45.3319 19.3127 45.1759 19.3433C45.0823 19.3585 44.9887 19.389 44.9029 19.4043C44.7313 19.4348 44.5752 19.473 44.4114 19.5035C44.2632 19.5264 44.1306 19.5569 43.998 19.5722C43.9823 19.5798 43.9589 19.5798 43.9433 19.5798C42.2193 19.8774 40.6591 19.946 39.4187 19.9308C37.5543 19.9003 36.3919 19.679 36.3919 19.679C37.6167 20.7319 39.5435 21.0066 41.3612 21.0066H41.5562C43.6703 20.9608 45.605 20.5259 46.0652 20.4115C46.1354 20.3962 46.1744 20.381 46.1744 20.381C46.2759 20.3581 46.3695 20.3275 46.4787 20.297C47.1106 20.1063 47.7035 19.9003 48.1949 19.6942C48.3119 19.6179 48.4602 19.6408 48.546 19.5416C48.546 19.5416 50.5664 18.7786 53.3436 18.9083C53.5698 18.916 53.8039 18.9389 54.0379 18.9617C54.2407 18.977 54.4358 18.9999 54.6464 19.0152C55.3251 19.0838 55.9882 19.2441 56.6513 19.3433C57.3222 19.473 57.9696 19.6714 58.6327 19.8316C59.2802 20.0376 59.9199 20.2741 60.5596 20.4954C61.1759 20.7701 61.8156 21.0066 62.424 21.3118C63.0325 21.617 63.6488 21.9146 64.2261 22.2656C64.819 22.5937 65.3884 22.9676 65.9501 23.3414C67.0657 24.1121 68.1344 24.9438 69.1173 25.867C69.367 26.0883 69.6088 26.3324 69.8428 26.5613L70.1783 26.92L70.2095 26.9505L70.2251 26.981L70.2953 27.0802L70.4435 27.2938L71.0364 28.1179C71.2314 28.3849 71.4265 28.6596 71.5981 28.9496C71.9491 29.5295 72.3314 30.0788 72.6278 30.674C72.9399 31.2691 73.2675 31.8566 73.5249 32.4747L73.9384 33.3979L74.2972 34.3364C74.5547 34.9621 74.7341 35.603 74.9447 36.2363C75.3114 37.5258 75.6468 38.8382 75.8419 40.1582C76.0447 41.4859 76.1773 42.8135 76.1929 44.1488C76.1929 44.3395 76.1773 44.5303 76.1695 44.7287C75.7404 40.8678 74.4767 38.4872 74.4767 38.4872C70.0223 29.5295 60.7078 26.7292 57.876 26.0654L57.8058 26.0501C57.6186 26.0043 57.4392 25.9662 57.2675 25.9357C57.1349 25.9128 57.0569 25.8975 57.0569 25.8975C56.5577 25.8289 56.074 25.7526 55.5747 25.7144C54.5918 25.6152 53.6088 25.5694 52.6181 25.5847C52.2515 25.5847 51.9004 25.6076 51.5338 25.6305C51.5182 25.6305 51.5026 25.6228 51.487 25.6228L49.9268 25.2871C49.4119 25.165 48.897 25.0201 48.3665 24.9819C47.8439 24.9285 47.3212 24.8293 46.8063 24.7454C46.2837 24.6538 45.7688 24.5623 45.2539 24.4554C44.7391 24.3486 44.232 24.2494 43.7249 24.1197C43.21 24.0053 42.7108 23.8527 42.2115 23.7153C41.72 23.5627 41.2442 23.3948 40.6747 23.2346C40.1442 23.0896 39.6138 22.9599 39.0755 22.8531C38.8024 22.7997 38.5294 22.7539 38.2486 22.7081C37.6713 22.6013 36.9926 22.5174 36.4699 22.464C35.9551 22.4106 35.5806 22.3877 35.5806 22.3877C35.5104 22.319 35.4168 22.3648 35.331 22.3266C34.9799 22.2351 34.5743 22.0977 34.1452 21.9146C33.7162 21.7315 33.2871 21.4949 32.8658 21.2203C32.663 21.0829 32.4446 20.9532 32.2574 20.8006C32.0623 20.648 31.8673 20.5107 31.6879 20.3428H31.6801C31.5943 20.2894 30.6972 19.6408 29.4412 19.2135C28.115 18.771 26.391 18.5574 24.8074 19.4959C24.8074 19.4959 26.1725 19.3433 28.4114 20.2283C28.4114 20.2283 29.5504 20.6099 30.2915 21.1669C30.2915 21.1669 31.3836 22.0825 32.3042 22.3572C31.8517 22.3724 31.3992 22.3953 30.9546 22.4258C30.5801 22.4487 30.2135 22.4869 29.8468 22.5174C29.8156 22.5174 29.7766 22.525 29.7454 22.525C29.4178 22.5708 29.1603 22.6242 29.0043 22.6624C28.9029 22.6929 28.8483 22.7081 28.8483 22.7081C28.5987 22.7768 28.3256 22.8531 28.0682 22.8989C27.6781 22.9828 27.2803 23.0362 26.8746 23.0973C26.4846 23.1278 26.0789 23.1812 25.6733 23.1888C25.2754 23.1888 24.862 23.2346 24.4641 23.1888C24.0663 23.1583 23.6528 23.1659 23.2627 23.0973C22.8649 23.021 22.4514 23.0057 22.0614 22.9065C21.6713 22.8073 21.2813 22.7234 20.899 22.6242L19.7601 22.2427C19.3778 22.113 19.0268 21.9146 18.6523 21.762L18.114 21.5102L17.5992 21.205C17.2637 20.9914 16.8893 20.8082 16.5694 20.5717C16.273 20.3046 15.9064 20.1139 15.5553 19.9079L15.0248 19.5874L14.549 19.2212L13.5504 18.4887C13.215 18.2369 12.9341 17.9317 12.6143 17.6646L11.6704 16.8253L12.3647 17.8706C12.5987 18.214 12.8249 18.5726 13.098 18.9083L13.9405 19.8697L14.3617 20.3504L14.8376 20.7853C15.1575 21.0753 15.4617 21.3958 15.8283 21.6247L16.9439 22.3037L17.5056 22.6242L18.0984 22.9065C18.5041 23.0744 18.8864 23.288 19.2998 23.433L20.5402 23.8527C20.9536 23.9671 21.3905 24.051 21.8118 24.1579C22.2408 24.2647 22.6699 24.2952 23.1067 24.3639C23.5436 24.4478 23.9882 24.4325 24.4251 24.4707C24.8542 24.5165 25.2988 24.4707 25.7279 24.4707C26.1647 24.4631 26.6094 24.4173 27.0463 24.3639C27.4753 24.3028 27.9122 24.2418 28.3412 24.1502C28.5285 24.1121 28.7157 24.0663 28.8951 24.0205C29.3866 23.8908 29.8936 23.7992 30.4007 23.7535C30.6269 23.7382 30.8376 23.7077 31.056 23.7001C31.5709 23.6695 32.0935 23.6314 32.6162 23.6238C33.6616 23.6009 34.6991 23.6238 35.7366 23.7077C36.2593 23.7382 36.782 23.8069 37.2968 23.8679C37.8117 23.9366 38.3266 24.0129 38.8337 24.1197C39.3485 24.2113 39.84 24.3334 40.3393 24.4631C40.7995 24.5928 41.33 24.7683 41.8527 24.9361C42.3753 25.0811 42.8902 25.2337 43.4285 25.3634C43.9589 25.4931 44.4816 25.6 45.0121 25.7144C45.8936 25.8899 46.7751 26.0425 47.6644 26.1798C47.3602 26.2561 47.056 26.3324 46.7517 26.4087C46.2603 26.5156 45.8 26.7063 45.3319 26.8589C44.8639 27.0268 44.4114 27.2404 43.9433 27.4235C43.1242 27.8356 42.2583 28.095 41.3456 28.3086C40.9009 28.4155 40.4407 28.4841 39.9882 28.5375C39.7542 28.5528 39.5279 28.6062 39.2939 28.6367L38.5996 28.7283C38.1316 28.7893 37.6635 28.797 37.2032 28.8351C36.7352 28.8351 36.2593 28.8428 35.7912 28.8351C34.8395 28.7893 33.8956 28.7054 32.9439 28.5375C32.4758 28.4384 32.0077 28.3697 31.5319 28.2629L30.1355 27.9042L31.4695 28.4689C31.9219 28.6444 32.3822 28.7893 32.8424 28.9496C33.7708 29.2319 34.7303 29.4684 35.7054 29.6287C36.1969 29.7126 36.6806 29.7584 37.1798 29.8118C37.6713 29.827 38.1706 29.8957 38.6698 29.8728C39.6684 29.9262 40.6669 29.7278 41.642 29.5218C42.6094 29.3006 43.6001 28.9954 44.4972 28.5528C44.9263 28.3849 45.3475 28.1866 45.7766 28.034C46.2212 27.9042 46.6503 27.7135 47.1028 27.6067C47.5552 27.4922 48.0077 27.3701 48.4602 27.2862C48.9282 27.1794 49.3807 27.1107 49.8409 27.0573C50.7693 26.9276 51.7054 26.8666 52.6493 26.8589C53.5854 26.8437 54.5294 26.8894 55.4577 26.981C55.9258 27.0268 56.3938 27.0878 56.8463 27.1641C57.0725 27.2099 57.3144 27.2481 57.5094 27.2938L58.1881 27.477C58.6327 27.6143 59.1008 27.7211 59.5377 27.8814L60.8638 28.3621C61.7219 28.7283 62.5879 29.0869 63.407 29.5371L64.0311 29.8652L65.2246 30.5977C65.4196 30.7274 65.6147 30.8647 65.8019 30.9944C66.192 31.2539 66.5664 31.5209 66.9331 31.8261L67.4791 32.2534L68.0018 32.7112C68.7039 33.3216 69.3592 33.9931 69.9599 34.6798C70.5683 35.3741 71.1378 36.1295 71.5825 36.862L71.5981 36.8925L71.6293 36.9307L72.1052 37.6403C72.269 37.8768 72.3938 38.1362 72.542 38.3804C72.6902 38.6322 72.7994 38.8992 72.9165 39.1587C73.0413 39.4105 73.1505 39.6851 73.2519 39.9522C73.2519 39.9675 73.2597 39.9827 73.2675 40.0056C70.3655 35.5496 65.3962 34.1533 65.3962 34.1533C65.014 34.0312 64.6629 33.9397 64.4133 33.8786C64.1637 33.8176 64.0077 33.7871 64.0077 33.7871C62.6815 33.5048 61.7532 33.1309 61.3787 32.963C61.2461 32.9096 61.1837 32.8715 61.1837 32.8715C61.1681 32.8638 61.1291 32.8486 61.0979 32.8257C60.8014 32.6807 60.4816 32.4976 60.1305 32.345C59.7873 32.1847 59.4128 32.0245 59.015 31.8795C58.9292 31.849 58.8434 31.8109 58.7497 31.7803C58.7497 31.7803 58.7341 31.7803 58.7341 31.7651C58.5781 31.7193 58.4299 31.6659 58.2817 31.6201C53.0082 29.9796 50.1374 31.0021 49.6069 31.2233C49.5523 31.2462 49.5211 31.2691 49.5211 31.2691C55.5045 31.1165 59.6313 33.3979 60.4972 33.9244C60.6142 33.9931 60.6688 34.0312 60.6688 34.0312C60.5362 34.0465 60.3802 34.0617 60.2475 34.077C59.8107 34.1304 59.3816 34.222 58.9526 34.3059C58.859 34.3212 58.7575 34.3517 58.6561 34.3746C58.2895 34.4661 57.915 34.6035 57.6888 34.6722C57.6732 34.6874 57.6576 34.6874 57.642 34.7027C57.6108 34.7027 57.5874 34.7179 57.5562 34.7256C57.5172 34.7485 57.486 34.7561 57.486 34.7561C57.2363 34.8477 56.9555 34.9468 56.6981 35.0308C56.269 35.1605 55.84 35.2826 55.4031 35.3894C54.5216 35.603 53.6245 35.7556 52.7273 35.8548C50.9175 36.0685 49.092 36.0532 47.2744 35.8701C46.8219 35.8167 46.3617 35.7709 45.9092 35.687C45.4646 35.6183 45.0199 35.542 44.5674 35.4504C44.115 35.3512 43.6703 35.2597 43.2334 35.1376C42.8044 34.985 42.3441 34.9316 41.8995 34.8248C41.447 34.7408 40.9945 34.634 40.5421 34.5196C40.0896 34.4127 39.6528 34.283 39.2081 34.1609C38.311 33.9091 37.4295 33.6116 36.5401 33.2987L37.7337 34.0389C38.1394 34.2678 38.545 34.5043 38.9741 34.7179C39.3875 34.9316 39.8088 35.1605 40.2456 35.3436C40.6747 35.542 41.1038 35.7251 41.5484 35.9082C41.9853 36.0914 42.4377 36.2669 42.9058 36.3584C43.3661 36.4576 43.8341 36.5873 44.3022 36.6712C44.7703 36.7704 45.2383 36.862 45.6986 36.9307C46.1744 37.007 46.6503 37.0528 47.1184 37.1138C49.0218 37.3045 50.9487 37.3198 52.8599 37.1062C53.8117 36.9993 54.7556 36.8391 55.6995 36.6102C56.1676 36.5034 56.6357 36.3737 57.0959 36.2287C57.2675 36.1753 57.4314 36.1143 57.603 36.0608C57.603 36.0608 57.6654 36.0456 57.7512 36.0074C58.0243 35.9082 58.6327 35.6946 59.2724 35.542C59.2724 35.542 60.2632 35.3131 61.6829 35.3131C63.1027 35.3131 64.9204 35.542 66.621 36.4271C66.66 36.4423 66.7068 36.4729 66.738 36.4881C69.8116 38.0676 71.7307 40.6923 72.8775 42.9356C72.8775 42.9356 72.8853 42.9508 72.9009 42.9737C72.9321 43.0348 72.9555 43.0958 72.9945 43.1568C73.4079 44.0114 74.7965 47.2771 74.1958 51.6034C73.9696 53.4117 73.6576 54.8004 73.6576 54.8004C73.5171 54.1518 73.2987 53.5414 73.0959 53.0226V53.0455C73.0959 53.0455 73.0725 52.9768 73.0257 52.8471C73.0179 52.8242 73.0101 52.7937 72.9945 52.7708C72.9477 52.6792 72.9087 52.5648 72.8463 52.4274C72.659 52.0078 72.4952 51.7102 72.4328 51.5958C72.4172 51.5805 72.4016 51.55 72.386 51.5347L72.3704 51.5042C70.6542 48.353 65.5289 41.379 53.4996 40.265C53.4918 40.2574 53.4684 40.2574 53.4528 40.2574C52.8443 40.1887 52.2359 40.1506 51.6274 40.1353C51.2997 40.0285 50.9799 39.9293 50.6523 39.8454C50.6367 39.8454 50.6288 39.8454 50.6132 39.8377C50.5274 39.8149 50.4416 39.792 50.3558 39.7767C49.4119 39.5554 48.5538 39.4868 48.0311 39.4639C47.7191 39.4486 47.5162 39.4562 47.4772 39.4562C47.0638 39.4562 46.6581 39.4562 46.2369 39.4562C45.7454 39.4639 45.2617 39.502 44.7625 39.5249C44.271 39.5554 43.7795 39.6088 43.2881 39.6394L43.015 39.6699C42.7888 39.7004 42.586 39.7233 42.3987 39.7386C42.0477 39.7691 41.7668 39.7843 41.564 39.7767C41.2988 39.7614 41.0257 39.7309 40.7527 39.7004C40.3549 39.647 39.957 39.586 39.5513 39.5173C39.1613 39.4486 38.7712 39.3494 38.3734 39.2579L37.8039 39.09C37.6089 39.0442 37.4295 38.9603 37.2422 38.9069C37.055 38.8382 36.8678 38.7772 36.6962 38.6932C36.5167 38.6093 36.3295 38.5483 36.1579 38.4567L35.6508 38.182C35.4948 38.0828 35.3388 37.976 35.1828 37.8692C35.0189 37.77 34.8941 37.6403 34.7459 37.5258L34.5431 37.3427C34.4729 37.274 34.4183 37.1977 34.3558 37.1367C34.2466 36.9993 34.1062 36.8849 34.0282 36.7323L33.7552 36.2745L33.724 36.2211C33.5679 35.9693 33.4197 35.7556 33.2559 35.5344C33.0999 35.3055 32.9439 35.0766 32.78 34.8629C32.4446 34.4356 32.1013 34.0083 31.7503 33.5963C31.5787 33.3827 31.3836 33.1843 31.2042 32.9783C31.017 32.7646 30.8142 32.5662 30.6113 32.3602C30.4241 32.1618 30.2213 31.9711 30.0185 31.7956C29.8312 31.6125 29.644 31.4217 29.4334 31.2539L28.8015 30.7274L28.1384 30.2162C28.0292 30.1399 27.9278 30.0407 27.8108 29.9644C27.6781 29.8957 27.5533 29.8423 27.4207 29.7813C27.1711 29.6592 26.9292 29.5295 26.664 29.4303L25.8839 29.1251C25.6265 29.0182 25.3534 28.9572 25.0882 28.8733C24.8308 28.8046 24.5577 28.7207 24.2847 28.6901L23.4734 28.5528L24.1911 28.9419C24.4251 29.064 24.6513 29.2014 24.8698 29.354C25.096 29.4989 25.3222 29.6363 25.5251 29.7889L26.1569 30.2696C26.5704 30.5824 26.9292 30.9716 27.3661 31.2462C27.7952 31.5362 28.1852 31.8719 28.5753 32.2076C28.7625 32.3526 28.9263 32.5205 29.0901 32.6731C29.2618 32.8409 29.4256 32.9935 29.5972 33.1614C29.8234 33.3903 30.0341 33.6039 30.2447 33.8252C30.4163 34.0236 30.6035 34.2144 30.7596 34.4127C31.1028 34.8019 31.4305 35.2063 31.7425 35.6183C31.8985 35.8319 32.0545 36.038 32.2028 36.2516C32.3432 36.4576 32.4914 36.6789 32.6162 36.8849L32.5928 36.8315L32.9595 37.4495C33.0765 37.6555 33.2559 37.8081 33.3963 37.9913C33.4821 38.0752 33.5445 38.1744 33.6303 38.2431L33.8956 38.472C34.0204 38.5788 34.1452 38.6856 34.27 38.7924C34.1764 38.7772 34.075 38.7543 33.9814 38.7238C32.1637 38.3575 30.0809 37.8081 27.881 37.0985C26.781 36.7323 25.6655 36.3279 24.5421 35.8701C23.7854 35.5725 23.0365 35.2368 22.2954 34.8934C21.7571 34.1152 21.2579 33.2911 20.821 32.4365C20.3608 31.5667 19.9707 30.6587 19.6665 29.7355C19.5807 29.3769 19.4792 29.1022 19.3622 28.797C19.2296 28.4918 19.097 28.1789 18.9332 27.889C18.8005 27.5914 18.6133 27.3167 18.4573 27.0192C18.2857 26.7292 18.0906 26.4622 17.919 26.1875C17.529 25.661 17.0765 25.1727 16.6162 24.7072C16.39 24.4631 16.1482 24.2494 15.9064 24.0358C15.6723 23.8069 15.4305 23.5932 15.1653 23.3796L14.4163 22.7768L13.6206 22.2045C13.3632 22.0214 13.098 21.8383 12.8249 21.6628L12.0058 21.1592C11.7328 20.9761 11.4441 20.8388 11.1711 20.6709L10.313 20.2131L8.56556 19.3967L10.1804 20.4267L10.9605 20.9837C11.2179 21.1669 11.4832 21.3423 11.7328 21.5407L12.4739 22.1359C12.7235 22.3266 12.9576 22.5326 13.1916 22.7463L13.8859 23.372L14.549 24.0358C14.7986 24.2723 15.0248 24.5394 15.2433 24.7912C15.4539 25.0277 15.6489 25.2719 15.8361 25.5237C16.0078 25.7373 16.1716 25.9433 16.3276 26.157C16.4914 26.4164 16.6787 26.6529 16.8425 26.9123C16.9985 27.1641 17.1935 27.4083 17.3495 27.6601C17.5056 27.9195 17.6616 28.1713 17.7942 28.4384C17.9268 28.7054 18.0516 28.9801 18.1609 29.2471C18.2701 29.5142 18.3715 29.8118 18.4183 30.0254L18.4339 30.0788V30.0941C18.7771 31.0936 19.1906 32.0627 19.6743 32.9783C19.8225 33.2606 19.9707 33.52 20.1267 33.7947C19.4012 33.4132 18.6757 33.0164 17.9814 32.6197C17.4744 32.2992 16.9673 31.9864 16.4602 31.6735C15.9844 31.3454 15.4929 31.025 15.0248 30.6969C14.5724 30.3535 14.1121 30.0254 13.6674 29.6897C13.2384 29.3463 12.8327 29.0106 12.4115 28.6825C12.0292 28.3392 11.6392 28.0034 11.2725 27.683C10.9059 27.3396 10.5704 27.0039 10.2428 26.6911C10.0868 26.5385 9.91514 26.3859 9.76692 26.2256C9.6265 26.0501 9.47828 25.9052 9.31446 25.7678C8.99462 25.5008 8.68258 25.249 8.40174 25.0048C7.86346 24.4936 7.34859 24.0663 6.96634 23.6924C6.24865 22.9752 5.80399 22.5403 5.75718 22.4869C5.78058 22.5555 6.08482 23.0896 6.59189 23.9747C6.86493 24.4402 7.23938 24.9895 7.66844 25.6228C7.87907 25.9433 8.1287 26.2561 8.38613 26.5995C8.63577 26.9581 8.99462 27.2404 9.32226 27.5762C9.65771 27.9042 10.0088 28.2552 10.3832 28.591C10.7655 28.9267 11.1555 29.27 11.5612 29.6287C11.7562 29.7813 11.9512 29.9491 12.154 30.0941C12.1384 30.0941 12.1228 30.0941 12.1072 30.0941C11.803 30.0636 11.4754 29.9873 11.1321 29.9186C10.8981 29.8499 10.6406 29.7965 10.3832 29.7355C10.3832 29.7355 10.157 29.6821 9.78252 29.5524C9.6187 29.4913 9.43148 29.4303 9.21305 29.3616C9.19744 29.354 9.17404 29.3463 9.14284 29.3311C7.4032 28.6978 4.20477 27.3091 2.30911 25.0506C2.30911 25.0506 2.30911 25.0557 2.30911 25.0658C2.30911 25.0658 2.30911 25.0811 2.30911 25.0887C2.45733 25.4473 3.25304 27.2633 5.49194 28.858C5.53095 28.8809 5.56215 28.9038 5.60116 28.9267C5.64796 28.9572 5.69477 28.9877 5.74938 29.0259C5.83519 29.0869 5.921 29.1327 6.00681 29.1937C6.05362 29.2243 6.10823 29.2624 6.15503 29.2777C6.31105 29.3616 6.45927 29.4608 6.60749 29.5524C6.81032 29.6592 7.01315 29.7813 7.23158 29.8728C7.63723 30.0636 8.02729 30.2696 8.44854 30.4146C8.8464 30.5824 9.25985 30.7198 9.65771 30.8418C10.0634 30.9716 10.4534 31.0631 10.8279 31.147C11.0541 31.1928 11.2647 31.2386 11.4676 31.2768C11.4676 31.2768 11.4988 31.2768 11.5534 31.292C11.5846 31.292 11.6236 31.3073 11.686 31.3149C12.3101 31.4446 14.2447 31.8948 15.6723 32.6883C15.6879 32.7036 15.7035 32.7188 15.7269 32.7265C15.8986 32.8333 16.0858 32.9478 16.2652 33.0698C16.6006 33.2835 16.9439 33.4895 17.2793 33.7031C18.3481 34.3212 19.4558 34.9316 20.587 35.4886C20.86 35.6107 21.1409 35.7404 21.4139 35.8701C22.5997 37.5106 24.0663 38.9832 25.7669 40.1124C27.5299 41.318 29.5348 42.1649 31.5943 42.6762C33.6616 43.2026 35.7912 43.4163 37.9053 43.3934C40.0272 43.3705 42.1335 43.1263 44.1852 42.6914C44.5752 42.6075 44.9809 42.5083 45.3709 42.4091L45.3397 42.4244C45.5816 42.3709 51.0189 41.0738 55.1925 42.1344C55.1925 42.1344 58.937 43.195 62.4709 44.927C64.2729 45.8426 70.4669 49.5433 71.9803 57.5854C71.8243 57.0665 68.9613 48.7574 53.4528 48.1546C50.1608 47.712 45.5582 46.3005 44.2008 45.8732C43.9511 45.7892 43.8029 45.7435 43.8029 45.7435C43.5611 45.6748 43.3037 45.6061 43.054 45.5222C42.0399 45.2322 40.9165 44.9423 39.6996 44.7821C38.4826 44.6218 37.1564 44.5913 35.8068 44.7821C34.4885 44.9881 33.1701 45.3009 31.8361 45.7129C31.4461 45.835 31.056 45.9724 30.6737 46.1097H30.6581L30.3227 46.2394C29.5192 46.537 28.7235 46.8727 27.9356 47.2771C27.6079 47.445 27.2647 47.5899 26.9214 47.7349C26.703 47.5671 26.4924 47.4068 26.2896 47.2313C26.1569 47.1092 26.0321 46.9872 25.9073 46.8498C25.7825 46.7201 25.6655 46.598 25.5641 46.4531L25.3924 46.2547L25.3456 46.2013C25.3456 46.2013 25.33 46.186 25.33 46.1784V46.1631L25.2286 46.041C25.1038 45.8655 24.979 45.7206 24.8542 45.5603C24.3549 44.9499 23.84 44.3548 23.2783 43.8054C22.1784 42.6838 20.9692 41.6537 19.6509 40.7686C18.3325 39.8835 16.9127 39.1358 15.3993 38.5788C13.9015 38.0676 12.3335 37.7624 10.7421 37.6708C10.5158 37.6098 10.2272 37.5258 9.96975 37.4419C9.69671 37.358 9.43148 37.2511 9.16624 37.1367C8.901 37.0146 8.63577 36.8925 8.37833 36.7628C8.1209 36.6331 7.86346 36.511 7.59823 36.366C7.34079 36.244 7.08336 36.1143 6.83372 35.9616C6.57629 35.8167 6.32666 35.6717 6.08482 35.5038C5.83519 35.336 5.57775 35.1986 5.35152 35.0155L4.64163 34.4738L3.97074 33.9015C3.74451 33.7108 3.53388 33.5124 3.32325 33.2987C3.12042 33.0851 2.90199 32.8867 2.69136 32.6654L2.10628 32.0016L1.81765 31.6659L1.54461 31.3073L0.998535 30.6053C0.81131 30.3611 0.66309 30.1093 0.491466 29.8652L0 29.1098L0.390053 29.9186C0.522671 30.1856 0.647488 30.468 0.803509 30.7274L1.25597 31.5057C1.40419 31.7727 1.56801 32.0245 1.74744 32.2687L2.27011 33.0241C2.42613 33.2377 2.60555 33.4513 2.77718 33.665C2.9488 33.8786 3.11262 34.0923 3.29205 34.2907L4.06435 35.0994L4.74304 35.7327C4.95367 35.954 5.21891 36.1371 5.45294 36.3432C5.67917 36.5415 5.9288 36.7247 6.18624 36.9078C6.43587 37.0985 6.69331 37.274 6.95854 37.4343C7.16137 37.5792 7.372 37.6861 7.59043 37.8005C7.50462 37.8081 7.4266 37.8158 7.34859 37.8158C7.08336 37.8158 6.81032 37.831 6.52168 37.8158C6.23304 37.8005 5.9366 37.7776 5.64016 37.7242C5.53095 37.7166 5.43734 37.7013 5.34372 37.6784C5.34372 37.6784 5.32032 37.6708 5.25791 37.6708C5.23451 37.6708 5.2111 37.6555 5.1877 37.6555C4.54802 37.5487 1.96587 37.0451 0.00780106 35.7404C0.00780106 35.7556 0.0234032 35.7709 0.0234032 35.809C0.171623 36.1371 0.951729 37.625 3.6665 38.5559C3.81472 38.6093 3.97854 38.6627 4.14236 38.7085C4.23597 38.7314 4.32959 38.7619 4.4232 38.7772C4.76644 38.8458 5.10189 38.9298 5.45294 38.9755C5.78838 39.029 6.13163 39.0595 6.45927 39.0671C6.77912 39.0976 7.10676 39.0671 7.4032 39.0671C7.70744 39.0518 7.98048 39.0366 8.25352 38.9984C8.37833 38.9679 8.51095 39.0137 8.62797 38.945C8.62797 38.945 10.4456 38.8764 11.9044 39.029C12.942 39.1663 13.9717 39.3952 14.9624 39.7462C16.3588 40.265 17.6928 40.9594 18.9254 41.7834C19.9005 42.4396 20.8132 43.1874 21.6713 43.9809C21.6557 43.9809 21.6323 43.9656 21.6089 43.9656C21.3125 43.8665 20.9926 43.7825 20.6572 43.7215C20.5012 43.691 20.3295 43.6528 20.1579 43.607C19.9707 43.5918 19.7913 43.5536 19.6041 43.5307C19.4324 43.5078 19.1672 43.4697 18.9956 43.4392C18.8473 43.4392 18.6991 43.4239 18.5353 43.4086C18.1609 43.3781 17.7864 43.34 17.3964 43.3552C16.624 43.3247 15.8361 43.3705 15.017 43.4086C14.6192 43.4468 14.2135 43.4926 13.8079 43.5384L13.5036 43.5612L13.2462 43.5765C13.059 43.5918 12.8717 43.5994 12.6689 43.607C11.9044 43.6223 11.1321 43.607 10.3754 43.5231C9.99315 43.4926 9.6187 43.4315 9.24425 43.3781C8.8776 43.3247 8.51095 43.256 8.16771 43.1797C7.45781 43.0271 6.79472 42.8364 6.17063 42.6227C5.99901 42.5541 5.83519 42.493 5.66357 42.432C5.66357 42.432 5.61676 42.4167 5.59336 42.4015C5.48414 42.3557 5.36713 42.3175 5.26571 42.2794C5.21891 42.2565 5.1643 42.2336 5.11749 42.2107C3.84592 41.6842 2.91759 41.2188 2.67576 41.0967C2.63676 41.0815 2.62115 41.0662 2.62115 41.0662C2.35592 40.9517 2.10628 40.8526 1.90346 40.7381C1.29498 40.4024 0.920524 40.2116 0.920524 40.2116C0.920524 40.2116 1.15456 40.5397 1.59142 41.1043C1.81765 41.3943 2.12189 41.6995 2.48074 42.0505C2.66016 42.2412 2.87859 42.3938 3.09702 42.5922C3.20623 42.6914 3.32325 42.7601 3.47147 42.8211C3.60409 42.8898 3.7289 42.9585 3.88493 43.0271C4.15796 43.1568 4.4544 43.3018 4.76644 43.4392C5.07069 43.5612 5.39833 43.6757 5.73378 43.8054C6.13943 43.9504 6.58409 44.0725 7.02875 44.2022C6.88053 44.2861 5.66357 44.8584 3.94733 45.2475C4.07215 45.3085 5.64016 46.0105 8.24572 45.1559C8.24572 45.1559 8.26132 45.1483 8.30032 45.133C8.56556 45.0644 9.5953 44.8355 10.7733 44.8126C11.1243 44.8126 11.4754 44.8202 11.8264 44.8584C12.115 44.8584 12.4037 44.8584 12.7001 44.8584C12.9107 44.8584 13.1058 44.8431 13.3164 44.8278L13.6518 44.805L14.4085 44.721C14.7986 44.6905 15.2043 44.6524 15.6021 44.6295C16.195 44.5989 16.7801 44.576 17.3417 44.6066C17.7084 44.5989 18.0594 44.6295 18.4027 44.66C18.5743 44.6752 18.7459 44.6905 18.9176 44.7058C19.0814 44.721 19.253 44.7515 19.409 44.7744C19.5806 44.7897 19.7367 44.8202 19.9005 44.8507C19.9941 44.866 20.0877 44.8813 20.1813 44.9041C20.1813 44.9041 22.2408 45.2399 23.411 45.8121C23.5436 45.98 23.6996 46.1402 23.8244 46.3081C23.9414 46.4531 24.0585 46.598 24.1599 46.743L24.2457 46.8422L24.3003 46.9109L24.3471 46.9719L24.5421 47.2161C24.6747 47.3839 24.8152 47.5365 24.9556 47.6815C25.096 47.8341 25.2442 47.9791 25.3924 48.1088C25.4314 48.1469 25.4782 48.1775 25.5173 48.2232C25.0882 48.3606 24.6435 48.4979 24.2223 48.62C22.9507 48.9863 21.6557 49.1846 20.4154 49.3601C19.7835 49.4059 19.175 49.4898 18.5665 49.5051C17.958 49.5051 17.3651 49.5509 16.7879 49.5204C16.2106 49.4746 15.6489 49.4746 15.1106 49.4212C14.9624 49.4059 14.8142 49.383 14.6738 49.3678C13.1604 49.2152 11.7328 48.971 11.0541 48.8413C10.9995 48.8337 10.9449 48.826 10.8981 48.8108C10.8747 48.8108 10.8513 48.8031 10.8357 48.7955C10.8201 48.7879 10.7889 48.7879 10.7733 48.7879L10.6874 48.7726L10.6406 48.765C10.3052 48.7039 9.98535 48.6429 9.69671 48.5971C9.50949 48.5666 9.34566 48.5437 9.18184 48.5132C9.02582 48.4674 8.862 48.4369 8.72158 48.3987C7.62163 48.1317 6.95854 47.9715 6.88053 47.9562C6.96634 48.002 7.55922 48.3224 8.55776 48.8413C8.69038 48.91 8.8386 48.9863 8.98682 49.0626C9.14284 49.1312 9.29886 49.1923 9.47048 49.2686C9.82153 49.4059 10.1804 49.5585 10.586 49.7264C10.9761 49.8942 11.4129 50.0316 11.8732 50.1689C12.1072 50.2452 12.3491 50.2986 12.6065 50.3368C12.8561 50.3673 13.098 50.4436 13.3632 50.4665C13.8937 50.5352 14.432 50.5962 15.0014 50.6649C15.5709 50.7259 16.156 50.7336 16.7645 50.7717C17.3729 50.8022 17.997 50.7564 18.6289 50.7488C19.2686 50.7412 19.9161 50.6572 20.5714 50.6038C21.8742 50.4283 23.2315 50.2147 24.5655 49.8256C25.291 49.6272 26.0009 49.3983 26.7108 49.1312C27.6079 49.7187 28.5753 50.1842 29.5582 50.5581C31.0638 51.1151 32.624 51.4813 34.1842 51.7255C37.3124 52.2062 40.4719 52.2596 43.6001 52.0917C44.388 52.0536 45.1759 51.9773 45.9248 51.9315C46.6971 51.8781 47.4616 51.8552 48.2183 51.8399C49.7473 51.8247 51.2685 51.8781 52.7975 52.023C54.3109 52.168 55.84 52.3893 57.3378 52.6563C58.0945 52.7861 58.8512 52.9387 59.5923 53.0989L60.7234 53.3507C61.0979 53.4346 61.4645 53.5185 61.8156 53.6177C62.9545 53.9382 64.0545 54.3579 65.0764 54.892C65.092 54.9072 65.1076 54.9072 65.1388 54.9225C65.6771 55.2582 69.796 57.9211 70.5761 61.8583C70.5839 61.9117 70.5917 61.9727 70.6073 62.0261C70.6308 62.2474 70.662 62.4916 70.6932 62.7434V62.7891C70.7946 63.7276 70.8258 64.8035 70.6776 65.8564C70.6776 65.8564 72.5576 66.711 73.8448 63.4987C73.8448 63.4911 73.8526 63.4911 73.8526 63.4835C74.4143 61.8506 75.5298 58.997 76.8638 57.2726C77.1212 56.9826 77.3787 56.7079 77.6673 56.4561L77.6829 56.4409L77.6985 56.4256C78.7751 55.3498 79.914 54.2739 81.0686 53.2667C82.2309 52.2672 83.4245 51.2906 84.6961 50.4818L84.7273 50.4665L84.7429 50.4512C85.4684 49.8713 86.0846 49.2838 86.6931 48.6505C87.3016 48.0172 87.8711 47.361 88.4094 46.6591C89.4703 45.2857 90.4142 43.7978 91.1475 42.2183C91.8964 40.6389 92.4425 38.9679 92.7623 37.2511C92.9184 36.3889 93.0042 35.5267 93.051 34.6493C93.0822 33.7718 93.0666 32.902 92.973 32.0321L92.934 32.0932ZM46.4319 40.8068L46.2213 40.8678L46.0496 40.9212C45.8156 40.9899 45.566 41.0662 45.3241 41.1272C44.8483 41.2493 44.349 41.3638 43.8497 41.4706C41.8683 41.8903 39.8478 42.1268 37.8273 42.142C35.8068 42.1649 33.7864 41.9666 31.8517 41.4706C29.917 40.9823 28.0604 40.1887 26.43 39.09C25.5407 38.4872 24.7293 37.8005 23.9804 37.0375C25.1194 37.5029 26.2661 37.915 27.3739 38.2812C29.6128 39.0137 31.7659 39.5707 33.6147 39.9598C34.0828 40.0438 34.5119 40.1887 34.9487 40.2193C35.3778 40.2498 35.7834 40.265 36.1735 40.2879C36.626 40.3032 37.0316 40.3184 37.4061 40.3184L37.9599 40.4863C38.3734 40.5855 38.7946 40.6847 39.2237 40.7534C39.645 40.8449 40.074 40.906 40.5031 40.9517C40.5967 40.967 40.6903 40.9746 40.7761 40.9823C40.7917 40.9823 40.8229 40.9823 40.8463 40.9899C40.8619 40.9899 40.8931 40.9899 40.9243 40.9899C41.1896 41.0128 41.7825 41.0586 42.4845 40.9899C42.5782 40.9823 42.6796 40.9746 42.781 40.9594L43.3427 40.8907C43.8185 40.8526 44.2944 40.8068 44.7625 40.7686C45.2305 40.7534 45.7064 40.7152 46.1822 40.7076C46.3695 40.7076 46.5489 40.7076 46.7283 40.7076L46.4241 40.7915L46.4319 40.8068ZM49.4275 50.642C48.9984 50.6344 48.5772 50.6344 48.1481 50.642C47.368 50.6572 46.5801 50.6801 45.8 50.7335C45.0043 50.787 44.2476 50.8556 43.4831 50.8938C40.4251 51.054 37.3437 51.0006 34.3402 50.5352C32.8424 50.3063 31.368 49.9553 29.9717 49.4364C29.332 49.1923 28.7001 48.91 28.1072 48.5742C28.232 48.5132 28.3568 48.4674 28.4817 48.4064C29.4412 47.918 30.4631 47.506 31.4929 47.155L32.4134 46.8575C33.5913 46.5065 34.7849 46.2242 35.9395 46.0487C37.1486 45.8808 38.3344 45.9037 39.4655 46.0487C40.5967 46.2013 41.6498 46.4759 42.6172 46.743C43.093 46.888 43.5455 47.0711 43.9902 47.1932C43.9902 47.1932 43.9902 47.1932 43.9902 47.2008C44.1384 47.2466 45.6596 47.7654 47.5318 48.2995C47.4772 48.3072 47.407 48.3072 47.3602 48.3148C46.8531 48.3453 46.3461 48.3682 45.839 48.3835C45.839 48.3835 39.3485 48.765 35.76 47.9562C35.76 47.9562 36.7898 49.1312 40.4173 49.5585C40.4407 49.5585 40.4485 49.5585 40.4719 49.5661C41.8839 49.6653 43.3037 49.6959 44.7156 49.673C45.6284 49.6577 46.5255 49.6272 47.4226 49.5738C48.3197 49.5204 49.2013 49.4441 50.0984 49.3449C50.7693 49.3601 51.4324 49.3449 52.1032 49.3754C52.7741 49.4059 53.445 49.4288 54.1081 49.5127C54.7868 49.5661 55.4499 49.673 56.113 49.7722C56.7761 49.8942 57.4392 50.0011 58.0945 50.1613C58.7497 50.3063 59.3894 50.5046 60.0369 50.6878C60.6766 50.8862 61.3163 51.1074 61.9326 51.3516C62.5489 51.6034 63.1729 51.8628 63.758 52.1604C64.0545 52.313 64.3431 52.4656 64.6161 52.6258C64.8502 52.7708 65.0842 52.931 65.3104 53.0836C58.8902 50.146 49.4197 50.6572 49.4197 50.6572L49.4275 50.642ZM81.7629 19.183L81.1076 18.9846C81.1076 18.9846 81.0842 18.977 81.0764 18.9694C80.8657 18.5421 80.6395 18.1224 80.3977 17.7028C80.0232 17.0618 79.6488 16.4362 79.2353 15.8258C78.8999 15.3069 78.5254 14.7957 78.1432 14.2997C78.463 14.4371 78.7829 14.5668 79.1027 14.7194C79.8828 15.1009 80.6941 15.4443 81.4118 15.8716C81.7629 16.0852 82.1451 16.2607 82.4728 16.5125L83.4713 17.2602C84.1032 17.8096 84.7273 18.3666 85.2811 18.9999C85.5776 19.2975 85.835 19.6332 86.0924 19.9613C86.3499 20.2894 86.6229 20.6251 86.8569 20.9761C87.3484 21.6552 87.7931 22.38 88.2299 23.1049C88.1597 23.0439 88.0973 22.9752 88.0349 22.9141C86.7321 21.7086 85.2187 20.7319 83.6273 19.9613C83.2217 19.7782 82.816 19.5874 82.3947 19.4348L81.7629 19.1907V19.183ZM90.4376 39.0595C90.4376 39.0595 88.6668 43.9122 83.7911 48.6048C83.7911 48.6048 87.7853 41.8063 85.0315 30.4985C84.2358 26.1569 82.9096 23.2804 82.9096 23.2804C82.7224 22.7463 82.5352 22.2045 82.3167 21.6781C82.1919 21.3347 82.0437 20.9914 81.8877 20.6556C81.8721 20.6251 81.8565 20.5946 81.8487 20.5641L81.9189 20.5946C82.1763 20.6862 82.4259 20.8006 82.6678 20.9151C82.6678 20.9151 82.673 20.9176 82.6834 20.9227C82.6834 20.9227 82.6834 20.9227 82.699 20.9227C82.7146 20.9227 82.7458 20.938 82.7692 20.9532C83.8769 21.5484 94.3538 27.4312 90.4454 39.0595H90.4376Z" fill="#018AAA"/>
<path d="M106.5 26.5764C105.493 26.5764 104.557 26.378 103.691 25.9736C102.825 25.5769 102.147 25.0199 101.655 24.3179L102.49 23.5778C103.481 24.8444 104.83 25.4777 106.531 25.4777C107.631 25.4777 108.536 25.2106 109.238 24.6689C109.94 24.1271 110.291 23.4175 110.291 22.5401C110.291 22.357 110.268 22.1738 110.229 21.9983C110.19 21.8228 110.143 21.6779 110.096 21.5482C110.049 21.4184 109.963 21.2887 109.839 21.159C109.714 21.0293 109.612 20.9225 109.534 20.8386C109.456 20.7623 109.316 20.6631 109.113 20.5562C108.918 20.4494 108.77 20.3731 108.676 20.3197C108.583 20.2663 108.411 20.19 108.154 20.0984C107.904 20.0069 107.724 19.9382 107.623 19.9077C107.522 19.8772 107.319 19.8085 107.007 19.7093C106.695 19.6101 106.5 19.5491 106.406 19.5186C105.735 19.3049 105.205 19.1142 104.799 18.9387C104.393 18.7632 103.972 18.5266 103.535 18.2291C103.091 17.9315 102.763 17.5652 102.552 17.1303C102.342 16.6954 102.233 16.1918 102.233 15.6196C102.233 14.3911 102.677 13.4526 103.574 12.804C104.464 12.1479 105.595 11.8274 106.952 11.8274C108.473 11.8274 109.839 12.2776 111.04 13.1627L110.385 14.063C109.308 13.2771 108.161 12.888 106.929 12.888C105.891 12.888 105.057 13.1169 104.409 13.5747C103.762 14.0325 103.442 14.6963 103.442 15.5661C103.442 15.9095 103.512 16.23 103.652 16.5123C103.793 16.8022 103.949 17.0311 104.12 17.199C104.292 17.3745 104.573 17.55 104.955 17.7255C105.345 17.9086 105.657 18.0383 105.891 18.1222C106.133 18.2062 106.523 18.3359 107.069 18.5114C107.139 18.5419 107.241 18.5724 107.373 18.6106C107.904 18.7861 108.31 18.9234 108.59 19.0226C108.871 19.1218 109.23 19.282 109.659 19.5109C110.096 19.7398 110.424 19.9687 110.65 20.2129C110.876 20.4494 111.079 20.7699 111.251 21.159C111.422 21.5482 111.516 21.9983 111.516 22.4867C111.516 23.7685 111.032 24.7604 110.057 25.4853C109.082 26.2025 107.888 26.5611 106.469 26.5611L106.5 26.5764Z" fill="#F5F5F5"/>
<path d="M118.06 26.6144C116.602 26.6144 115.431 26.1337 114.55 25.1647C113.668 24.1957 113.232 22.9291 113.239 21.3572C113.255 19.7702 113.7 18.5036 114.589 17.5422C115.47 16.5808 116.641 16.1001 118.084 16.1001C119.527 16.1001 120.705 16.5808 121.586 17.5422C122.468 18.5036 122.905 19.7702 122.905 21.3572C122.905 22.9443 122.468 24.2109 121.586 25.1723C120.705 26.1337 119.535 26.6144 118.06 26.6144ZM118.06 25.5767C119.215 25.5767 120.12 25.2105 120.76 24.4703C121.399 23.7302 121.719 22.6925 121.719 21.3649C121.719 20.0372 121.399 19.0148 120.76 18.2671C120.12 17.5193 119.231 17.1454 118.084 17.1454C116.937 17.1454 116.048 17.5117 115.4 18.2518C114.753 18.9919 114.433 20.0296 114.433 21.3572C114.417 22.6773 114.737 23.7073 115.385 24.4551C116.032 25.2028 116.929 25.5767 118.068 25.5767H118.06Z" fill="#F5F5F5"/>
<path d="M136.44 16.3672H137.727L132.929 27.9726C132.274 29.5597 131.268 30.3532 129.902 30.3532C129.075 30.3532 128.397 30.0861 127.882 29.552L128.412 28.7966C128.873 29.1553 129.364 29.3384 129.887 29.3384C130.784 29.3384 131.478 28.728 131.97 27.4995L132.399 26.4389L128.17 16.3672H129.395L132.968 25.096L136.44 16.3672Z" fill="#F5F5F5"/>
<path d="M143.469 26.6144C142.01 26.6144 140.84 26.1337 139.958 25.1647C139.077 24.1957 138.64 22.9291 138.648 21.3572C138.663 19.7702 139.108 18.5036 139.997 17.5422C140.879 16.5808 142.049 16.1001 143.492 16.1001C144.935 16.1001 146.113 16.5808 146.995 17.5422C147.876 18.5036 148.313 19.7702 148.313 21.3572C148.313 22.9443 147.876 24.2109 146.995 25.1723C146.113 26.1337 144.943 26.6144 143.469 26.6144ZM143.469 25.5767C144.623 25.5767 145.528 25.2105 146.168 24.4703C146.807 23.7302 147.127 22.6925 147.127 21.3649C147.127 20.0372 146.807 19.0148 146.168 18.2671C145.528 17.5193 144.639 17.1454 143.492 17.1454C142.345 17.1454 141.456 17.5117 140.808 18.2518C140.161 18.9919 139.841 20.0296 139.841 21.3572C139.826 22.6773 140.145 23.7073 140.793 24.4551C141.44 25.2028 142.337 25.5767 143.476 25.5767H143.469Z" fill="#F5F5F5"/>
<path d="M158.074 16.3672H159.236V26.3779H158.09V24.6382C156.615 25.9582 155.172 26.6144 153.737 26.6144C152.73 26.6144 151.966 26.3474 151.435 25.8133C150.913 25.2792 150.647 24.5162 150.647 23.5166V16.3672H151.81V23.3182C151.81 24.0736 151.974 24.6382 152.301 25.0045C152.629 25.3707 153.144 25.5538 153.854 25.5538C155.133 25.5538 156.537 24.9129 158.058 23.6387V16.3672H158.074Z" fill="#F5F5F5"/>
<path d="M172.232 16.1077C173.254 16.1077 174.026 16.3748 174.565 16.9165C175.103 17.4583 175.36 18.2289 175.36 19.2208V26.355H174.175V19.4421C174.175 18.6409 174.003 18.061 173.668 17.7024C173.324 17.3438 172.809 17.1607 172.115 17.1607C170.781 17.1607 169.377 17.7864 167.91 19.0377V26.3473H166.725V16.3595H167.887V18C169.346 16.7334 170.797 16.1001 172.24 16.1001L172.232 16.1077Z" fill="#F5F5F5"/>
<path d="M182.481 25.5387C183.815 25.5387 184.97 25.0809 185.953 24.1577L186.608 24.997C185.438 26.05 184.049 26.5764 182.442 26.5764C181.132 26.5764 180.016 26.1339 179.096 25.2488C178.167 24.3637 177.707 23.12 177.707 21.5253C177.707 19.9306 178.159 18.6945 179.072 17.6568C179.985 16.6268 181.249 16.1079 182.871 16.1079C183.932 16.1079 184.853 16.3979 185.617 16.9777C186.382 17.5576 186.772 18.3664 186.772 19.4041C186.772 20.19 186.514 20.8081 186 21.2659C185.485 21.716 184.798 21.9449 183.956 21.9449H178.893C178.986 23.0361 179.361 23.9135 180.008 24.5621C180.656 25.2183 181.483 25.5387 182.489 25.5387H182.481ZM182.786 17.0693C181.693 17.0693 180.796 17.4203 180.079 18.1299C179.361 18.8395 178.963 19.7933 178.885 21.0064H183.831C184.361 21.0064 184.798 20.8615 185.141 20.5792C185.485 20.2968 185.648 19.8772 185.648 19.3278C185.648 18.664 185.383 18.1223 184.845 17.7026C184.307 17.2829 183.62 17.0769 182.793 17.0769L182.786 17.0693Z" fill="#F5F5F5"/>
<path d="M193.145 25.5387C194.479 25.5387 195.634 25.0809 196.617 24.1577L197.272 24.997C196.102 26.05 194.713 26.5764 193.106 26.5764C191.796 26.5764 190.68 26.1339 189.76 25.2488C188.831 24.3637 188.371 23.12 188.371 21.5253C188.371 19.9306 188.824 18.6945 189.736 17.6568C190.649 16.6268 191.913 16.1079 193.535 16.1079C194.596 16.1079 195.517 16.3979 196.281 16.9777C197.046 17.5576 197.436 18.3664 197.436 19.4041C197.436 20.19 197.178 20.8081 196.664 21.2659C196.149 21.716 195.462 21.9449 194.62 21.9449H189.557C189.65 23.0361 190.025 23.9135 190.672 24.5621C191.32 25.2183 192.147 25.5387 193.153 25.5387H193.145ZM193.45 17.0693C192.357 17.0693 191.46 17.4203 190.743 18.1299C190.025 18.8395 189.627 19.7933 189.549 21.0064H194.495C195.025 21.0064 195.462 20.8615 195.805 20.5792C196.149 20.2968 196.313 19.8772 196.313 19.3278C196.313 18.664 196.047 18.1223 195.509 17.7026C194.971 17.2829 194.284 17.0769 193.457 17.0769L193.45 17.0693Z" fill="#F5F5F5"/>
<path d="M206.929 12.0945H208.091V26.3628H206.929V24.9207C205.938 26.05 204.729 26.6222 203.317 26.6222C202.053 26.6222 201.023 26.1568 200.236 25.2259C199.448 24.295 199.05 23.0666 199.05 21.5482C199.05 19.9077 199.479 18.5953 200.329 17.6034C201.179 16.6115 202.303 16.1156 203.691 16.1156C205.08 16.1156 206.11 16.581 206.937 17.5119V12.0945H206.929ZM203.473 25.5769C204.846 25.5769 206.001 24.9589 206.929 23.7151V18.8014C206.125 17.695 205.049 17.1456 203.699 17.1456C202.623 17.1456 201.772 17.5271 201.156 18.2978C200.54 19.0608 200.228 20.129 200.228 21.5024C200.228 22.769 200.516 23.7609 201.109 24.4858C201.694 25.2106 202.482 25.5769 203.481 25.5769H203.473Z" fill="#F5F5F5"/>
<path d="M112.22 48.4369L113.289 50.558C112.009 51.4508 110.59 51.9009 109.045 51.9009C107.5 51.9009 106.276 51.4355 105.488 50.5122C104.708 49.589 104.31 48.3148 104.31 46.7048V38.7619H101.712V36.6407H104.31V32.0168H107.118V36.6407H112.462V38.7619H107.118V46.7277C107.118 47.6204 107.36 48.2766 107.836 48.6963C108.312 49.1159 108.881 49.3219 109.529 49.3219C110.387 49.3219 111.276 49.0244 112.212 48.4292L112.22 48.4369Z" fill="#F5F5F5"/>
<path d="M124.273 36.2592C125.818 36.2592 127.004 36.6636 127.831 37.4801C128.658 38.2965 129.063 39.4639 129.063 40.9746V51.5729H126.161V41.6003C126.161 40.5626 125.966 39.8301 125.568 39.3952C125.171 38.9603 124.57 38.739 123.751 38.739C122.167 38.739 120.428 39.4334 118.532 40.8297V51.5729H115.63V30.262H118.532V38.5025C120.443 37.007 122.354 36.2669 124.266 36.2669L124.273 36.2592Z" fill="#F5F5F5"/>
<path d="M139.836 49.5128C141.583 49.5128 143.175 48.8948 144.594 47.6587L146.03 49.5663C145.156 50.3216 144.15 50.9015 143.026 51.2983C141.895 51.6951 140.78 51.8934 139.688 51.8934C137.613 51.8934 135.881 51.222 134.5 49.8791C133.119 48.5362 132.425 46.6897 132.425 44.3396C132.425 41.9896 133.111 40.1278 134.484 38.5789C135.857 37.03 137.784 36.2517 140.265 36.2517C141.895 36.2517 143.307 36.7019 144.509 37.5946C145.71 38.4873 146.311 39.7539 146.311 41.3868C146.311 42.5618 145.944 43.5003 145.211 44.2099C144.477 44.9195 143.448 45.2705 142.129 45.2705H135.264C135.444 46.5829 135.927 47.6206 136.7 48.376C137.472 49.1313 138.517 49.5128 139.844 49.5128H139.836ZM140.14 38.4416C138.798 38.4416 137.675 38.8688 136.786 39.7234C135.888 40.578 135.358 41.7454 135.202 43.218H141.7C143.003 43.218 143.651 42.5542 143.651 41.2189C143.651 40.4635 143.331 39.815 142.691 39.2656C142.051 38.7162 141.201 38.4416 140.14 38.4416Z" fill="#F5F5F5"/>
<path d="M157.295 36.2593C158.004 36.2593 158.66 36.389 159.245 36.6484L158.753 39.0061C158.059 38.8459 157.505 38.7696 157.076 38.7696C155.492 38.7696 153.971 39.4792 152.528 40.8908V51.5729H149.688V36.6484H152.466V38.5559C153.745 37.0223 155.352 36.2593 157.287 36.2593H157.295Z" fill="#F5F5F5"/>
<path d="M166.999 36.2593C169.012 36.2593 170.595 36.7934 171.742 37.8693C172.889 38.9451 173.466 40.4788 173.466 42.4626V51.5654H170.845V49.1161C169.706 51.0084 167.927 51.9545 165.501 51.9545C163.956 51.9545 162.693 51.5272 161.718 50.6726C160.742 49.8181 160.251 48.7117 160.251 47.3612C160.251 45.652 160.945 44.4083 162.326 43.63C163.707 42.8518 165.501 42.4626 167.693 42.4626C168.59 42.4626 169.628 42.5313 170.806 42.6686V42.2795C170.806 39.8531 169.511 38.6399 166.929 38.6399C165.236 38.6399 163.652 39.2503 162.17 40.4635L160.735 38.6094C162.342 37.0376 164.425 36.2517 166.991 36.2517L166.999 36.2593ZM166.055 49.7799C167.561 49.7799 168.707 49.2992 169.503 48.3302C170.299 47.3688 170.736 46.1098 170.814 44.5533C169.838 44.4159 168.895 44.3473 167.974 44.3473C164.76 44.3473 163.153 45.3315 163.153 47.3001C163.153 48.0326 163.418 48.6354 163.949 49.0932C164.479 49.551 165.181 49.7799 166.055 49.7799Z" fill="#F5F5F5"/>
<path d="M185.34 36.2593C187.291 36.2593 188.866 36.9613 190.052 38.3653C191.246 39.7692 191.839 41.6004 191.839 43.8742C191.839 46.2624 191.183 48.2081 189.873 49.7112C188.562 51.2144 186.838 51.9621 184.701 51.9621C183.218 51.9621 181.822 51.573 180.519 50.7947V57.1201H177.68V36.6408H180.488V38.1592C181.931 36.885 183.546 36.2517 185.34 36.2517V36.2593ZM184.459 49.5434C185.84 49.5434 186.932 49.0474 187.743 48.0631C188.554 47.0788 188.952 45.6902 188.952 43.8971C188.952 42.2261 188.593 40.9366 187.883 40.0286C187.174 39.1206 186.175 38.6705 184.896 38.6705C183.25 38.6705 181.791 39.3495 180.535 40.7001V48.3149C181.799 49.1313 183.109 49.5357 184.474 49.5357L184.459 49.5434Z" fill="#F5F5F5"/>
<path d="M204.958 36.6484H208.039L201.174 53.45C200.628 54.8005 199.903 55.8229 199.006 56.5096C198.108 57.1963 197.133 57.5397 196.072 57.5397C194.731 57.5397 193.638 57.1124 192.804 56.2578L193.966 54.3808C194.637 54.8997 195.308 55.1591 195.979 55.1591C196.611 55.1591 197.141 54.9607 197.578 54.5639C198.015 54.1672 198.405 53.5263 198.756 52.6564L199.364 51.1304L193.17 36.6561H196.104L200.745 48.0249L204.958 36.6561V36.6484Z" fill="#F5F5F5"/>
</svg>
