<svg width="216" height="44" viewBox="0 0 216 44" fill="none" xmlns="http://www.w3.org/2000/svg">
<g clip-path="url(#clip0_913_546)">
<path fill-rule="evenodd" clip-rule="evenodd" d="M59.4285 8.57787C61.0166 8.26468 62.6272 8.26468 64.1929 8.57787L64.2602 8.60031V34.8392L64.1929 34.8616C62.6048 35.1748 61.0166 35.1748 59.4285 34.8616L59.3612 34.8392V24.1913H48.557V34.8392L48.4899 34.8616C47.6847 35.0182 46.9018 35.1075 46.0964 35.1075C45.291 35.1075 44.5082 35.0182 43.7253 34.8616L43.6582 34.8392V8.60006L43.7253 8.57762C45.2912 8.24224 46.9018 8.24224 48.4899 8.57762L48.557 8.60006V20.0082H59.3612V8.60031L59.4285 8.57787ZM76.2274 15.9597C79.0012 15.9597 81.283 16.8544 82.7816 18.5098C84.4817 20.4111 85.1751 23.2296 84.7949 26.6968V26.7861H71.6418C71.6867 30.3207 73.2302 32.0207 76.3393 32.0207C78.576 32.0207 80.0973 30.9246 80.4105 29.0904V29.0233H80.4776C81.9316 28.8218 83.1619 28.9113 84.4817 29.3587L84.5488 29.3811V29.4482C84.2131 32.5354 81.5291 35.6443 76.2947 35.6443C73.2302 35.6443 70.8813 34.6826 69.3378 32.8262C67.9062 31.1036 67.1903 28.6652 67.1903 25.5336C67.1903 19.5387 70.5681 15.9597 76.2274 15.9597ZM76.1381 19.3599C73.3643 19.3599 71.7313 21.06 71.5972 24.0347H80.3434C80.4105 22.581 80.0527 21.3729 79.2697 20.5453C78.5314 19.7623 77.4577 19.3599 76.1379 19.3599H76.1381ZM88.016 8.57787C89.4924 8.2425 91.0135 8.2425 92.4896 8.57787L92.557 8.60031V34.8392L92.4896 34.8616C91.7516 35.0182 90.991 35.1075 90.253 35.1075C89.5149 35.1075 88.7541 35.0182 88.016 34.8616L87.9489 34.8392V8.60006L88.016 8.57787ZM105.486 15.9597C110.855 15.9597 113.919 19.5611 113.919 25.8246C113.919 31.9537 110.832 35.6221 105.665 35.6221C103.809 35.6221 102.153 35.1299 100.587 34.1457V42.892L100.52 42.9145C99.782 43.071 99.0214 43.1603 98.2834 43.1603C97.5453 43.1603 96.7845 43.071 96.0467 42.9145L95.9793 42.892V16.7873L96.0464 16.7651C97.1426 16.4295 98.0597 16.4295 99.1783 16.7651L99.2229 16.7873L99.4912 18.1742C101.437 16.7205 103.518 15.9597 105.486 15.9597ZM100.52 21.1268V30.4994C101.84 31.4168 103.138 31.8639 104.502 31.8639C107.701 31.8639 109.401 29.7838 109.401 25.8917C109.401 21.9097 107.678 19.7401 104.547 19.7401C103.182 19.7401 101.907 20.1875 100.52 21.127V21.1268ZM133.604 20.7019C137.25 22.1112 141.031 23.5652 141.053 27.9718C141.008 34.6155 134.745 35.6221 130.942 35.6221C127.072 35.6221 124.052 34.6155 122.218 32.6469C120.854 31.1931 120.205 29.314 120.339 27.189V27.122L120.406 27.0995C121.972 26.7415 123.583 26.7193 125.171 27.0325L125.238 27.0546V27.122C125.104 28.3074 125.394 29.2694 126.088 30.0299C127.027 31.0587 128.683 31.618 130.853 31.618C132.821 31.618 134.297 31.1929 135.147 30.3207C135.729 29.7167 136.02 28.9338 135.997 27.9496C135.953 26.0483 133.828 25.3324 130.293 24.1021C129.578 23.8559 128.75 23.5652 127.9 23.252L127.497 23.1179C124.902 22.1783 120.541 20.6124 120.585 15.8926C120.652 11.1504 124.477 8.30957 130.83 8.30957H130.942C134.364 8.33201 137.071 9.27132 138.749 11.0609C140.113 12.4925 140.784 14.4162 140.673 16.6085V16.6756L140.605 16.6978C138.905 17.078 137.34 17.1229 135.796 16.8097L135.729 16.7873V16.7205C135.818 15.4231 135.505 14.3716 134.79 13.6113C133.962 12.6942 132.553 12.2244 130.741 12.2244C128.907 12.2244 127.385 12.7166 126.513 13.6335C125.909 14.2377 125.618 15.0204 125.641 15.9153C125.708 17.8391 127.855 18.6218 131.412 19.897C132.105 20.1431 132.821 20.4114 133.604 20.7021V20.7019ZM152.528 19.7401C149.307 19.7401 147.808 21.6639 147.808 25.7797C147.808 29.8955 149.307 31.8193 152.528 31.8193C153.356 31.8193 156.129 31.6178 156.555 28.7547V28.6876H156.622C158.098 28.4193 159.485 28.5086 160.738 28.9338L160.805 28.9562V29.0233C160.648 30.7234 159.888 32.3115 158.635 33.4747C157.136 34.8838 154.989 35.6221 152.439 35.6221C146.533 35.6221 143.268 32.1325 143.268 25.8021C143.268 19.4491 146.556 15.9373 152.528 15.9373C155.034 15.9373 157.158 16.6532 158.635 18.0176C159.932 19.2033 160.715 20.8809 160.849 22.7152V22.7822L160.782 22.8047C159.462 23.1847 158.076 23.2745 156.622 23.0508H156.555V22.9835C156.398 21.7756 155.682 19.7401 152.528 19.7401ZM172.168 15.9597C178.051 15.9597 181.272 19.4494 181.272 25.8246C181.272 32.1546 178.051 35.6443 172.168 35.6443C166.307 35.6443 163.064 32.1549 163.064 25.8243C163.064 19.4716 166.285 15.9597 172.168 15.9597ZM176.843 25.8021C176.843 21.731 175.322 19.7399 172.168 19.7399C168.969 19.7399 167.493 21.6639 167.493 25.8021C167.493 29.8733 169.014 31.8417 172.168 31.8417C175.322 31.8417 176.843 29.8509 176.843 25.8021ZM195.991 16.7873C197.49 16.4073 198.989 16.4073 200.465 16.7873L200.532 16.8097V34.8392L200.465 34.8616C199.391 35.1524 198.273 35.1524 197.199 34.8616L197.154 34.8392L196.707 32.781C194.604 34.7272 192.658 35.5997 190.399 35.5997C186.216 35.5997 183.8 33.0496 183.8 28.5759V16.8097L183.867 16.7873C185.344 16.4295 186.865 16.4295 188.341 16.7873L188.408 16.8097V27.5469C188.408 30.4994 189.347 31.7524 191.54 31.7524C193.106 31.7524 194.448 31.1707 195.924 29.8958V16.8097L195.991 16.7873ZM214.624 31.327C214.96 32.6022 214.96 33.8325 214.602 35.0182L214.58 35.0628H214.535C213.26 35.309 212.141 35.4431 211.157 35.4431C209.569 35.4431 208.361 35.1075 207.511 34.414C205.945 33.1166 205.811 30.8351 205.811 28.5981L205.766 20.5677H203.462L203.44 20.5007C203.149 19.2479 203.149 17.9954 203.44 16.7651L203.462 16.6978H205.766L205.722 11.7322L205.789 11.7095C207.265 11.3741 208.786 11.3741 210.263 11.7095L210.33 11.7319V16.6978H213.976L213.998 16.7651C214.244 17.9954 214.244 19.2479 213.998 20.4785L213.976 20.5453H210.33V28.9113C210.33 30.0299 210.576 30.7456 211.068 31.1483C211.694 31.6405 212.723 31.6851 214.513 31.2602L214.602 31.2378L214.624 31.327Z" fill="#808080"/>
<path fill-rule="evenodd" clip-rule="evenodd" d="M15.2452 13.2612L2.95182 25.8185C1.41547 24.2487 0.454994 22.0906 0.262695 19.5397C0.262695 17.1854 1.41521 14.8309 2.95182 13.2612L15.4375 0.704102C16.9741 2.27386 17.9343 4.62812 17.9343 6.98264C17.9343 9.33715 16.782 11.6917 15.2454 13.2612H15.2452ZM20.653 30.6482L33.081 18.0908C34.6347 19.8567 35.6059 22.0151 35.6059 24.3694C35.6059 26.7239 34.4404 29.0784 32.8872 30.6482L20.4587 43.2052C18.9052 41.6355 17.9343 39.281 17.9343 36.9267C17.9343 34.5722 19.0993 32.2177 20.653 30.6482ZM20.3482 13.2612L24.0177 9.59066L33.0951 0.704102C34.6401 2.24963 35.6057 4.56793 35.6057 6.88623C35.6057 9.20453 34.447 11.5226 32.9017 13.0681L24.0177 21.9547L20.3482 25.6252L15.134 30.8412L11.4645 34.5117L2.77355 43.2052C1.22827 41.6597 0.262695 39.3414 0.262695 37.0231C0.262695 34.7048 1.42159 32.3865 2.96661 30.8412L11.6576 22.1477L15.1337 18.4772L20.3482 13.2612Z" fill="#808080"/>
</g>
<defs>
<clipPath id="clip0_913_546">
<rect width="214.742" height="42.5914" fill="white" transform="translate(0.262695 0.704102)"/>
</clipPath>
</defs>
</svg>
