<svg width="45" height="54" viewBox="0 0 45 54" fill="none" xmlns="http://www.w3.org/2000/svg">
<path d="M23.2773 26.8981C15.8207 26.8981 9.75781 21.0444 9.75781 13.8537C9.75781 6.66305 15.8247 0.80542 23.2773 0.80542C30.7299 0.80542 36.7968 6.65913 36.7968 13.8498C36.7968 21.0405 30.7299 26.8942 23.2773 26.8942V26.8981ZM23.2773 3.70679C17.4786 3.70679 12.7608 8.2588 12.7608 13.8537C12.7608 19.4487 17.4786 24.0007 23.2773 24.0007C29.076 24.0007 33.7938 19.4487 33.7938 13.8537C33.7938 8.2588 29.076 3.70287 23.2773 3.70287V3.70679Z" fill="#018AAA"/>
<path d="M43.4965 53.0927H1.50352C0.674553 53.0927 0 52.4419 0 51.6421V45.706C0 33.7359 10.0939 23.9967 22.5 23.9967C34.9061 23.9967 45 33.7359 45 45.706V51.6421C45 52.4419 44.3295 53.0927 43.4965 53.0927ZM3.00298 50.1914H41.997V45.706C41.997 35.3317 33.2522 26.8942 22.5 26.8942C11.7478 26.8942 3.00298 35.3356 3.00298 45.7099V50.1953V50.1914Z" fill="#018AAA"/>
</svg>
