<svg width="155" height="44" viewBox="0 0 155 44" fill="none" xmlns="http://www.w3.org/2000/svg">
<path d="M13.6312 7.29747C12.1594 5.56035 10.8929 3.78514 10.6345 3.42466C10.6291 3.41708 10.6219 3.4109 10.6136 3.40663C10.6053 3.40237 10.5962 3.40015 10.5869 3.40015C10.5775 3.40015 10.5684 3.40237 10.5601 3.40663C10.5518 3.4109 10.5447 3.41708 10.5392 3.42466C10.2821 3.78922 9.01569 5.56443 7.54656 7.30155C-5.06491 23.3601 9.53397 34.1977 9.53397 34.1977L9.65232 34.2807C9.76387 35.9566 10.0387 38.3616 10.0387 38.3616H11.1364C11.1364 38.3616 11.4085 35.962 11.5214 34.2807L11.6411 34.1868C11.6411 34.1868 26.24 23.3601 13.6312 7.29747ZM10.5882 33.9596C10.5882 33.9596 9.93391 33.4019 9.75706 33.1217V33.0917L10.5488 15.6035C10.5505 15.5938 10.5557 15.585 10.5632 15.5787C10.5708 15.5724 10.5804 15.5689 10.5903 15.5689C10.6001 15.5689 10.6097 15.5724 10.6173 15.5787C10.6249 15.585 10.63 15.5938 10.6317 15.6035L11.4262 33.0945V33.1244C11.2493 33.3965 10.595 33.9623 10.595 33.9623" fill="#808080"/>
<path d="M37.8525 30.382L31.791 15.6144L31.7733 15.5723H27.0462V16.5612H27.8052C27.9191 16.5612 28.0319 16.5838 28.137 16.6277C28.2421 16.6715 28.3374 16.7358 28.4175 16.8168C28.4976 16.8977 28.5608 16.9938 28.6035 17.0994C28.6462 17.2049 28.6676 17.3179 28.6663 17.4318L28.5303 32.3055C28.5289 32.5298 28.4399 32.7446 28.2824 32.9042C28.1248 33.0638 27.9111 33.1555 27.6869 33.1598L26.9102 33.1679V34.1514H31.5107V33.1693L31.0373 33.1598C30.812 33.1541 30.5978 33.0609 30.4401 32.8999C30.2824 32.7388 30.1936 32.5227 30.1926 32.2973V18.2861L36.8051 34.1419C36.8516 34.2528 36.9299 34.3475 37.0301 34.4141C37.1303 34.4807 37.2479 34.5163 37.3682 34.5163C37.4886 34.5163 37.6062 34.4807 37.7064 34.4141C37.8066 34.3475 37.8848 34.2528 37.9314 34.1419L44.3929 18.6343L44.4827 32.296C44.4838 32.5237 44.3949 32.7426 44.2355 32.9051C44.076 33.0676 43.8588 33.1606 43.6311 33.1638H43.1455V34.1473H48.5296V33.1638H47.7923C47.5664 33.1603 47.3508 33.0685 47.1917 32.9081C47.0326 32.7477 46.9425 32.5314 46.9408 32.3055L46.8972 17.4359C46.8972 17.2092 46.9861 16.9916 47.1448 16.8298C47.3036 16.668 47.5195 16.575 47.7461 16.5707L48.5323 16.5639V15.5723H43.9386L37.8525 30.382Z" fill="#808080"/>
<path d="M80.2358 32.9327C80.1583 32.8544 80.0978 32.761 80.0583 32.6582C80.0187 32.5554 80.0009 32.4455 80.0059 32.3355V25.0538C80.0059 23.6703 79.5978 22.5766 78.7816 21.8026C77.9654 21.0286 76.8622 20.6382 75.4801 20.6382C73.5294 20.6382 71.9977 21.4272 70.9258 22.982C70.9162 22.9961 70.9028 23.0071 70.8871 23.0136C70.8714 23.0201 70.8541 23.0219 70.8374 23.0187C70.8204 23.0162 70.8046 23.0086 70.792 22.997C70.7793 22.9853 70.7705 22.9702 70.7666 22.9534L70.2633 21.0068H69.4213L67.2529 22.2474V22.9276H67.812C68.0396 22.9156 68.2633 22.9894 68.4391 23.1344C68.5193 23.2157 68.5811 23.3132 68.6203 23.4205C68.6595 23.5278 68.6752 23.6422 68.6663 23.756V32.3396C68.6717 32.4497 68.6541 32.5597 68.6145 32.6626C68.5748 32.7655 68.5141 32.859 68.4362 32.937C68.3583 33.015 68.265 33.0759 68.1622 33.1157C68.0593 33.1554 67.9493 33.1733 67.8392 33.168H67.2951V34.157H72.2793V33.168H71.7352C71.6249 33.1735 71.5148 33.1558 71.4118 33.1161C71.3088 33.0764 71.2153 33.0156 71.1373 32.9375C71.0592 32.8595 70.9984 32.7659 70.9587 32.663C70.919 32.56 70.9013 32.4498 70.9067 32.3396V26.6549C70.913 25.9143 71.0752 25.1833 71.3828 24.5096C71.6865 23.8209 72.1677 23.2252 72.7772 22.7834C73.4114 22.3308 74.1747 22.0951 74.9537 22.1114C75.9059 22.1114 76.6228 22.412 77.073 23.0065C77.5233 23.6009 77.7532 24.3818 77.7532 25.3109V32.3355C77.7586 32.4456 77.741 32.5557 77.7013 32.6585C77.6617 32.7614 77.601 32.8549 77.5231 32.9329C77.4452 33.0109 77.3519 33.0718 77.2491 33.1116C77.1462 33.1514 77.0362 33.1692 76.9261 33.1639H76.382V34.1529H81.3662V33.1639H80.8221C80.7119 33.1689 80.602 33.1509 80.4992 33.111C80.3964 33.0712 80.303 33.0105 80.2249 32.9327" fill="#808080"/>
<path d="M125.905 16.6863C124.482 15.9396 122.896 15.5569 121.288 15.5722H114.759V16.5612H115.392C115.647 16.5798 115.887 16.6896 116.068 16.8707C116.249 17.0518 116.359 17.292 116.378 17.5474V32.1776C116.375 32.306 116.345 32.4325 116.292 32.5494C116.239 32.6662 116.162 32.7711 116.068 32.8577C115.982 32.9535 115.877 33.0305 115.76 33.0839C115.643 33.1373 115.516 33.1658 115.387 33.1679H114.755V34.1568H121.284C122.892 34.1722 124.478 33.7894 125.901 33.0427C127.291 32.3042 128.446 31.1905 129.234 29.8283C130.05 28.4367 130.469 26.7676 130.469 24.8659C130.469 22.9642 130.061 21.2964 129.234 19.9048C128.445 18.5429 127.291 17.4293 125.901 16.6904L125.905 16.6863ZM127.856 24.8659C127.856 26.603 127.545 28.0817 126.928 29.2611C126.312 30.4404 125.495 31.3246 124.492 31.896C123.482 32.4676 122.34 32.7641 121.18 32.7557H119.861C119.733 32.7539 119.606 32.7256 119.489 32.6724C119.372 32.6193 119.267 32.5425 119.181 32.4469C119.086 32.3603 119.01 32.2554 118.957 32.1385C118.903 32.0216 118.874 31.8952 118.871 31.7668V17.9582C118.89 17.703 119 17.4632 119.181 17.2824C119.362 17.1016 119.602 16.9919 119.857 16.9733H121.176C122.336 16.9649 123.478 17.2614 124.488 17.8331C125.49 18.4044 126.309 19.29 126.924 20.4666C127.539 21.6433 127.852 23.126 127.852 24.8618" fill="#808080"/>
<path d="M145.864 25.8454C145.271 25.157 144.114 24.5707 142.744 24.2579C144.627 23.3233 145.582 21.9943 145.582 20.3034C145.596 19.4266 145.339 18.5668 144.846 17.8413C144.323 17.1041 143.607 16.5259 142.776 16.1708C141.801 15.7553 140.75 15.5513 139.691 15.5723H132.359V16.5612H132.939C133.195 16.5798 133.435 16.6897 133.616 16.8708C133.797 17.0518 133.907 17.292 133.926 17.5474V32.1776C133.923 32.3061 133.894 32.4327 133.841 32.5497C133.787 32.6667 133.711 32.7715 133.615 32.8578C133.53 32.9538 133.425 33.031 133.308 33.0844C133.191 33.1378 133.064 33.1662 132.935 33.1679H132.303V34.1569H140.261C141.409 34.1692 142.549 33.9619 143.619 33.5461C144.579 33.182 145.419 32.5585 146.046 31.745C146.64 30.9547 146.942 29.9889 146.942 28.8721C146.965 27.7648 146.577 26.6882 145.854 25.8494L145.864 25.8454ZM136.74 32.447C136.645 32.3604 136.569 32.2555 136.515 32.1386C136.462 32.0217 136.433 31.8952 136.43 31.7668V25.1897H140.209C141.537 25.1897 142.568 25.5338 143.271 26.2113C143.974 26.8887 144.329 27.7852 144.329 28.8625C144.329 29.5174 144.169 30.1623 143.863 30.7411C143.542 31.3454 143.058 31.8474 142.466 32.1899C141.847 32.5585 141.088 32.7462 140.208 32.7462H137.415C137.286 32.7445 137.159 32.7161 137.042 32.663C136.925 32.6098 136.821 32.533 136.735 32.4374L136.74 32.447ZM136.439 23.7926V17.9583C136.458 17.7031 136.568 17.4632 136.749 17.2824C136.93 17.1016 137.17 16.9919 137.426 16.9734H139.223C140.514 16.9734 141.473 17.2944 142.071 17.9256C142.67 18.5568 142.974 19.3852 142.974 20.3823C142.974 21.4135 142.693 22.2487 142.136 22.8663C141.58 23.4838 140.734 23.7913 139.617 23.7913L136.439 23.7926Z" fill="#808080"/>
<path d="M61.2574 21.4966C60.1838 20.9284 58.9876 20.6313 57.7729 20.6313C56.5583 20.6313 55.3621 20.9284 54.2885 21.4966C53.2489 22.0678 52.3875 22.9152 51.7991 23.9451C51.1964 25.0604 50.8809 26.3081 50.8809 27.5758C50.8809 28.8435 51.1964 30.0912 51.7991 31.2065C52.3875 32.2364 53.2489 33.0838 54.2885 33.655C55.3622 34.2228 56.5584 34.5195 57.7729 34.5195C58.9875 34.5195 60.1837 34.2228 61.2574 33.655C62.2977 33.0844 63.1598 32.2369 63.7481 31.2065C64.3508 30.0912 64.6664 28.8435 64.6664 27.5758C64.6664 26.3081 64.3508 25.0604 63.7481 23.9451C63.1592 22.9151 62.2973 22.0678 61.2574 21.4966ZM62.264 27.5772C62.264 29.2558 61.8559 30.6066 61.0397 31.5914C60.2235 32.5763 59.1353 33.0687 57.775 33.0687C56.4147 33.0687 55.3155 32.5709 54.5102 31.5914C53.7049 30.612 53.2859 29.2571 53.2859 27.5772C53.2859 25.8972 53.694 24.5464 54.5102 23.5615C55.3264 22.5766 56.4147 22.0856 57.775 22.0856C59.1353 22.0856 60.2344 22.5821 61.0397 23.5615C61.845 24.5409 62.264 25.8972 62.264 27.5772Z" fill="#808080"/>
<path d="M109.268 21.4966C108.195 20.9284 106.998 20.6313 105.783 20.6313C104.569 20.6313 103.372 20.9284 102.298 21.4966C101.259 22.0678 100.397 22.9152 99.8089 23.9451C99.2062 25.0604 98.8906 26.3081 98.8906 27.5758C98.8906 28.8435 99.2062 30.0912 99.8089 31.2065C100.397 32.2364 101.259 33.0838 102.298 33.655C103.372 34.2228 104.569 34.5195 105.783 34.5195C106.998 34.5195 108.195 34.2228 109.268 33.655C110.308 33.0843 111.17 32.2368 111.758 31.2065C112.361 30.0912 112.676 28.8435 112.676 27.5758C112.676 26.3081 112.361 25.0604 111.758 23.9451C111.17 22.9152 110.308 22.0678 109.268 21.4966ZM110.274 27.5772C110.274 29.2558 109.866 30.6066 109.049 31.5914C108.233 32.5763 107.145 33.0687 105.785 33.0687C104.424 33.0687 103.325 32.5709 102.52 31.5914C101.715 30.612 101.296 29.2571 101.296 27.5772C101.296 25.8972 101.704 24.5464 102.52 23.5615C103.336 22.5766 104.424 22.0856 105.785 22.0856C107.145 22.0856 108.244 22.5821 109.049 23.5615C109.855 24.5409 110.274 25.8972 110.274 27.5772Z" fill="#808080"/>
<path d="M89.889 20.6313C88.8561 20.6194 87.8355 20.8569 86.914 21.3237C86.0557 21.753 85.3278 22.4039 84.8055 23.2091C84.3036 23.9874 84.0385 24.8948 84.0424 25.8209C84.0308 26.6296 84.232 27.4271 84.626 28.1334C85.0094 28.8041 85.5401 29.379 86.1781 29.8148L84.2383 32.4511C84.1208 32.611 84.05 32.8003 84.0337 32.998C84.0174 33.1958 84.0562 33.3942 84.1458 33.5712C84.2355 33.7482 84.3724 33.8969 84.5415 34.0008C84.7105 34.1046 84.905 34.1596 85.1034 34.1596H85.6598C85.1419 34.498 84.7052 34.9467 84.3811 35.4737C84.0387 36.0229 83.8551 36.6561 83.8506 37.3033C83.8506 38.4704 84.3675 39.4335 85.385 40.1599C86.4025 40.8864 87.8105 41.2482 89.587 41.2482C90.7802 41.2569 91.9657 41.0567 93.0898 40.6565C94.1011 40.3089 95.0063 39.708 95.7193 38.9112C96.379 38.1531 96.7347 37.1776 96.7178 36.1729C96.7178 35.0601 96.3097 34.2684 95.3575 33.5094C94.5413 32.8659 93.264 32.5245 91.671 32.5245H86.2298C86.2234 32.5248 86.2171 32.5233 86.2116 32.5201C86.2061 32.517 86.2015 32.5124 86.1985 32.5068C86.1952 32.5015 86.1935 32.4954 86.1935 32.4891C86.1935 32.4829 86.1952 32.4768 86.1985 32.4715L87.6105 30.567C87.9453 30.7219 88.2961 30.8396 88.6566 30.918C89.0152 30.9863 89.3797 31.0191 89.7448 31.0159C90.8092 31.0329 91.8623 30.7956 92.8164 30.3235C93.6821 29.8949 94.4186 29.2443 94.9507 28.4381C95.4619 27.6633 95.7326 26.7546 95.7288 25.8263C95.7288 24.817 95.2446 22.9792 93.9087 22.0419C93.9089 22.0405 93.9093 22.0392 93.9101 22.038C93.9108 22.0368 93.9118 22.0357 93.9129 22.035C93.9141 22.0342 93.9154 22.0337 93.9168 22.0335C93.9182 22.0333 93.9196 22.0334 93.921 22.0338L96.8538 22.3562V21.0149H92.173C91.4386 20.7598 90.6665 20.6301 89.889 20.6313ZM91.5214 29.1428C91.0201 29.4146 90.4592 29.5576 89.889 29.559C88.9952 29.5651 88.1353 29.2168 87.4976 28.5905C86.8174 27.9498 86.4787 27.018 86.4787 25.8195C86.4787 24.6211 86.8215 23.6879 87.4976 23.0472C88.1359 22.4219 88.9955 22.0742 89.889 22.08C90.4592 22.0815 91.0201 22.2245 91.5214 22.4963C92.0533 22.7874 92.4948 23.2195 92.7974 23.745C93.1266 24.2987 93.2939 24.9965 93.2939 25.8195C93.2939 26.6425 93.1266 27.3404 92.7974 27.8926C92.4956 28.4188 92.0539 28.851 91.5214 29.1414V29.1428ZM87.8268 34.1514H91.5146C92.5403 34.1514 93.1905 34.35 93.6285 34.7949C93.8453 35.0214 94.0145 35.289 94.1262 35.582C94.2379 35.875 94.2898 36.1874 94.2788 36.5007C94.291 36.9696 94.191 37.4346 93.987 37.857C93.783 38.2794 93.481 38.6469 93.1062 38.9289C92.3185 39.5464 91.2548 39.8593 89.9434 39.8593C88.7953 39.8593 87.854 39.6063 87.148 39.1057C86.442 38.6051 86.0951 37.8733 86.0951 36.9156C86.0897 36.3295 86.2624 35.7555 86.5903 35.2696C86.8978 34.7944 87.3265 34.4099 87.8322 34.1555" fill="#808080"/>
<path d="M149.722 33.9881C149.457 33.8372 149.239 33.6171 149.09 33.3515C148.94 33.0839 148.86 32.7819 148.86 32.4748C148.86 32.1676 148.94 31.8657 149.09 31.5981C149.24 31.3336 149.46 31.1153 149.726 30.9669C150.006 30.814 150.319 30.7339 150.638 30.7339C150.957 30.7339 151.271 30.814 151.551 30.9669C151.817 31.1157 152.037 31.3338 152.188 31.5981C152.338 31.866 152.416 32.1678 152.416 32.4748C152.416 32.7818 152.338 33.0836 152.188 33.3515C152.036 33.6154 151.816 33.8335 151.551 33.9827C151.271 34.1345 150.957 34.214 150.638 34.214C150.32 34.214 150.006 34.1345 149.726 33.9827L149.722 33.9881ZM151.396 33.7814C151.618 33.6552 151.801 33.4702 151.924 33.2468C152.05 33.0089 152.116 32.7439 152.116 32.4748C152.116 32.2057 152.05 31.9406 151.924 31.7028C151.801 31.4787 151.618 31.2931 151.396 31.1668C151.164 31.04 150.903 30.9736 150.638 30.9736C150.374 30.9736 150.113 31.04 149.881 31.1668C149.659 31.2935 149.476 31.479 149.353 31.7028C149.228 31.9409 149.162 32.2058 149.162 32.4748C149.162 32.7437 149.228 33.0087 149.353 33.2468C149.477 33.4699 149.659 33.6549 149.881 33.7814C150.113 33.909 150.373 33.9759 150.638 33.9759C150.903 33.9759 151.164 33.909 151.396 33.7814ZM149.9 33.3066V33.1869L149.924 33.1679H150.006C150.032 33.1669 150.057 33.1557 150.075 33.1366C150.085 33.1277 150.092 33.1169 150.097 33.105C150.102 33.0931 150.105 33.0802 150.105 33.0672V31.8048C150.105 31.7921 150.102 31.7794 150.097 31.7677C150.092 31.756 150.085 31.7455 150.075 31.7368C150.066 31.7271 150.056 31.7193 150.044 31.7139C150.032 31.7086 150.019 31.7057 150.006 31.7055H149.924L149.9 31.6865V31.5668L149.924 31.5477H150.632C150.801 31.5398 150.969 31.5876 151.109 31.6838C151.167 31.7282 151.214 31.7863 151.245 31.8529C151.276 31.9196 151.29 31.9927 151.286 32.066C151.287 32.1276 151.275 32.1888 151.252 32.2458C151.228 32.3028 151.194 32.3545 151.15 32.3979C151.057 32.4928 150.935 32.5528 150.803 32.568L150.966 32.6156L151.282 33.1135C151.291 33.1299 151.303 33.1439 151.319 33.1539C151.335 33.1639 151.353 33.1697 151.372 33.1706H151.453L151.472 33.1896V33.3093L151.453 33.3284H151.037L151.008 33.3093L150.569 32.5775H150.464V33.0794C150.464 33.0926 150.467 33.1056 150.472 33.1176C150.478 33.1295 150.486 33.1402 150.496 33.1488C150.504 33.1585 150.515 33.1662 150.527 33.1716C150.539 33.177 150.552 33.1799 150.565 33.1801H150.645L150.67 33.1992V33.3189L150.645 33.3379H149.924L149.9 33.3066ZM150.58 32.417C150.627 32.4202 150.674 32.4138 150.718 32.3981C150.762 32.3824 150.803 32.3578 150.837 32.3258C150.869 32.2905 150.894 32.2491 150.91 32.2039C150.925 32.1588 150.932 32.1109 150.928 32.0633C150.933 31.9691 150.902 31.8765 150.842 31.8035C150.814 31.7711 150.778 31.7455 150.739 31.7286C150.699 31.7116 150.656 31.7038 150.613 31.7055H150.561C150.535 31.7071 150.51 31.718 150.492 31.7363C150.473 31.7545 150.462 31.7789 150.46 31.8048V32.417H150.58Z" fill="#808080"/>
</svg>
