<svg width="15" height="9" viewBox="0 0 15 9" fill="none" xmlns="http://www.w3.org/2000/svg">
<path d="M14.7042 2.02606L8.05423 8.69585C7.97506 8.77502 7.8893 8.83123 7.79694 8.86448C7.70458 8.89773 7.60562 8.91409 7.50007 8.91356C7.39451 8.91356 7.29555 8.8972 7.20319 8.86448C7.11083 8.83176 7.02506 8.77555 6.9459 8.69585L0.276106 2.02606C0.0913842 1.84134 -0.000976882 1.61044 -0.000976894 1.33335C-0.000976906 1.05627 0.0979814 0.818769 0.295898 0.620852C0.493815 0.422936 0.724718 0.323977 0.988606 0.323977C1.2525 0.323977 1.4834 0.422936 1.68131 0.620852L7.50007 6.4396L13.3188 0.620852C13.5035 0.43613 13.7313 0.343768 14.002 0.343768C14.2728 0.343768 14.5068 0.442726 14.7042 0.640643C14.9021 0.83856 15.0011 1.06946 15.0011 1.33335C15.0011 1.59724 14.9021 1.82814 14.7042 2.02606Z" fill="#01303C"/>
</svg>
