<svg width="134" height="22" viewBox="0 0 134 22" fill="none" xmlns="http://www.w3.org/2000/svg">
<path d="M10.1506 6.17928H12.2696C13.594 6.17928 14.9713 6.44416 14.9713 7.98041C14.9713 9.30477 14.1237 10.2583 11.6339 10.2583H9.30305L10.1506 6.17928ZM0.827148 21.171H6.97218L8.24356 15.079H12.4285C17.726 15.079 21.1693 11.5827 21.1693 7.50364C21.1693 3.05379 18.7855 0.987793 15.0773 0.987793H5.0651L0.827148 21.171Z" fill="#808080"/>
<path d="M28.7448 7.92744L29.4865 13.9665H25.6193L28.7448 7.92744ZM15.4482 21.171H21.8052L23.3414 18.3104H29.9103L30.2281 21.171H36.3202L33.2476 0.987793H27.1026L15.4482 21.171Z" fill="#808080"/>
<path d="M38.9152 13.7546L34.5713 0.987793H40.8223L42.7293 8.51016L47.656 0.987793H54.9664L45.1132 13.7016L43.5769 21.171H37.3789L38.9152 13.7546Z" fill="#808080"/>
<path d="M69.8003 13.4897C69.4295 15.5557 67.8402 21.6478 59.4173 21.6478C53.5371 21.6478 50.7295 17.8336 50.7295 12.4302C50.7295 5.91437 54.8085 0.458008 61.6952 0.458008C66.198 0.458008 70.2241 2.41806 70.33 8.45714H64.4499C64.5028 6.55006 63.6023 5.49058 61.6952 5.49058C58.2519 5.49058 56.9805 9.46366 56.9805 12.3243C56.9805 14.0195 57.4043 16.5622 60.2649 16.5622C62.2249 16.5622 63.3374 15.2379 63.7082 13.4367L69.8003 13.4897Z" fill="#808080"/>
<path d="M73.4018 0.987793H79.6528L78.1695 7.98041H83.8377L85.321 0.987793H91.572L87.334 21.171H81.136L82.7782 13.1719H77.11L75.4148 21.171H69.2168L73.4018 0.987793Z" fill="#808080"/>
<path d="M93.2145 0.987793H109.901L108.842 6.17928H98.353L97.8233 8.66908H107.571L106.564 13.4898H96.8168L96.287 15.9795H106.988L105.928 21.171H88.9766L93.2145 0.987793Z" fill="#808080"/>
<path d="M114.193 10.4702L109.531 0.987793H116.312L118.272 6.23226L122.298 0.987793H129.661L121.238 10.4702L126.165 21.171H119.172L116.948 15.5558L112.233 21.171H104.604L114.193 10.4702Z" fill="#808080"/>
<path d="M130.455 1.88831C130.455 1.14667 130.985 0.563948 131.727 0.563948C132.415 0.563948 132.998 1.14667 132.998 1.88831C132.998 2.62995 132.468 3.21267 131.727 3.21267C131.038 3.21267 130.455 2.62995 130.455 1.88831ZM130.19 1.88831C130.19 2.78887 130.879 3.42457 131.727 3.42457C132.574 3.42457 133.263 2.78887 133.263 1.88831C133.263 1.04072 132.574 0.352051 131.727 0.352051C130.879 0.352051 130.19 1.04072 130.19 1.88831ZM131.144 2.78887H131.409V2.04723H131.674L132.15 2.84185H132.468L131.939 2.04723C132.203 2.04723 132.415 1.88831 132.415 1.57046C132.415 1.19964 132.203 1.04072 131.78 1.04072H131.144V2.78887ZM131.409 1.25262H131.78C131.992 1.25262 132.15 1.30559 132.15 1.51749C132.15 1.78236 131.939 1.83533 131.674 1.83533H131.409V1.25262Z" fill="#808080"/>
</svg>
