<svg width="120" height="36" viewBox="0 0 120 36" fill="none" xmlns="http://www.w3.org/2000/svg">
<path d="M25.7027 7.35149C25.6787 7.184 25.5352 7.0883 25.4155 7.08831C25.2959 7.08832 22.9271 7.04063 22.9271 7.04063C22.9271 7.04063 20.9411 5.12662 20.7497 4.91129C20.5582 4.71989 20.1754 4.76777 20.0319 4.81563C20.0319 4.81563 19.649 4.93529 19.027 5.12674C18.9312 4.79178 18.7637 4.38503 18.5483 3.95436C17.8544 2.61451 16.8015 1.89678 15.5574 1.89686C15.4616 1.89687 15.3899 1.89687 15.2942 1.92081C15.2463 1.87296 15.2224 1.8251 15.1745 1.80118C14.6242 1.22697 13.9303 0.939899 13.0928 0.963882C11.4897 1.01184 9.88673 2.18436 8.57089 4.24216C7.66177 5.70175 6.96802 7.52023 6.75277 8.93193C4.91045 9.50629 3.61843 9.91314 3.57057 9.91314C2.63745 10.2003 2.61352 10.2243 2.49395 11.1096C2.44614 11.7795 0.00687608 30.6579 0.00687608 30.6579L20.4884 34.1977L29.3651 31.9958C29.3412 31.9958 25.7266 7.51897 25.7027 7.35149ZM17.9981 5.46179C17.5196 5.60538 16.9932 5.7729 16.419 5.96436C16.4189 5.15085 16.2992 4.00237 15.9403 3.04532C17.1605 3.23665 17.7588 4.62437 17.9981 5.46179ZM15.3423 6.27548C14.2656 6.61052 13.0932 6.96951 11.9208 7.32849C12.2557 6.06034 12.8778 4.81611 13.6434 3.97862C13.9305 3.66755 14.3372 3.33255 14.7918 3.14111C15.2704 4.07422 15.3662 5.39019 15.3423 6.27548ZM13.1408 2.04058C13.5236 2.04056 13.8346 2.11232 14.0978 2.30371C13.6672 2.51908 13.2365 2.85409 12.8537 3.2848C11.8249 4.3855 11.0355 6.08435 10.7245 7.73532C9.74356 8.04644 8.78651 8.33362 7.92516 8.59687C8.49923 5.98882 10.6763 2.11253 13.1408 2.04058Z" fill="#808080"/>
<path d="M25.4164 7.08814C25.2967 7.08815 22.928 7.04046 22.928 7.04046C22.928 7.04046 20.9419 5.12645 20.7505 4.91112C20.6787 4.83934 20.583 4.7915 20.4873 4.7915L20.4893 34.1975L29.366 31.9957C29.366 31.9957 25.7514 7.5188 25.7274 7.35132C25.6796 7.18383 25.536 7.08814 25.4164 7.08814Z" fill="#808080"/>
<path d="M15.559 11.659L14.5304 15.5113C14.5304 15.5113 13.3819 14.985 12.0181 15.0808C10.0083 15.2006 10.0083 16.4687 10.0084 16.7797C10.1281 18.5025 14.6503 18.885 14.9138 22.9286C15.1054 26.1108 13.2393 28.2883 10.5116 28.456C7.25759 28.6237 5.46295 26.7097 5.46295 26.7097L6.15663 23.7666C6.15663 23.7666 7.97515 25.1303 9.41076 25.0345C10.3439 24.9866 10.7027 24.197 10.6549 23.6706C10.5111 21.4215 6.82643 21.5653 6.58691 17.8567C6.39529 14.7462 8.42886 11.6117 12.9271 11.3242C14.6737 11.2045 15.559 11.659 15.559 11.659Z" fill="white"/>
<path d="M41.3752 19.8643C40.3463 19.314 39.8199 18.8355 39.8199 18.1895C39.8198 17.376 40.5615 16.8495 41.71 16.8495C43.0499 16.8494 44.2463 17.3996 44.2463 17.3996L45.1792 14.5283C45.1792 14.5283 44.3178 13.8584 41.7816 13.8586C38.2404 13.8588 35.7761 15.8928 35.7763 18.7401C35.7764 20.3671 36.925 21.5873 38.4563 22.4725C39.7006 23.1663 40.1313 23.6687 40.1313 24.4104C40.1314 25.1761 39.5093 25.7982 38.3608 25.7983C36.662 25.7984 35.035 24.9132 35.035 24.9132L34.0302 27.7845C34.0302 27.7845 35.5138 28.7893 38.0261 28.7892C41.6629 28.7889 44.2948 26.9942 44.2946 23.7641C44.2705 22.0175 42.9545 20.7734 41.3752 19.8643Z" fill="#808080"/>
<path d="M55.8759 13.8098C54.0813 13.81 52.6697 14.6714 51.5931 15.9635L51.5452 15.9396L53.0999 7.8044L49.0563 7.80467L45.1098 28.5255L49.1534 28.5253L50.4928 21.4428C51.019 18.763 52.4067 17.112 53.6987 17.1119C54.608 17.1118 54.9669 17.7339 54.967 18.6192C54.967 19.1695 54.9192 19.8634 54.7996 20.4137L53.2688 28.525L57.3124 28.5247L58.8911 20.1502C59.0585 19.2649 59.178 18.2121 59.178 17.4943C59.2018 15.1974 58.0053 13.8097 55.8759 13.8098Z" fill="#808080"/>
<path d="M68.3651 13.8088C63.484 13.8091 60.2542 18.2119 60.2545 23.1168C60.2547 26.2513 62.193 28.7874 65.8299 28.7871C70.6152 28.7868 73.845 24.5037 73.8447 19.4791C73.8684 16.5839 72.1694 13.8085 68.3651 13.8088ZM66.38 25.7005C64.9922 25.7006 64.4179 24.5282 64.4178 23.0448C64.4176 20.7239 65.6137 16.9434 67.815 16.9432C69.2506 16.9431 69.7292 18.1873 69.7293 19.3836C69.7295 21.872 68.5094 25.7004 66.38 25.7005Z" fill="#808080"/>
<path d="M84.2285 13.8081C81.5008 13.8083 79.9458 16.225 79.9458 16.225L79.8979 16.225L80.137 14.0476L76.548 14.0479C76.3806 15.5074 76.0458 17.7565 75.7349 19.4314L72.9125 34.2662L76.9561 34.266L78.0803 28.2603L78.176 28.2603C78.176 28.2603 79.0135 28.7866 80.5448 28.7865C85.3062 28.7862 88.4164 23.9049 88.416 18.976C88.4158 16.2483 87.1954 13.8079 84.2285 13.8081ZM80.3532 25.7478C79.3004 25.7479 78.6782 25.1497 78.6782 25.1497L79.3479 21.3693C79.8263 18.833 81.1422 17.158 82.5538 17.1579C83.798 17.1579 84.1809 18.3063 84.181 19.383C84.1812 22.015 82.6262 25.7477 80.3532 25.7478Z" fill="#808080"/>
<path d="M94.2047 7.99301C92.9126 7.99309 91.8839 9.02202 91.8839 10.338C91.884 11.5343 92.6497 12.3717 93.7982 12.3716L93.8461 12.3716C95.1142 12.3715 96.1908 11.5101 96.2147 10.0267C96.2146 8.85424 95.425 7.99293 94.2047 7.99301Z" fill="#808080"/>
<path d="M88.5361 28.4986L92.5797 28.4984L95.3304 14.1421L91.2628 14.1424L88.5361 28.4986Z" fill="#808080"/>
<path d="M105.642 14.1176L102.819 14.1177L102.963 13.4478C103.202 12.06 104.015 10.8397 105.379 10.8396C106.097 10.8396 106.671 11.0549 106.671 11.0549L107.46 7.87254C107.46 7.87254 106.767 7.51369 105.259 7.51379C103.824 7.51388 102.388 7.92074 101.287 8.85395C99.8997 10.0265 99.2538 11.7253 98.9429 13.4481L98.8233 14.118L96.9331 14.1181L96.3351 17.1808L98.2253 17.1807L96.0727 28.5221L100.116 28.5218L102.269 17.1804L105.068 17.1802L105.642 14.1176Z" fill="#808080"/>
<path d="M115.404 14.1406C115.404 14.1406 112.868 20.5292 111.744 24.0226L111.696 24.0226C111.624 22.8981 110.691 14.1409 110.691 14.1409L106.432 14.1412L108.873 27.3247C108.921 27.6118 108.897 27.8032 108.777 27.9947C108.299 28.9039 107.509 29.7893 106.576 30.4353C105.811 30.9857 104.949 31.3447 104.279 31.584L105.404 35.0294C106.218 34.8618 107.94 34.1678 109.376 32.8278C111.218 31.105 112.941 28.4251 114.687 24.7881L119.639 14.1403L115.404 14.1406Z" fill="#808080"/>
</svg>
