<svg width="136" height="45" viewBox="0 0 136 45" fill="none" xmlns="http://www.w3.org/2000/svg">
<g clip-path="url(#clip0_521_4293)">
<path d="M60.7578 21.4166L60.712 20.9833C60.6916 20.8304 60.6661 20.6775 60.6304 20.5297C60.5693 20.2392 60.4826 19.9538 60.3909 19.6786C60.2023 19.1179 59.9679 18.5777 59.6977 18.0578C59.6519 17.9763 59.6009 17.9049 59.5601 17.8234C59.5194 17.6909 59.4837 17.5584 59.448 17.4258L59.1626 16.59C59.0556 16.3199 58.9638 16.0345 58.8415 15.7694L58.4185 15.0049C58.1229 14.4953 57.8222 13.9907 57.4807 13.5116C57.3227 13.267 57.1341 13.0325 56.9557 12.8032C56.7773 12.5636 56.5939 12.3343 56.3951 12.1151C56.0077 11.6615 55.5643 11.2589 55.126 10.8613L54.4074 10.316C54.1678 10.1376 53.8977 10.0051 53.6378 9.84198C53.1281 9.53108 52.5981 9.29663 52.0782 9.04689C51.3647 8.71561 50.6409 8.40471 49.9223 8.10401C49.6318 7.77782 49.3209 7.47202 49.01 7.16112C48.8418 6.98783 48.6532 6.82983 48.4748 6.66164C48.2914 6.49855 48.113 6.33036 47.9142 6.18256L47.3485 5.71876C47.1548 5.57095 46.9509 5.42825 46.7522 5.28554C46.3648 4.98993 45.9418 4.73 45.534 4.47517C45.1314 4.21523 44.6982 3.99098 44.2803 3.74634C44.0152 3.57815 43.7553 3.42525 43.4903 3.27235C43.2201 3.12454 42.9449 2.97164 42.6697 2.82894C42.1142 2.54352 41.5586 2.2734 40.9776 2.03385C40.8349 1.9676 40.6922 1.91153 40.5393 1.85547C40.3915 1.7994 40.2488 1.74334 40.101 1.69747C39.7952 1.59044 39.4996 1.4987 39.1938 1.41715C38.995 1.35599 38.7809 1.32032 38.572 1.27954C38.4191 1.25406 38.2662 1.22348 38.1082 1.20819C37.996 1.198 37.8788 1.17251 37.7565 1.16742H37.3029C36.309 1.08587 35.2999 0.978838 34.3417 0.780068C34.0206 0.673037 33.7148 0.59149 33.3988 0.51504C33.0675 0.428396 32.7363 0.362139 32.405 0.300979C32.0788 0.239819 31.7424 0.199045 31.406 0.148078C31.0747 0.112402 30.7333 0.0767247 30.402 0.0512413L29.3928 0.00537109L28.3837 0.0155645C28.0473 0.0257578 27.7109 0.071628 27.3695 0.0920148C27.0331 0.102208 26.7018 0.173562 26.3705 0.219432C26.0341 0.265302 25.7028 0.316269 25.3766 0.397816C25.0454 0.464073 24.7141 0.535427 24.393 0.642457L23.4501 1.00942C23.129 1.12155 22.8334 1.28974 22.5327 1.43244C22.2371 1.59554 21.9262 1.71786 21.6459 1.90134L20.7947 2.43139C20.5093 2.59449 20.2494 2.81365 19.9894 3.01751L19.2097 3.62912L20.071 3.13983C20.3564 2.98693 20.6316 2.80855 20.9425 2.68623L21.8294 2.28359C22.1199 2.14598 22.4461 2.06443 22.7468 1.95231C23.0526 1.84528 23.3533 1.72295 23.6693 1.6567L24.6121 1.42225C24.923 1.36619 25.2339 1.29993 25.5397 1.21838C25.8455 1.13174 26.1615 1.08587 26.4724 1.04C26.7935 0.999225 27.1197 0.927871 27.4561 0.917678C27.7772 0.897291 28.0932 0.856518 28.4092 0.846324L29.3775 0.836131L29.9739 0.861615V0.866711C29.7598 0.912581 29.561 1.00942 29.3572 1.08077C29.1533 1.16232 28.9596 1.27445 28.771 1.36619L28.241 1.6465L27.7058 1.93702C26.9923 2.34475 26.2941 2.76778 25.6213 3.29783L25.6009 3.31822C25.4633 3.44054 25.2951 3.57815 25.1218 3.69537C24.9536 3.82279 24.7752 3.94511 24.6019 4.05724C24.4287 4.16936 24.2401 4.27639 24.0566 4.38852C23.8629 4.48536 23.6795 4.59239 23.4858 4.67903C23.2921 4.76568 23.0984 4.85742 22.8997 4.93896L22.3033 5.15812L21.6917 5.33651C21.4879 5.40276 21.2738 5.42825 21.0648 5.47412L20.754 5.54037L20.4431 5.57605C20.229 5.59644 20.0251 5.63721 19.8111 5.64231L19.174 5.6525C18.9599 5.66779 18.751 5.63211 18.5369 5.61173C18.3228 5.61173 18.1088 5.66269 17.8896 5.64231L17.2423 5.63211C17.013 5.64231 16.804 5.60663 16.5798 5.58624L15.9019 5.52508L16.5135 5.82579C16.7174 5.91243 16.9263 6.02965 17.1404 6.09591L17.7979 6.30997C18.017 6.39152 18.2464 6.43739 18.4706 6.47307C18.7 6.47307 18.9344 6.50874 19.1638 6.49345L19.8569 6.48326C20.0863 6.47307 20.3105 6.43229 20.5501 6.41191L20.8967 6.37623L21.233 6.30488C21.4624 6.24881 21.6866 6.22333 21.9058 6.15198L22.5684 5.9583L23.2157 5.71876C23.4348 5.63211 23.6438 5.53018 23.8527 5.43844C24.0566 5.33651 24.2656 5.22438 24.4643 5.12245C24.6631 5.00522 24.8619 4.888 25.0606 4.76568C25.2492 4.63826 25.448 4.51084 25.6315 4.36813C25.8099 4.23562 25.9781 4.1082 26.1615 3.94001C26.7578 3.47112 27.4459 3.05319 28.134 2.66074L28.6589 2.37533L29.2043 2.08992C29.3572 2.01856 29.4948 1.93702 29.6528 1.87076C29.6528 1.87076 29.6732 1.86057 29.7088 1.84528C30.0044 1.70766 31.4621 1.08587 33.1899 1.31522H33.2154C33.2154 1.31522 33.2357 1.32032 33.2459 1.32032C33.2459 1.32032 33.251 1.32032 33.2561 1.32032C33.5517 1.38657 33.8473 1.47322 34.1175 1.56496L34.1531 1.57515H34.1735C34.6883 1.68728 35.2031 1.76373 35.7178 1.82999C36.2326 1.88605 36.7423 1.94211 37.2621 1.97779H37.308L37.7259 1.98798C37.8635 1.99308 38.0062 2.01856 38.1489 2.03385C38.2866 2.04405 38.4293 2.08992 38.572 2.1154C38.7147 2.14598 38.8574 2.17656 38.995 2.21224C39.2753 2.28359 39.5556 2.37533 39.8359 2.46707C39.9787 2.51294 40.1163 2.569 40.2539 2.61997C40.3915 2.67603 40.5291 2.727 40.6667 2.78816C41.2121 3.01242 41.7574 3.26725 42.2875 3.54757C42.5525 3.68518 42.8175 3.83298 43.0825 3.98588C43.3374 4.13369 43.6024 4.28659 43.847 4.43949L43.8776 4.45478C44.2854 4.69432 44.6982 4.90838 45.0957 5.15812C45.4933 5.41296 45.8908 5.6576 46.268 5.94301C46.4565 6.08572 46.6553 6.21314 46.8337 6.35584L47.3841 6.80435C47.5625 6.94196 47.7358 7.10506 47.9142 7.26305C47.9397 7.28344 47.9703 7.31402 47.9957 7.3395C47.7409 7.25286 47.4861 7.16112 47.2312 7.08467C46.6757 6.90119 46.1151 6.74319 45.5442 6.60048C45.2486 6.52913 44.9887 6.47816 44.6625 6.41191C44.3873 6.37623 44.107 6.32526 43.8317 6.2692C43.2762 6.16727 42.7258 6.03985 42.1804 5.89714C41.6351 5.74934 41.0999 5.58624 40.5852 5.38747C40.2539 5.26006 39.9328 5.11735 39.6372 4.94916C38.1999 4.16427 36.8442 3.78711 36.5282 3.71066C36.4823 3.70047 36.4568 3.69537 36.4568 3.69537C36.3804 3.68008 36.3039 3.66479 36.2275 3.6546C35.9829 3.61383 35.7382 3.57305 35.4834 3.55776C35.2285 3.52718 34.9788 3.52208 34.7291 3.51189H34.3519C34.2296 3.51189 34.1022 3.53228 33.9799 3.53738C33.725 3.54757 33.4855 3.60363 33.2408 3.63421C33.4906 3.6546 33.7352 3.6597 33.9799 3.70557C34.1022 3.72595 34.2194 3.73615 34.3366 3.76673L34.6985 3.83808C34.9329 3.89924 35.1674 3.95021 35.3967 4.03175C35.6261 4.09801 35.8554 4.16936 36.0746 4.25091C36.3039 4.33246 36.5282 4.4191 36.7474 4.52104C36.9665 4.60768 37.1857 4.71981 37.4099 4.80645C37.6342 4.888 37.8584 4.96954 38.0776 5.06638C38.1184 5.08677 38.1642 5.10206 38.205 5.12245C38.205 5.12245 37.5221 5.14283 36.8391 5.27535C36.3192 5.37728 35.7994 5.54547 35.6006 5.81559C35.6006 5.81559 35.9064 5.74934 36.4416 5.71876C37.257 5.67289 38.6178 5.70856 40.2794 6.20294C40.4272 6.24881 40.575 6.28959 40.7177 6.34055C40.7533 6.35075 40.7941 6.36604 40.8298 6.38133H40.84C41.2121 6.50365 41.5841 6.62087 41.9664 6.71771C42.527 6.87061 43.0978 6.99803 43.6738 7.10506C43.9592 7.16112 44.2446 7.20699 44.5351 7.25286C44.7746 7.30892 45.0753 7.36499 45.3404 7.43124C45.8857 7.56376 46.426 7.71666 46.9662 7.89504C47.5014 8.06833 48.0365 8.25691 48.5666 8.46078C48.8469 8.56781 49.1323 8.69013 49.4177 8.80225C49.7235 9.13354 49.9987 9.4954 50.2842 9.85217C50.5645 10.2293 50.8448 10.6065 51.0945 11.004C51.3392 11.3557 51.5481 11.7328 51.7673 12.0998C51.7979 12.1508 51.8285 12.2017 51.859 12.2527C51.9406 12.3903 52.0119 12.5177 52.0119 12.5177C51.6857 12.5075 51.436 12.4719 51.2831 12.4413C51.2525 12.4362 51.227 12.4311 51.2067 12.426C51.1812 12.4209 51.1506 12.4158 51.1251 12.4056C51.12 12.4056 51.1149 12.4056 51.1098 12.4005C51.0232 12.3801 50.9314 12.3546 50.8448 12.3292C50.6766 12.2833 50.5084 12.2323 50.3453 12.1814C50.014 12.0692 49.6929 11.9469 49.3769 11.794C49.061 11.6462 48.7602 11.4729 48.4748 11.269C48.1894 11.0703 47.9244 10.8307 47.7154 10.5402C48.0365 11.1926 48.6022 11.7023 49.1986 12.11C49.4993 12.3139 49.8204 12.5075 50.1465 12.6706C50.1669 12.6808 50.1822 12.691 50.2026 12.7012C50.2026 12.7012 50.2077 12.7012 50.2128 12.7012C50.8652 13.0019 51.4411 13.1395 51.6399 13.1803C51.6857 13.1905 51.7112 13.1905 51.7112 13.1905C51.9508 13.2415 52.1903 13.3026 52.4299 13.3689C52.4401 13.3995 52.4604 13.4249 52.4757 13.4555C52.5828 13.6696 52.6745 13.8836 52.7611 14.0977C52.8529 14.3169 52.9497 14.5309 53.0313 14.7501C53.2046 15.1884 53.3626 15.6318 53.5053 16.0803C53.6429 16.5288 53.755 16.9875 53.9181 17.4309C54.0557 17.8846 54.1882 18.3382 54.3105 18.7918C54.4227 19.2556 54.5348 19.7194 54.6265 20.1832C54.6724 20.4023 54.7132 20.6215 54.7489 20.8457L54.6775 20.6622C54.6316 20.5603 54.601 20.5093 54.5654 20.4329C54.4889 20.2953 54.4125 20.1679 54.336 20.0455C54.0149 19.541 53.6633 19.0721 53.2759 18.6236C52.8937 18.1751 52.4808 17.752 52.0476 17.3596C51.6144 16.9621 51.1506 16.6053 50.6817 16.2587L50.6613 16.2485L50.6205 16.2281C50.5186 16.1721 50.3861 16.0956 50.2689 16.0243C50.1516 15.9478 50.0293 15.8612 49.9172 15.7847C49.6777 15.6165 49.4534 15.433 49.2342 15.2445C49.0151 15.0661 48.8061 14.8571 48.6073 14.6482C48.5003 14.5462 48.3882 14.4545 48.2761 14.3525L47.955 14.0518C47.853 13.955 47.7664 13.8531 47.6645 13.7511C47.5625 13.6492 47.4708 13.5473 47.379 13.4402L47.058 13.0682L46.7776 12.7165C46.6247 12.533 46.4922 12.3343 46.3495 12.1355C46.2272 11.9622 46.0386 11.6717 45.9265 11.4933L45.7583 11.2232L45.9112 11.6564C45.9622 11.7991 46.008 11.9418 46.0743 12.0845C46.1966 12.3648 46.3138 12.6553 46.4565 12.9306L46.6655 13.3383L46.9203 13.7766C46.9968 13.9091 47.0783 14.0315 47.165 14.1538C47.2465 14.2761 47.323 14.3984 47.4096 14.5207C47.5982 14.7705 47.7766 15.0304 47.9907 15.2598C48.1028 15.3719 48.22 15.4687 48.3372 15.5808C48.4544 15.6828 48.5768 15.7949 48.6889 15.8917C48.9233 16.1007 49.1782 16.2893 49.433 16.4779C49.5604 16.5645 49.6929 16.6562 49.8305 16.7429C49.9529 16.8193 50.0752 16.8907 50.2179 16.962C50.6562 17.2933 51.0894 17.6246 51.4972 17.9916C51.9049 18.3636 52.2922 18.7561 52.6541 19.1791C53.0109 19.597 53.3422 20.0404 53.6327 20.4992C53.7091 20.6113 53.7754 20.7285 53.8365 20.8457C53.8671 20.9018 53.9028 20.9731 53.9181 20.9935L53.9894 21.1872C54.0455 21.3248 54.1016 21.4624 54.1525 21.6051C54.1525 21.6051 54.1525 21.6153 54.1627 21.6408C54.1729 21.6612 54.1831 21.6867 54.1933 21.7173C54.1984 21.7478 54.2137 21.7835 54.229 21.8192V21.8294C54.6367 23.1188 56.2779 29.612 50.5696 35.1317C50.6052 35.0298 51.1251 33.3734 51.1659 30.8301C51.6348 24.6886 48.3423 19.7041 48.3423 19.7041C47.1905 17.9304 46.1864 16.2179 46.1864 16.2179C46.0539 15.9019 45.8398 15.6522 45.6666 15.3566C45.4882 15.0763 45.2894 14.8011 45.0957 14.5258C44.8817 14.2659 44.6931 13.9907 44.4688 13.7409C44.2497 13.4861 44.0254 13.2313 43.7757 12.9968C43.5463 12.7471 43.2813 12.533 43.0214 12.3037C42.8991 12.1915 42.7513 12.0947 42.6085 11.9928C42.4658 11.8959 42.3231 11.7889 42.1804 11.7023C41.8797 11.5392 41.5535 11.3506 41.2732 11.2232C40.6922 10.9378 40.1112 10.6422 39.5352 10.3415C38.9644 10.0407 38.3936 9.72475 37.8431 9.39347C37.2978 9.06218 36.7525 8.71561 36.2988 8.32316C36.1612 8.19065 36.0338 8.06833 35.9013 7.95111C35.7586 7.82879 35.621 7.70137 35.4732 7.58414C35.1929 7.3497 34.8922 7.12544 34.5864 6.91138C34.4487 6.80945 34.306 6.71771 34.1633 6.62597C33.99 6.52403 33.8168 6.41191 33.6435 6.31507C33.4804 6.22333 33.3122 6.1214 33.1389 6.03985L32.6343 5.79521L32.1043 5.57605C31.9616 5.51489 31.8087 5.47412 31.6609 5.41805C31.4621 5.3467 31.2633 5.29573 31.0544 5.28044C30.8505 5.26006 30.6415 5.22948 30.4326 5.22438H29.8617C29.6732 5.21928 29.4795 5.27025 29.296 5.28554C29.1125 5.30593 28.9239 5.33141 28.7456 5.39257L28.2155 5.54547L28.7659 5.56076C28.9443 5.56076 29.1227 5.59134 29.3011 5.61682C29.4795 5.6525 29.6528 5.6576 29.821 5.70856L30.3306 5.83598C30.4988 5.89204 30.6619 5.9583 30.825 6.01437C30.9066 6.04495 30.983 6.07043 31.0696 6.10101C31.1461 6.14688 31.2225 6.17746 31.3092 6.20294C31.4774 6.24881 31.6405 6.28959 31.7985 6.35584L32.2776 6.55461L32.7516 6.78397C32.9045 6.85532 33.0472 6.94706 33.195 7.02861C33.353 7.11015 33.5059 7.20699 33.6588 7.30892C33.8117 7.41086 33.9544 7.4975 34.0971 7.60453C34.2806 7.73195 34.464 7.86446 34.6424 8.00207C34.6118 7.98169 34.5762 7.97149 34.5405 7.9562C34.3417 7.86956 34.1379 7.77782 33.934 7.70137C33.725 7.6453 33.5059 7.61472 33.2969 7.55866C33.0879 7.5026 32.8739 7.47202 32.6598 7.42615C32.4407 7.38028 32.2215 7.3497 31.9972 7.31912C31.7832 7.28854 31.5742 7.25286 31.3602 7.23757L30.7078 7.17641L30.0554 7.15602C29.8362 7.14583 29.6171 7.14583 29.403 7.15602C29.1839 7.16622 28.9647 7.16622 28.7405 7.17641L28.0881 7.24267C27.8689 7.25286 27.6498 7.28854 27.4357 7.32931L27.2879 7.35479C27.2013 7.36499 27.1146 7.38028 27.0382 7.39557C26.8445 7.43124 26.6865 7.47711 26.5846 7.50769C26.5744 7.50769 26.5591 7.51789 26.5489 7.51789C26.5285 7.52298 26.5132 7.52808 26.4928 7.53827C26.4826 7.54337 26.4724 7.54847 26.4571 7.54847C25.9781 7.71666 25.4837 7.87975 24.9893 8.02246C24.4032 8.20084 23.8171 8.35884 23.2258 8.48626C22.6295 8.61877 22.0332 8.7258 21.4471 8.78187C21.2993 8.79716 21.1617 8.79206 21.0088 8.80735L20.5501 8.81754C20.2494 8.82264 19.9487 8.81754 19.6429 8.80735C18.4299 8.77167 17.2169 8.62897 16.0344 8.37413C15.8866 8.34355 15.749 8.29258 15.5961 8.262L15.1476 8.20084L14.6991 8.12949L14.2455 8.03775C13.9397 7.98169 13.6492 7.90014 13.3485 7.82369C13.0529 7.74724 12.7572 7.64021 12.4616 7.55356C12.7165 7.72685 12.9713 7.92053 13.2414 8.08362C13.5218 8.23652 13.7868 8.40471 14.0773 8.53722L14.5054 8.74619L14.9488 8.92457C15.0966 8.98573 15.2393 9.05199 15.3922 9.09786C15.5451 9.13354 15.7031 9.15392 15.856 9.1947C16.9977 9.43934 18.1546 9.57185 19.3065 9.63301C19.23 9.66869 19.1587 9.71456 19.0771 9.74514C18.8223 9.85727 18.5471 9.9643 18.2464 10.0662C17.9457 10.1835 17.6246 10.265 17.2933 10.3618C16.9518 10.4332 16.6052 10.5402 16.2485 10.581C16.065 10.6116 15.8866 10.6371 15.7031 10.6676L15.5349 10.6778H15.5248C12.6808 11.0754 9.43421 10.0255 9.26602 9.96939H9.26092C9.26092 9.96939 9.26092 9.96939 9.26602 9.97959C9.27112 9.97959 9.28641 9.99488 9.32208 10.0255C9.68904 10.316 11.7685 11.8399 15.6777 11.5137H15.6827L15.8102 11.5035C16.0038 11.4729 16.1975 11.4423 16.3912 11.4169C16.7785 11.3659 17.1455 11.2589 17.5125 11.1773C17.8641 11.0754 18.2107 10.9785 18.5318 10.8613C18.8529 10.7492 19.1536 10.632 19.4237 10.5147C19.5511 10.4434 19.704 10.4281 19.806 10.3313C19.806 10.3313 20.8355 9.78591 22.3492 9.51069C22.4613 9.49031 22.5633 9.47502 22.6754 9.45463C22.706 9.44953 22.7315 9.44953 22.7519 9.44444C22.971 9.39857 23.1953 9.35779 23.4195 9.30682C24.0362 9.16921 24.6427 9.00102 25.2441 8.82774C25.7334 8.67993 26.2125 8.52193 26.7018 8.35374C26.7426 8.33845 26.7833 8.32316 26.8241 8.30787C26.977 8.262 27.1095 8.23142 27.1809 8.22123C27.2013 8.21613 27.2165 8.21613 27.2267 8.21104C27.2369 8.21104 27.2471 8.21104 27.2471 8.21104L27.5835 8.15497C27.7823 8.1193 27.9861 8.07852 28.1849 8.06833L28.8016 8.01227C29.0157 8.00207 29.2195 8.00207 29.4234 7.99188C29.6324 7.98169 29.8413 7.98169 30.0452 7.99188L30.667 8.01227L31.2888 8.06833C31.4978 8.07852 31.7016 8.12439 31.9055 8.14988C32.1094 8.18046 32.3183 8.21104 32.5171 8.24671C32.721 8.29258 32.9299 8.32826 33.1287 8.37413C33.3326 8.40981 33.5262 8.48626 33.7301 8.52703C33.934 8.56271 34.1429 8.59839 34.3519 8.62897C34.7647 8.70542 35.1776 8.79206 35.5904 8.8838C35.6363 8.89399 35.6821 8.90419 35.728 8.91948L35.7484 8.93986V8.95006C36.0287 9.17431 36.3039 9.38837 36.5792 9.57185C36.8595 9.76553 37.1398 9.93881 37.4252 10.1121C38.0011 10.4587 38.5771 10.7747 39.1581 11.0805C39.7442 11.3914 40.3303 11.687 40.9266 11.9775C41.2375 12.1202 41.4822 12.2731 41.7574 12.4107C41.8899 12.4974 42.0122 12.5942 42.1346 12.6757C42.262 12.7624 42.3894 12.849 42.5066 12.9561C42.7462 13.1599 42.9857 13.3536 43.1998 13.5931C43.424 13.8072 43.6381 14.0467 43.8419 14.2863C44.056 14.5258 44.2344 14.7807 44.4332 15.0304C44.6166 15.2954 44.8103 15.5452 44.9785 15.8153C45.0346 15.9019 45.0855 15.9937 45.1416 16.0752C44.6523 15.6573 44.1376 15.2547 43.6075 14.8877C43.2252 14.6227 42.8379 14.3678 42.4302 14.1283C42.0377 13.8836 41.6147 13.6798 41.2019 13.4657C40.7839 13.2517 40.3507 13.0886 39.9175 12.8898C39.4792 12.7318 39.0409 12.5738 38.5873 12.426C38.1337 12.3139 37.6902 12.1763 37.2264 12.0794C36.7626 12.003 36.3039 11.901 35.8401 11.8501C35.3713 11.8144 34.9024 11.7634 34.4386 11.7379L33.0319 11.7532H32.9962C32.5222 11.8195 32.0329 11.8654 31.5436 11.9061C31.3041 11.9214 31.0595 11.9418 30.8148 11.952C30.5702 11.9622 30.3306 11.9622 30.086 11.9775L29.3623 12.0336C29.1227 12.0386 28.8781 12.0539 28.6436 12.0437C28.399 12.0488 28.1645 12.0336 27.9301 12.0132L27.5835 11.9724L27.2471 11.901C26.9362 11.7889 26.6355 11.687 26.3246 11.6054C26.0086 11.5086 25.6875 11.4372 25.3614 11.3659C24.7141 11.2436 24.0566 11.1773 23.4093 11.213C24.0566 11.269 24.6886 11.4321 25.29 11.636C25.6009 11.7379 25.8965 11.8501 26.1921 11.9775C26.4826 12.0998 26.7782 12.2323 27.0586 12.3801H27.0636L27.0789 12.3852L27.4561 12.5126L27.8383 12.6095C28.0932 12.6553 28.348 12.7063 28.5978 12.7318C29.0106 12.7777 29.4336 12.8133 29.8515 12.8235C29.7547 12.8541 29.6579 12.8796 29.5559 12.9C29.4948 12.9102 29.4336 12.9306 29.3775 12.9408C29.2654 12.9611 29.1635 12.9866 29.0565 13.007C28.9596 13.0223 28.873 13.0427 28.7863 13.0529C28.7761 13.058 28.7608 13.058 28.7507 13.058C27.6243 13.2568 26.6049 13.3026 25.7946 13.2924C24.5765 13.272 23.8171 13.1242 23.8171 13.1242C24.6172 13.8276 25.8761 14.0111 27.0636 14.0111H27.1911C28.5723 13.9805 29.8362 13.69 30.137 13.6135C30.1828 13.6033 30.2083 13.5931 30.2083 13.5931C30.2746 13.5778 30.3357 13.5575 30.4071 13.5371C30.8199 13.4097 31.2073 13.272 31.5283 13.1344C31.6048 13.0835 31.7016 13.0988 31.7577 13.0325C31.7577 13.0325 33.0777 12.5228 34.8922 12.6095C35.04 12.6146 35.1929 12.6299 35.3458 12.6452C35.4783 12.6553 35.6057 12.6706 35.7433 12.6808C36.1867 12.7267 36.6199 12.8337 37.0532 12.9C37.4915 12.9866 37.9145 13.1191 38.3477 13.2262C38.7707 13.3638 39.1887 13.5218 39.6066 13.6696C40.0092 13.8531 40.4272 14.0111 40.8247 14.2149C41.2222 14.4188 41.6249 14.6176 42.002 14.852C42.3894 15.0712 42.7614 15.3209 43.1284 15.5707C43.8572 16.0854 44.5555 16.641 45.1977 17.2577C45.3608 17.4055 45.5188 17.5686 45.6717 17.7215L45.8908 17.961L45.9112 17.9814L45.9214 18.0018L45.9673 18.068L46.0641 18.2107L46.4514 18.7612C46.5789 18.9396 46.7063 19.123 46.8184 19.3167C47.0478 19.7041 47.2975 20.071 47.4912 20.4686C47.695 20.8661 47.9091 21.2586 48.0773 21.6714L48.3474 22.2881L48.5819 22.915C48.7501 23.3329 48.8673 23.761 49.0049 24.1841C49.2444 25.0454 49.4636 25.922 49.591 26.8038C49.7235 27.6906 49.8102 28.5774 49.8204 29.4693C49.8204 29.5967 49.8102 29.7242 49.8051 29.8567C49.5247 27.2777 48.6991 25.6876 48.6991 25.6876C45.7889 19.7041 39.7034 17.8336 37.8533 17.3902L37.8075 17.38C37.6851 17.3494 37.5679 17.3239 37.4558 17.3035C37.3691 17.2882 37.3182 17.278 37.3182 17.278C36.992 17.2322 36.676 17.1812 36.3498 17.1557C35.7076 17.0895 35.0654 17.0589 34.4182 17.0691C34.1786 17.0691 33.9493 17.0844 33.7097 17.0997C33.6995 17.0997 33.6893 17.0946 33.6791 17.0946L32.6598 16.8703C32.3234 16.7888 31.9871 16.6919 31.6405 16.6664C31.299 16.6308 30.9575 16.5645 30.6211 16.5084C30.2797 16.4473 29.9433 16.3861 29.6069 16.3148C29.2705 16.2434 28.9392 16.1772 28.6079 16.0905C28.2716 16.0141 27.9454 15.9121 27.6192 15.8204C27.2981 15.7185 26.9872 15.6063 26.6151 15.4993C26.2686 15.4025 25.922 15.3158 25.5703 15.2445C25.3919 15.2088 25.2136 15.1782 25.0301 15.1476C24.6529 15.0763 24.2095 15.0202 23.868 14.9845C23.5316 14.9489 23.287 14.9336 23.287 14.9336C23.2411 14.8877 23.18 14.9183 23.1239 14.8928C22.8946 14.8316 22.6295 14.7399 22.3492 14.6176C22.0689 14.4953 21.7886 14.3373 21.5134 14.1538C21.3808 14.062 21.2381 13.9754 21.1158 13.8735C20.9884 13.7715 20.861 13.6798 20.7438 13.5677H20.7387C20.6826 13.532 20.0965 13.0988 19.2759 12.8133C18.4095 12.5177 17.2831 12.375 16.2485 13.0019C16.2485 13.0019 17.1404 12.9 18.6031 13.4912C18.6031 13.4912 19.3473 13.746 19.8315 14.1181C19.8315 14.1181 20.545 14.7297 21.1464 14.9132C20.8508 14.9234 20.5552 14.9387 20.2647 14.9591C20.02 14.9743 19.7805 14.9998 19.5409 15.0202C19.5206 15.0202 19.4951 15.0253 19.4747 15.0253C19.2606 15.0559 19.0924 15.0916 18.9905 15.117C18.9242 15.1374 18.8886 15.1476 18.8886 15.1476C18.7255 15.1935 18.5471 15.2445 18.3789 15.275C18.1241 15.3311 17.8641 15.3668 17.5991 15.4076C17.3443 15.4279 17.0792 15.4636 16.8142 15.4687C16.5543 15.4687 16.2842 15.4993 16.0242 15.4687C15.7643 15.4483 15.4942 15.4534 15.2393 15.4076C14.9794 15.3566 14.7093 15.3464 14.4544 15.2801C14.1996 15.2139 13.9448 15.1578 13.695 15.0916L12.9509 14.8367C12.7012 14.7501 12.4718 14.6176 12.2272 14.5156L11.8755 14.3474L11.5391 14.1436C11.32 14.0009 11.0753 13.8786 10.8664 13.7206C10.6727 13.5422 10.4332 13.4148 10.2038 13.2771L9.85723 13.0631L9.54634 12.8184L8.89396 12.3292C8.6748 12.161 8.49132 11.9571 8.28236 11.7787L7.66566 11.2181L8.11926 11.9163C8.27217 12.1457 8.41997 12.3852 8.59835 12.6095L9.1488 13.2517L9.42402 13.5728L9.73491 13.8633C9.94388 14.0569 10.1426 14.271 10.3822 14.4239L11.111 14.8775L11.478 15.0916L11.8653 15.2801C12.1304 15.3923 12.3801 15.535 12.6502 15.6318L13.4606 15.9121C13.7307 15.9886 14.0161 16.0446 14.2914 16.116C14.5717 16.1874 14.852 16.2077 15.1374 16.2536C15.4228 16.3097 15.7133 16.2995 15.9987 16.325C16.2791 16.3555 16.5696 16.325 16.8499 16.325C17.1353 16.3199 17.4258 16.2893 17.7112 16.2536C17.9915 16.2128 18.277 16.1721 18.5573 16.1109C18.6796 16.0854 18.8019 16.0548 18.9191 16.0243C19.2402 15.9376 19.5715 15.8765 19.9028 15.8459C20.0506 15.8357 20.1882 15.8153 20.3309 15.8102C20.6673 15.7898 21.0088 15.7643 21.3503 15.7592C22.0332 15.7439 22.7111 15.7592 23.3889 15.8153C23.7304 15.8357 24.0719 15.8816 24.4083 15.9223C24.7447 15.9682 25.081 16.0192 25.4123 16.0905C25.7487 16.1517 26.0698 16.2332 26.396 16.3199C26.6967 16.4065 27.0433 16.5237 27.3847 16.6359C27.7262 16.7327 28.0626 16.8346 28.4143 16.9213C28.7608 17.0079 29.1023 17.0793 29.4489 17.1557C30.0248 17.2729 30.6007 17.3749 31.1818 17.4666C30.983 17.5176 30.7842 17.5686 30.5855 17.6195C30.2644 17.6909 29.9637 17.8183 29.6579 17.9202C29.3521 18.0324 29.0565 18.1751 28.7507 18.2974C28.2155 18.5726 27.6498 18.7459 27.0535 18.8886C26.7629 18.96 26.4622 19.0058 26.1666 19.0415C26.0137 19.0517 25.8659 19.0874 25.713 19.1078L25.2594 19.1689C24.9536 19.2097 24.6478 19.2148 24.3471 19.2403C24.0413 19.2403 23.7304 19.2454 23.4246 19.2403C22.8028 19.2097 22.1861 19.1536 21.5643 19.0415C21.2585 18.9752 20.9527 18.9294 20.6418 18.858L19.7295 18.6185L20.601 18.9956C20.8967 19.1129 21.1974 19.2097 21.4981 19.3167C22.1046 19.5053 22.7315 19.6633 23.3686 19.7703C23.6896 19.8264 24.0056 19.857 24.3318 19.8926C24.6529 19.9028 24.9791 19.9487 25.3053 19.9334C25.9577 19.9691 26.61 19.8366 27.2471 19.699C27.8791 19.5512 28.5264 19.3473 29.1125 19.0517C29.3928 18.9396 29.6681 18.8071 29.9484 18.7051C30.2389 18.6185 30.5192 18.4911 30.8148 18.4197C31.1104 18.3433 31.406 18.2617 31.7016 18.2056C32.0074 18.1343 32.303 18.0884 32.6037 18.0527C33.2103 17.9661 33.8219 17.9253 34.4386 17.9202C35.0502 17.91 35.6669 17.9406 36.2734 18.0018C36.5792 18.0324 36.885 18.0731 37.1806 18.1241C37.3284 18.1547 37.4864 18.1802 37.6138 18.2107L38.0572 18.3331C38.3477 18.4248 38.6535 18.4962 38.9389 18.6032L39.8054 18.9243C40.366 19.1689 40.9317 19.4085 41.4669 19.7092L41.8746 19.9283L42.6544 20.4176C42.7818 20.5042 42.9092 20.596 43.0316 20.6826C43.2864 20.8559 43.531 21.0343 43.7706 21.2382L44.1274 21.5236L44.4688 21.8294C44.9275 22.2371 45.3557 22.6856 45.7481 23.1443C46.1456 23.6081 46.5177 24.1127 46.8082 24.602L46.8184 24.6224L46.8388 24.6479L47.1497 25.1218C47.2567 25.2798 47.3383 25.4531 47.4351 25.6162C47.5319 25.7844 47.6033 25.9628 47.6797 26.1361C47.7613 26.3043 47.8327 26.4878 47.8989 26.6661C47.8989 26.6763 47.904 26.6865 47.9091 26.7018C46.0131 23.7254 42.7665 22.7927 42.7665 22.7927C42.5168 22.7111 42.2875 22.65 42.1244 22.6092C41.9613 22.5684 41.8593 22.548 41.8593 22.548C40.9929 22.3594 40.3864 22.1097 40.1418 21.9976C40.0551 21.9619 40.0143 21.9364 40.0143 21.9364C40.0041 21.9313 39.9787 21.9211 39.9583 21.9058C39.7646 21.809 39.5556 21.6867 39.3263 21.5847C39.102 21.4777 38.8574 21.3707 38.5975 21.2738C38.5414 21.2535 38.4853 21.228 38.4242 21.2076C38.4242 21.2076 38.414 21.2076 38.414 21.1974C38.312 21.1668 38.2152 21.1311 38.1184 21.1006C34.673 20.0048 32.7974 20.6877 32.4508 20.8355C32.4152 20.8508 32.3948 20.8661 32.3948 20.8661C36.3039 20.7642 39.0001 22.2881 39.5658 22.6398C39.6423 22.6856 39.6779 22.7111 39.6779 22.7111C39.5913 22.7213 39.4894 22.7315 39.4027 22.7417C39.1173 22.7774 38.837 22.8385 38.5567 22.8946C38.4955 22.9048 38.4293 22.9252 38.363 22.9405C38.1235 23.0016 37.8788 23.0934 37.731 23.1392C37.7208 23.1494 37.7106 23.1494 37.7004 23.1596C37.68 23.1596 37.6648 23.1698 37.6444 23.1749C37.6189 23.1902 37.5985 23.1953 37.5985 23.1953C37.4354 23.2565 37.2519 23.3227 37.0837 23.3788C36.8034 23.4654 36.5231 23.547 36.2377 23.6183C35.6618 23.761 35.0756 23.863 34.4895 23.9292C33.3071 24.0719 32.1145 24.0617 30.9269 23.9394C30.6313 23.9037 30.3306 23.8732 30.035 23.8171C29.7445 23.7712 29.454 23.7203 29.1584 23.6591C28.8628 23.5928 28.5723 23.5317 28.2869 23.4501C28.0065 23.3482 27.7058 23.3125 27.4153 23.2412C27.1197 23.1851 26.8241 23.1138 26.5285 23.0373C26.2329 22.9659 25.9475 22.8793 25.657 22.7978C25.0708 22.6296 24.4949 22.4308 23.9139 22.2218L24.6937 22.7162C24.9587 22.8691 25.2237 23.0271 25.5041 23.1698C25.7742 23.3125 26.0494 23.4654 26.3348 23.5877C26.6151 23.7203 26.8955 23.8426 27.186 23.9649C27.4714 24.0872 27.767 24.2044 28.0728 24.2656C28.3735 24.3319 28.6793 24.4185 28.9851 24.4746C29.2909 24.5408 29.5967 24.602 29.8974 24.6479C30.2083 24.6988 30.5192 24.7294 30.825 24.7702C32.0686 24.8976 33.3275 24.9078 34.5762 24.7651C35.198 24.6937 35.8147 24.5867 36.4314 24.4338C36.7372 24.3624 37.043 24.2758 37.3437 24.179C37.4558 24.1433 37.5628 24.1025 37.6749 24.0668C37.6749 24.0668 37.7157 24.0566 37.7718 24.0312C37.9502 23.9649 38.3477 23.8222 38.7656 23.7203C38.7656 23.7203 39.4129 23.5674 40.3405 23.5674C41.2681 23.5674 42.4556 23.7203 43.5667 24.3115C43.5922 24.3217 43.6228 24.3421 43.6432 24.3522C45.6513 25.4073 46.9051 27.1605 47.6543 28.6589C47.6543 28.6589 47.6594 28.6691 47.6696 28.6844C47.6899 28.7252 47.7052 28.766 47.7307 28.8068C48.0008 29.3776 48.9081 31.559 48.5156 34.4488C48.3678 35.6567 48.1639 36.5843 48.1639 36.5843C48.0722 36.1511 47.9295 35.7433 47.797 35.3968V35.4121C47.797 35.4121 47.7817 35.3662 47.7511 35.2795C47.746 35.2643 47.7409 35.2439 47.7307 35.2286C47.7001 35.1674 47.6747 35.091 47.6339 34.9992C47.5116 34.7189 47.4045 34.5201 47.3638 34.4437C47.3536 34.4335 47.3434 34.4131 47.3332 34.4029L47.323 34.3825C46.2017 32.2776 42.8532 27.6192 34.9941 26.8751C34.989 26.87 34.9737 26.87 34.9635 26.87C34.566 26.8241 34.1684 26.7987 33.7709 26.7885C33.5568 26.7171 33.3479 26.6509 33.1338 26.5948C33.1236 26.5948 33.1185 26.5948 33.1083 26.5897C33.0523 26.5744 32.9962 26.5591 32.9401 26.5489C32.3234 26.4011 31.7628 26.3552 31.4213 26.34C31.2175 26.3298 31.0849 26.3349 31.0595 26.3349C30.7893 26.3349 30.5243 26.3349 30.2491 26.3349C29.928 26.34 29.612 26.3654 29.2858 26.3807C28.9647 26.4011 28.6436 26.4368 28.3225 26.4572L28.1441 26.4776C27.9963 26.498 27.8638 26.5132 27.7415 26.5234C27.5122 26.5438 27.3287 26.554 27.1962 26.5489C27.0229 26.5387 26.8445 26.5183 26.6661 26.498C26.4062 26.4623 26.1462 26.4215 25.8812 26.3756C25.6264 26.3298 25.3715 26.2635 25.1116 26.2023L24.7396 26.0902C24.6121 26.0596 24.4949 26.0036 24.3726 25.9679C24.2503 25.922 24.128 25.8813 24.0158 25.8252C23.8986 25.7691 23.7763 25.7284 23.6642 25.6672L23.3329 25.4837C23.2309 25.4175 23.129 25.3461 23.0271 25.2747C22.92 25.2085 22.8385 25.1218 22.7417 25.0454L22.6091 24.9231C22.5633 24.8772 22.5276 24.8262 22.4868 24.7855C22.4155 24.6937 22.3237 24.6173 22.2728 24.5153L22.0944 24.2095L22.074 24.1739C21.9721 24.0057 21.8752 23.863 21.7682 23.7152C21.6663 23.5623 21.5643 23.4094 21.4573 23.2667C21.2381 22.9812 21.0139 22.6958 20.7845 22.4206C20.6724 22.2779 20.545 22.1454 20.4278 22.0078C20.3054 21.8651 20.1729 21.7325 20.0404 21.5949C19.9181 21.4624 19.7856 21.335 19.6531 21.2178C19.5307 21.0955 19.4084 20.968 19.2708 20.8559L18.858 20.5042L18.4248 20.1628C18.3534 20.1118 18.2872 20.0455 18.2107 19.9946C18.1241 19.9487 18.0425 19.913 17.9559 19.8723C17.7928 19.7907 17.6348 19.7041 17.4615 19.6378L16.9518 19.4339C16.7836 19.3626 16.6052 19.3218 16.432 19.2658C16.2638 19.2199 16.0854 19.1638 15.907 19.1434L15.3769 19.0517L15.8458 19.3116C15.9987 19.3932 16.1465 19.4849 16.2893 19.5868C16.4371 19.6837 16.5849 19.7754 16.7174 19.8774L17.1302 20.1984C17.4003 20.4074 17.6348 20.6673 17.9202 20.8508C18.2005 21.0445 18.4553 21.2687 18.7102 21.493C18.8325 21.5898 18.9395 21.702 19.0466 21.8039C19.1587 21.916 19.2657 22.018 19.3778 22.1301C19.5257 22.283 19.6633 22.4257 19.8009 22.5735C19.913 22.706 20.0353 22.8334 20.1373 22.9659C20.3615 23.2259 20.5756 23.496 20.7794 23.7712C20.8814 23.9139 20.9833 24.0515 21.0801 24.1943C21.1719 24.3319 21.2687 24.4797 21.3503 24.6173L21.335 24.5816L21.5745 24.9944C21.651 25.132 21.7682 25.234 21.8599 25.3563C21.916 25.4124 21.9568 25.4786 22.0128 25.5245L22.1861 25.6774C22.2677 25.7487 22.3492 25.8201 22.4308 25.8914C22.3696 25.8813 22.3033 25.866 22.2422 25.8456C21.0547 25.6009 19.6938 25.234 18.2566 24.76C17.5379 24.5153 16.8091 24.2452 16.0752 23.9394C15.5808 23.7406 15.0915 23.5164 14.6073 23.287C14.2557 22.7672 13.9295 22.2167 13.6441 21.6459C13.3434 21.0649 13.0885 20.4584 12.8898 19.8417C12.8337 19.6021 12.7674 19.4187 12.691 19.2148C12.6043 19.0109 12.5177 18.802 12.4107 18.6083C12.324 18.4095 12.2017 18.226 12.0998 18.0273C11.9876 17.8336 11.8602 17.6552 11.7481 17.4717C11.4933 17.12 11.1977 16.7939 10.897 16.483C10.7492 16.3199 10.5912 16.1772 10.4332 16.0345C10.2803 15.8816 10.1223 15.7388 9.94898 15.5961L9.45969 15.1935L8.93983 14.8112C8.77164 14.6889 8.59835 14.5666 8.41997 14.4494L7.88482 14.113C7.70643 13.9907 7.51786 13.8989 7.33947 13.7868L6.77884 13.481L5.63718 12.9357L6.69219 13.6237L7.20186 13.9958C7.37005 14.1181 7.54334 14.2353 7.70643 14.3678L8.19062 14.7654C8.35371 14.8928 8.50661 15.0304 8.65951 15.1731L9.11312 15.591L9.54634 16.0345C9.70943 16.1924 9.85723 16.3708 9.99994 16.539C10.1376 16.697 10.265 16.8601 10.3873 17.0283C10.4994 17.171 10.6064 17.3086 10.7084 17.4513C10.8154 17.6246 10.9377 17.7826 11.0448 17.9559C11.1467 18.1241 11.2741 18.2872 11.376 18.4554C11.478 18.6287 11.5799 18.7969 11.6666 18.9752C11.7532 19.1536 11.8348 19.3371 11.9061 19.5155C11.9775 19.6939 12.0437 19.8926 12.0743 20.0354L12.0845 20.071V20.0812C12.3087 20.7489 12.5789 21.3962 12.8949 22.0078C12.9917 22.1963 13.0885 22.3696 13.1905 22.5531C12.7165 22.2983 12.2425 22.0333 11.7889 21.7682C11.4576 21.5542 11.1263 21.3452 10.795 21.1362C10.4841 20.9171 10.163 20.703 9.85723 20.4839C9.56163 20.2545 9.26092 20.0354 8.97041 19.8111C8.69009 19.5817 8.42507 19.3575 8.14985 19.1383C7.90011 18.909 7.64527 18.6847 7.40573 18.4707C7.16618 18.2413 6.94703 18.0171 6.73297 17.8081C6.63103 17.7062 6.51891 17.6042 6.42207 17.4972C6.33033 17.38 6.23349 17.2831 6.12646 17.1914C5.9175 17.013 5.71363 16.8448 5.53015 16.6817C5.17848 16.3403 4.84209 16.0548 4.59236 15.8051C4.12346 15.326 3.83295 15.0355 3.80237 14.9998C3.81766 15.0457 4.01643 15.4025 4.34772 15.9937C4.5261 16.3046 4.77074 16.6715 5.05106 17.0946C5.18867 17.3086 5.35176 17.5176 5.51995 17.7469C5.68305 17.9865 5.9175 18.1751 6.13156 18.3993C6.35071 18.6185 6.58007 18.8529 6.82471 19.0772C7.07444 19.3014 7.32928 19.5308 7.59431 19.7703C7.72172 19.8723 7.84914 19.9844 7.98165 20.0812C7.97146 20.0812 7.96127 20.0812 7.95107 20.0812C7.7523 20.0608 7.53824 20.0099 7.31399 19.964C7.16109 19.9181 6.9929 19.8825 6.82471 19.8417C6.82471 19.8417 6.6769 19.806 6.43226 19.7194C6.32523 19.6786 6.20291 19.6378 6.0602 19.5919C6.05001 19.5868 6.03472 19.5817 6.01433 19.5716C4.87777 19.1485 2.78813 18.2209 1.54964 16.7123C1.54964 16.7123 1.54964 16.7157 1.54964 16.7225C1.54964 16.7225 1.54964 16.7327 1.54964 16.7378C1.64647 16.9773 2.16633 18.1904 3.62908 19.2556C3.65457 19.2708 3.67495 19.2861 3.70044 19.3014C3.73102 19.3218 3.7616 19.3422 3.79727 19.3677C3.85334 19.4085 3.9094 19.439 3.96546 19.4798C3.99604 19.5002 4.03172 19.5257 4.0623 19.5359C4.16424 19.5919 4.26107 19.6582 4.35791 19.7194C4.49042 19.7907 4.62294 19.8723 4.76564 19.9334C5.03067 20.0608 5.28551 20.1984 5.56073 20.2953C5.82066 20.4074 6.09078 20.4992 6.35071 20.5807C6.61574 20.6673 6.87058 20.7285 7.11522 20.7846C7.26302 20.8151 7.40063 20.8457 7.53315 20.8712C7.53315 20.8712 7.55353 20.8712 7.58921 20.8814C7.6096 20.8814 7.63508 20.8916 7.67585 20.8967C8.08359 20.9833 9.34757 21.284 10.2803 21.8141C10.2905 21.8243 10.3006 21.8345 10.3159 21.8396C10.4281 21.9109 10.5504 21.9874 10.6676 22.0689C10.8868 22.2116 11.111 22.3492 11.3302 22.492C12.0284 22.9048 12.7522 23.3125 13.4912 23.6846C13.6696 23.7661 13.853 23.8528 14.0314 23.9394C14.8061 25.0352 15.7643 26.0189 16.8754 26.7732C18.0272 27.5784 19.3371 28.1442 20.6826 28.4857C22.0332 28.8373 23.4246 28.98 24.8058 28.9647C26.1921 28.9495 27.5682 28.7864 28.9087 28.4959C29.1635 28.4398 29.4285 28.3735 29.6833 28.3073L29.663 28.3175C29.821 28.2818 33.3733 27.4154 36.1001 28.1238C36.1001 28.1238 38.5465 28.8322 40.8553 29.9892C42.0326 30.6008 46.0794 33.0727 47.0681 38.4446C46.9662 38.098 45.0957 32.5477 34.9635 32.1451C32.8127 31.8495 29.8057 30.9066 28.9188 30.6212C28.7558 30.5651 28.6589 30.5345 28.6589 30.5345C28.5009 30.4887 28.3327 30.4428 28.1696 30.3867C27.5071 30.193 26.7731 29.9994 25.9781 29.8923C25.183 29.7853 24.3165 29.7649 23.4348 29.8923C22.5735 30.03 21.7121 30.2389 20.8406 30.5141C20.5858 30.5957 20.3309 30.6874 20.0812 30.7792H20.071L19.8518 30.8658C19.3269 31.0646 18.807 31.2888 18.2923 31.559C18.0782 31.6711 17.8539 31.7679 17.6297 31.8648C17.487 31.7526 17.3494 31.6456 17.2169 31.5284C17.1302 31.4468 17.0487 31.3653 16.9671 31.2735C16.8856 31.1869 16.8091 31.1054 16.7429 31.0085L16.6307 30.876L16.6002 30.8403C16.6002 30.8403 16.59 30.8301 16.59 30.825V30.8148L16.5237 30.7333C16.4422 30.6161 16.3606 30.5192 16.2791 30.4122C15.9529 30.0045 15.6165 29.6069 15.2495 29.24C14.5309 28.4908 13.7409 27.8027 12.8796 27.2115C12.0182 26.6203 11.0906 26.1208 10.1019 25.7487C9.12331 25.4073 8.09888 25.2034 7.05915 25.1422C6.91135 25.1015 6.72277 25.0454 6.55458 24.9893C6.3762 24.9333 6.20291 24.8619 6.02962 24.7855C5.85634 24.7039 5.68305 24.6224 5.51486 24.5357C5.34667 24.4491 5.17848 24.3675 5.00519 24.2707C4.837 24.1892 4.66881 24.1025 4.50571 24.0006C4.33752 23.9037 4.17443 23.8069 4.01643 23.6948C3.85334 23.5826 3.68515 23.4909 3.53734 23.3686L3.07354 23.0067L2.63523 22.6245C2.48743 22.4971 2.34981 22.3645 2.2122 22.2218C2.07969 22.0791 1.93698 21.9466 1.79937 21.7988L1.41712 21.3554L1.22854 21.1311L1.05016 20.8916L0.693392 20.4227C0.571071 20.2596 0.474234 20.0914 0.362107 19.9283L0.0410156 19.4237L0.29585 19.964C0.382494 20.1424 0.464041 20.331 0.565974 20.5042L0.861582 21.0241C0.958419 21.2025 1.06545 21.3707 1.18267 21.5338L1.52415 22.0384C1.62609 22.1811 1.74331 22.3238 1.85544 22.4665C1.96756 22.6092 2.07459 22.7519 2.19182 22.8844L2.69639 23.4246L3.1398 23.8477C3.27741 23.9955 3.4507 24.1178 3.6036 24.2554C3.7514 24.3879 3.9145 24.5102 4.08269 24.6326C4.24578 24.76 4.41397 24.8772 4.58726 24.9842C4.71977 25.0811 4.85739 25.1524 5.00009 25.2289C4.94403 25.234 4.89306 25.2391 4.84209 25.2391C4.66881 25.2391 4.49042 25.2493 4.30185 25.2391C4.11327 25.2289 3.91959 25.2136 3.72592 25.1779C3.65457 25.1728 3.59341 25.1626 3.53225 25.1473C3.53225 25.1473 3.51696 25.1422 3.47618 25.1422C3.46089 25.1422 3.4456 25.132 3.43031 25.132C3.01238 25.0607 1.32538 24.7243 0.0461123 23.8528C0.0461123 23.863 0.0563057 23.8732 0.0563057 23.8986C0.153143 24.1178 0.662812 25.1117 2.43646 25.7334C2.5333 25.7691 2.64033 25.8048 2.74736 25.8354C2.80852 25.8507 2.86968 25.8711 2.93084 25.8813C3.15509 25.9271 3.37425 25.9832 3.6036 26.0138C3.82276 26.0494 4.04701 26.0698 4.26107 26.0749C4.47004 26.0953 4.6841 26.0749 4.87777 26.0749C5.07654 26.0647 5.25493 26.0545 5.43331 26.0291C5.51486 26.0087 5.6015 26.0392 5.67795 25.9934C5.67795 25.9934 6.86548 25.9475 7.81856 26.0494C8.49642 26.1412 9.16918 26.2941 9.81646 26.5285C10.7288 26.8751 11.6003 27.3389 12.4056 27.8893C13.0427 28.3277 13.639 28.8271 14.1996 29.3572C14.1894 29.3572 14.1741 29.347 14.1588 29.347C13.9652 29.2807 13.7562 29.2247 13.537 29.1839C13.4351 29.1635 13.323 29.138 13.2109 29.1075C13.0885 29.0973 12.9713 29.0718 12.849 29.0565C12.7369 29.0412 12.5636 29.0157 12.4514 28.9953C12.3546 28.9953 12.2578 28.9851 12.1507 28.9749C11.9061 28.9546 11.6615 28.9291 11.4066 28.9393C10.9021 28.9189 10.3873 28.9495 9.85214 28.9749C9.59221 29.0004 9.32718 29.031 9.06215 29.0616L8.86338 29.0769L8.69519 29.0871C8.57287 29.0973 8.45055 29.1024 8.31804 29.1075C7.81856 29.1176 7.31399 29.1075 6.81961 29.0514C6.56987 29.031 6.32523 28.9902 6.08059 28.9546C5.84105 28.9189 5.6015 28.873 5.37725 28.822C4.91345 28.7201 4.48023 28.5927 4.07249 28.45C3.96037 28.4041 3.85334 28.3633 3.74121 28.3226C3.74121 28.3226 3.71063 28.3124 3.69534 28.3022C3.62399 28.2716 3.54754 28.2461 3.48128 28.2206C3.4507 28.2053 3.41502 28.1901 3.38444 28.1748C2.55368 27.8231 1.94718 27.5122 1.78918 27.4306C1.7637 27.4205 1.7535 27.4103 1.7535 27.4103C1.58022 27.3338 1.41712 27.2675 1.28461 27.1911C0.887066 26.9668 0.642425 26.8394 0.642425 26.8394C0.642425 26.8394 0.795325 27.0586 1.08074 27.4357C1.22854 27.6294 1.42731 27.8333 1.66176 28.0677C1.77899 28.1951 1.92169 28.2971 2.0644 28.4296C2.13575 28.4959 2.2122 28.5417 2.30904 28.5825C2.39569 28.6284 2.47723 28.6742 2.57917 28.7201C2.75755 28.8067 2.95122 28.9036 3.15509 28.9953C3.35386 29.0769 3.56792 29.1533 3.78708 29.24C4.05211 29.3368 4.34262 29.4184 4.63313 29.505C4.53629 29.5611 3.74121 29.9433 2.61994 30.2032C2.70149 30.244 3.72592 30.7129 5.42821 30.1421C5.42821 30.1421 5.43841 30.137 5.46389 30.1268C5.63718 30.0809 6.30994 29.928 7.07954 29.9127C7.30889 29.9127 7.53824 29.9178 7.76759 29.9433C7.95617 29.9433 8.14475 29.9433 8.33842 29.9433C8.47603 29.9433 8.60345 29.9331 8.74106 29.9229L8.96022 29.9076L9.4546 29.8516C9.70943 29.8312 9.97446 29.8057 10.2344 29.7904C10.6217 29.77 11.004 29.7547 11.371 29.7751C11.6105 29.77 11.8398 29.7904 12.0641 29.8108C12.1762 29.821 12.2884 29.8312 12.4005 29.8414C12.5075 29.8516 12.6196 29.872 12.7216 29.8872C12.8337 29.8974 12.9356 29.9178 13.0427 29.9382C13.1038 29.9484 13.165 29.9586 13.2261 29.9739C13.2261 29.9739 14.5717 30.1981 15.3362 30.5804C15.4228 30.6925 15.5248 30.7996 15.6063 30.9117C15.6827 31.0085 15.7592 31.1054 15.8255 31.2022L15.8815 31.2684L15.9172 31.3143L15.9478 31.3551L16.0752 31.5182C16.1618 31.6303 16.2536 31.7323 16.3453 31.8291C16.4371 31.931 16.5339 32.0279 16.6307 32.1145C16.6562 32.14 16.6868 32.1604 16.7123 32.191C16.432 32.2827 16.1414 32.3744 15.8662 32.456C15.0355 32.7006 14.1894 32.8331 13.379 32.9504C12.9662 32.9809 12.5687 33.037 12.1711 33.0472C11.7736 33.0472 11.3862 33.0778 11.0091 33.0574C10.6319 33.0268 10.265 33.0268 9.9133 32.9911C9.81646 32.9809 9.71962 32.9656 9.62788 32.9555C8.63913 32.8535 7.70643 32.6904 7.26302 32.6038C7.22734 32.5987 7.19167 32.5936 7.16109 32.5834C7.1458 32.5834 7.13051 32.5783 7.12031 32.5732C7.11012 32.5681 7.08973 32.5681 7.07954 32.5681L7.02348 32.5579L6.9929 32.5528C6.77374 32.512 6.56478 32.4713 6.3762 32.4407C6.25388 32.4203 6.14685 32.405 6.03982 32.3846C5.93788 32.354 5.83085 32.3337 5.73911 32.3082C5.02048 32.1298 4.58726 32.0228 4.53629 32.0126C4.59236 32.0431 4.97971 32.2572 5.63208 32.6038C5.71873 32.6497 5.81556 32.7006 5.9124 32.7516C6.01433 32.7975 6.11627 32.8382 6.22839 32.8892C6.45774 32.9809 6.69219 33.0829 6.95722 33.195C7.21205 33.3071 7.49747 33.3989 7.79817 33.4906C7.95107 33.5416 8.10907 33.5772 8.27726 33.6027C8.44036 33.6231 8.59835 33.6741 8.77164 33.6894C9.11821 33.7352 9.46989 33.776 9.84194 33.8219C10.214 33.8627 10.5963 33.8678 10.9938 33.8932C11.3913 33.9136 11.7991 33.883 12.2119 33.878C12.6298 33.8729 13.0529 33.8168 13.481 33.7811C14.3321 33.6639 15.2189 33.5212 16.0905 33.2613C16.5645 33.1287 17.0283 32.9758 17.4921 32.7975C18.0782 33.1899 18.7102 33.5008 19.3524 33.7505C20.336 34.1226 21.3554 34.3672 22.3747 34.5303C24.4185 34.8514 26.4826 34.8871 28.5264 34.775C29.0412 34.7495 29.5559 34.6985 30.0452 34.6679C30.5498 34.6323 31.0493 34.617 31.5436 34.6068C32.5426 34.5966 33.5364 34.6323 34.5354 34.7291C35.5242 34.8259 36.5231 34.9737 37.5017 35.1521C37.996 35.2388 38.4904 35.3407 38.9746 35.4477L39.7136 35.6159C39.9583 35.672 40.1978 35.7281 40.4272 35.7943C41.1713 36.0084 41.8899 36.2887 42.5576 36.6455C42.5678 36.6556 42.578 36.6556 42.5984 36.6658C42.95 36.8901 45.6411 38.6688 46.1507 41.2987C46.1558 41.3344 46.1609 41.3752 46.1711 41.4109C46.1864 41.5587 46.2068 41.7218 46.2272 41.8899V41.9205C46.2934 42.5474 46.3138 43.266 46.217 43.9694C46.217 43.9694 47.4453 44.5402 48.2863 42.3945C48.2863 42.3894 48.2914 42.3894 48.2914 42.3843C48.6583 41.2936 49.3871 39.3875 50.2587 38.2356C50.4269 38.0419 50.5951 37.8585 50.7836 37.6903L50.7938 37.6801L50.804 37.6699C51.5074 36.9513 52.2515 36.2326 53.0058 35.5599C53.7652 34.8922 54.545 34.2398 55.3757 33.6996L55.3961 33.6894L55.4063 33.6792C55.8803 33.2918 56.283 32.8994 56.6805 32.4764C57.078 32.0533 57.4501 31.615 57.8018 31.1461C58.4949 30.2287 59.1116 29.2349 59.5907 28.1799C60.08 27.1248 60.4368 26.0087 60.6457 24.8619C60.7477 24.286 60.8037 23.7101 60.8343 23.1239C60.8547 22.5378 60.8445 21.9568 60.7833 21.3758L60.7578 21.4166ZM30.3765 27.237L30.2389 27.2777L30.1268 27.3134C29.9739 27.3593 29.8108 27.4103 29.6528 27.451C29.3419 27.5326 29.0157 27.609 28.6895 27.6804C27.3949 27.9607 26.0749 28.1187 24.7549 28.1289C23.4348 28.1442 22.1148 28.0117 20.8508 27.6804C19.5868 27.3542 18.3738 26.8241 17.3086 26.0902C16.7276 25.6876 16.1975 25.2289 15.7082 24.7192C16.4523 25.0301 17.2016 25.3053 17.9253 25.55C19.388 26.0392 20.7947 26.4113 22.0026 26.6712C22.3084 26.7273 22.5888 26.8241 22.8742 26.8445C23.1545 26.8649 23.4195 26.8751 23.6744 26.8904C23.97 26.9006 24.235 26.9108 24.4796 26.9108L24.8415 27.0229C25.1116 27.0892 25.3868 27.1554 25.6672 27.2013C25.9424 27.2625 26.2227 27.3032 26.503 27.3338C26.5642 27.344 26.6253 27.3491 26.6814 27.3542C26.6916 27.3542 26.712 27.3542 26.7273 27.3593C26.7375 27.3593 26.7578 27.3593 26.7782 27.3593C26.9515 27.3746 27.3389 27.4052 27.7976 27.3593C27.8587 27.3542 27.925 27.3491 27.9912 27.3389L28.3582 27.293C28.6691 27.2676 28.98 27.237 29.2858 27.2115C29.5916 27.2013 29.9025 27.1758 30.2134 27.1707C30.3357 27.1707 30.4529 27.1707 30.5702 27.1707L30.3714 27.2268L30.3765 27.237ZM32.3336 33.8066C32.0533 33.8015 31.7781 33.8015 31.4978 33.8066C30.9881 33.8168 30.4733 33.8321 29.9637 33.8678C29.4438 33.9034 28.9494 33.9493 28.4499 33.9748C26.452 34.0818 24.4389 34.0461 22.4766 33.7352C21.4981 33.5823 20.5348 33.3479 19.6225 33.0013C19.2046 32.8382 18.7917 32.6497 18.4044 32.4254C18.4859 32.3846 18.5675 32.354 18.649 32.3133C19.2759 31.9871 19.9436 31.7119 20.6163 31.4774L21.2178 31.2786C21.9874 31.0442 22.7671 30.8556 23.5215 30.7384C24.3114 30.6263 25.0861 30.6416 25.8252 30.7384C26.5642 30.8403 27.2522 31.0238 27.8842 31.2022C28.1951 31.299 28.4907 31.4214 28.7812 31.5029C28.7812 31.5029 28.7812 31.5029 28.7812 31.508C28.8781 31.5386 29.8719 31.8851 31.0951 32.2419C31.0595 32.247 31.0136 32.247 30.983 32.2521C30.6517 32.2725 30.3204 32.2878 29.9891 32.298C29.9891 32.298 25.7487 32.5528 23.4042 32.0126C23.4042 32.0126 24.077 32.7975 26.447 33.0829C26.4622 33.0829 26.4673 33.0829 26.4826 33.088C27.4051 33.1542 28.3327 33.1746 29.2552 33.1593C29.8515 33.1491 30.4377 33.1287 31.0238 33.0931C31.6099 33.0574 32.1858 33.0064 32.7719 32.9402C33.2103 32.9504 33.6435 32.9402 34.0818 32.9605C34.5201 32.9809 34.9584 32.9962 35.3916 33.0523C35.835 33.088 36.2683 33.1593 36.7015 33.2256C37.1347 33.3071 37.5679 33.3785 37.996 33.4855C38.4242 33.5823 38.8421 33.7149 39.2651 33.8372C39.683 33.9697 40.101 34.1175 40.5036 34.2806C40.9063 34.4488 41.314 34.6221 41.6962 34.8208C41.8899 34.9228 42.0785 35.0247 42.2569 35.1317C42.4098 35.2286 42.5627 35.3356 42.7105 35.4375C38.5159 33.4753 32.3285 33.8168 32.3285 33.8168L32.3336 33.8066ZM53.4594 12.793L53.0313 12.6604C53.0313 12.6604 53.016 12.6553 53.0109 12.6503C52.8733 12.3648 52.7255 12.0845 52.5675 11.8042C52.3228 11.3761 52.0782 10.9582 51.8081 10.5504C51.5889 10.2038 51.3443 9.86236 51.0945 9.53108C51.3035 9.62282 51.5125 9.70946 51.7214 9.8114C52.2311 10.0662 52.7611 10.2956 53.23 10.581C53.4594 10.7237 53.7091 10.8409 53.9232 11.0091L54.5756 11.5086C54.9884 11.8756 55.3961 12.2476 55.758 12.6706C55.9517 12.8694 56.1199 13.0937 56.2881 13.3128C56.4562 13.532 56.6346 13.7562 56.7875 13.9907C57.1086 14.4443 57.3991 14.9285 57.6845 15.4127C57.6387 15.3719 57.5979 15.326 57.5571 15.2852C56.706 14.48 55.7172 13.8276 54.6775 13.3128C54.4125 13.1905 54.1474 13.0631 53.8722 12.9611L53.4594 12.7981V12.793ZM59.1269 26.0698C59.1269 26.0698 57.97 29.3113 54.7845 32.4458C54.7845 32.4458 57.394 27.9046 55.5949 20.3513C55.075 17.4513 54.2086 15.5299 54.2086 15.5299C54.0863 15.1731 53.964 14.8112 53.8213 14.4596C53.7397 14.2302 53.6429 14.0009 53.5409 13.7766C53.5307 13.7562 53.5206 13.7358 53.5155 13.7155L53.5613 13.7358C53.7295 13.797 53.8926 13.8735 54.0506 13.9499C54.0506 13.9499 54.054 13.9516 54.0608 13.955C54.0608 13.955 54.0608 13.955 54.071 13.955C54.0812 13.955 54.1016 13.9652 54.1169 13.9754C54.8406 14.3729 61.6854 18.3025 59.132 26.0698H59.1269Z" fill="#018AAA"/>
<path d="M69.6211 17.7313C68.9636 17.7313 68.352 17.5988 67.7863 17.3287C67.2206 17.0636 66.7771 16.6916 66.4561 16.2227L67.0014 15.7283C67.6487 16.5743 68.5304 16.9974 69.6415 16.9974C70.3601 16.9974 70.9513 16.819 71.41 16.4571C71.8687 16.0953 72.0981 15.6213 72.0981 15.0351C72.0981 14.9128 72.0828 14.7905 72.0573 14.6733C72.0318 14.5561 72.0013 14.4592 71.9707 14.3726C71.9401 14.2859 71.884 14.1993 71.8025 14.1126C71.7209 14.026 71.6547 13.9546 71.6037 13.8986C71.5527 13.8476 71.461 13.7814 71.3285 13.71C71.2011 13.6387 71.1042 13.5877 71.0431 13.552C70.9819 13.5163 70.8698 13.4654 70.7016 13.4042C70.5385 13.343 70.4213 13.2972 70.355 13.2768C70.2888 13.2564 70.1562 13.2105 69.9524 13.1443C69.7485 13.078 69.6211 13.0372 69.5599 13.0169C69.1216 12.8741 68.775 12.7467 68.51 12.6295C68.245 12.5123 67.9698 12.3543 67.6844 12.1555C67.3938 11.9567 67.1798 11.7121 67.0422 11.4216C66.9046 11.1311 66.8332 10.7947 66.8332 10.4124C66.8332 9.59188 67.1237 8.96499 67.7098 8.53177C68.2909 8.09346 69.0299 7.87939 69.9167 7.87939C70.9106 7.87939 71.8025 8.1801 72.5874 8.77131L72.1592 9.37272C71.4559 8.84776 70.7067 8.58783 69.9014 8.58783C69.2236 8.58783 68.6782 8.74073 68.2552 9.04654C67.8322 9.35234 67.6232 9.79575 67.6232 10.3768C67.6232 10.6061 67.6691 10.8202 67.7608 11.0088C67.8525 11.2024 67.9545 11.3553 68.0666 11.4675C68.1787 11.5847 68.3622 11.7019 68.612 11.8191C68.8668 11.9415 69.0707 12.0281 69.2236 12.0842C69.3816 12.1402 69.6364 12.2269 69.9932 12.3441C70.039 12.3645 70.1053 12.3849 70.1919 12.4103C70.5385 12.5276 70.8035 12.6193 70.987 12.6856C71.1705 12.7518 71.4049 12.8589 71.6853 13.0118C71.9707 13.1647 72.1847 13.3176 72.3325 13.4807C72.4803 13.6387 72.6129 13.8527 72.725 14.1126C72.8371 14.3726 72.8983 14.6733 72.8983 14.9995C72.8983 15.8557 72.5823 16.5183 71.9452 17.0025C71.3081 17.4816 70.5283 17.7211 69.6007 17.7211L69.6211 17.7313Z" fill="#4D4D4D"/>
<path d="M77.1742 17.7569C76.2211 17.7569 75.4566 17.4358 74.8807 16.7885C74.3048 16.1412 74.0194 15.2952 74.0245 14.2453C74.0347 13.1852 74.3252 12.3391 74.9062 11.6969C75.4821 11.0547 76.2466 10.7336 77.1895 10.7336C78.1324 10.7336 78.902 11.0547 79.4779 11.6969C80.0539 12.3391 80.3393 13.1852 80.3393 14.2453C80.3393 15.3054 80.0539 16.1514 79.4779 16.7936C78.902 17.4358 78.1375 17.7569 77.1742 17.7569ZM77.1742 17.0637C77.9285 17.0637 78.5198 16.8191 78.9377 16.3247C79.3556 15.8303 79.5646 15.1372 79.5646 14.2504C79.5646 13.3635 79.3556 12.6806 78.9377 12.1811C78.5198 11.6816 77.9387 11.4319 77.1895 11.4319C76.4403 11.4319 75.8593 11.6765 75.4363 12.1709C75.0132 12.6653 74.8043 13.3584 74.8043 14.2453C74.7941 15.127 75.003 15.815 75.4261 16.3145C75.8491 16.814 76.4352 17.0637 77.1793 17.0637H77.1742Z" fill="#4D4D4D"/>
<path d="M89.1819 10.9119H90.0228L86.8884 18.6639C86.4603 19.724 85.8028 20.2541 84.9109 20.2541C84.3706 20.2541 83.9272 20.0757 83.5908 19.7189L83.9374 19.2144C84.2381 19.4539 84.5592 19.5762 84.9007 19.5762C85.4868 19.5762 85.9404 19.1685 86.2615 18.3479L86.5418 17.6395L83.7794 10.9119H84.5796L86.9139 16.7425L89.1819 10.9119Z" fill="#4D4D4D"/>
<path d="M93.7738 17.7569C92.8208 17.7569 92.0563 17.4358 91.4803 16.7885C90.9044 16.1412 90.619 15.2952 90.6241 14.2453C90.6343 13.1852 90.9248 12.3391 91.5058 11.6969C92.0817 11.0547 92.8462 10.7336 93.7891 10.7336C94.732 10.7336 95.5016 11.0547 96.0775 11.6969C96.6535 12.3391 96.9389 13.1852 96.9389 14.2453C96.9389 15.3054 96.6535 16.1514 96.0775 16.7936C95.5016 17.4358 94.7371 17.7569 93.7738 17.7569ZM93.7738 17.0637C94.5282 17.0637 95.1194 16.8191 95.5373 16.3247C95.9552 15.8303 96.1642 15.1372 96.1642 14.2504C96.1642 13.3635 95.9552 12.6806 95.5373 12.1811C95.1194 11.6816 94.5384 11.4319 93.7891 11.4319C93.0399 11.4319 92.4589 11.6765 92.0359 12.1709C91.6129 12.6653 91.4039 13.3584 91.4039 14.2453C91.3937 15.127 91.6027 15.815 92.0257 16.3145C92.4487 16.814 93.0348 17.0637 93.7789 17.0637H93.7738Z" fill="#4D4D4D"/>
<path d="M103.315 10.9119H104.074V17.5987H103.325V16.4367C102.362 17.3184 101.419 17.7567 100.481 17.7567C99.8237 17.7567 99.3242 17.5783 98.9777 17.2216C98.6362 16.8648 98.4629 16.3551 98.4629 15.6875V10.9119H99.2223V15.5549C99.2223 16.0595 99.3293 16.4367 99.5434 16.6813C99.7574 16.926 100.094 17.0483 100.558 17.0483C101.393 17.0483 102.311 16.6202 103.305 15.769V10.9119H103.315Z" fill="#4D4D4D"/>
<path d="M112.566 10.7387C113.234 10.7387 113.738 10.9171 114.09 11.279C114.442 11.6409 114.61 12.1556 114.61 12.8182V17.5836H113.835V12.966C113.835 12.4308 113.723 12.0435 113.504 11.8039C113.28 11.5644 112.943 11.4421 112.49 11.4421C111.618 11.4421 110.701 11.86 109.742 12.6959V17.5785H108.968V10.9069H109.727V12.0027C110.68 11.1567 111.628 10.7336 112.571 10.7336L112.566 10.7387Z" fill="#4D4D4D"/>
<path d="M119.263 17.038C120.134 17.038 120.889 16.7322 121.531 16.1155L121.959 16.6762C121.194 17.3795 120.287 17.7312 119.237 17.7312C118.381 17.7312 117.652 17.4356 117.051 16.8444C116.444 16.2531 116.144 15.4224 116.144 14.3572C116.144 13.292 116.439 12.4663 117.035 11.7732C117.632 11.0851 118.457 10.7385 119.518 10.7385C120.211 10.7385 120.812 10.9322 121.312 11.3195C121.811 11.7069 122.066 12.2471 122.066 12.9403C122.066 13.4653 121.898 13.8781 121.561 14.1839C121.225 14.4846 120.776 14.6375 120.226 14.6375H116.918C116.979 15.3663 117.224 15.9524 117.647 16.3857C118.07 16.824 118.61 17.038 119.268 17.038H119.263ZM119.461 11.3807C118.748 11.3807 118.162 11.6152 117.693 12.0891C117.224 12.5631 116.964 13.2002 116.913 14.0106H120.144C120.491 14.0106 120.776 13.9138 121.001 13.7252C121.225 13.5366 121.332 13.2563 121.332 12.8893C121.332 12.4459 121.159 12.0841 120.807 11.8037C120.455 11.5234 120.007 11.3858 119.467 11.3858L119.461 11.3807Z" fill="#4D4D4D"/>
<path d="M126.23 17.038C127.101 17.038 127.855 16.7322 128.498 16.1155L128.926 16.6762C128.161 17.3795 127.254 17.7312 126.204 17.7312C125.348 17.7312 124.619 17.4356 124.018 16.8444C123.411 16.2531 123.11 15.4224 123.11 14.3572C123.11 13.292 123.406 12.4663 124.002 11.7732C124.599 11.0851 125.424 10.7385 126.484 10.7385C127.178 10.7385 127.779 10.9322 128.278 11.3195C128.778 11.7069 129.033 12.2471 129.033 12.9403C129.033 13.4653 128.865 13.8781 128.528 14.1839C128.192 14.4846 127.743 14.6375 127.193 14.6375H123.885C123.946 15.3663 124.191 15.9524 124.614 16.3857C125.037 16.824 125.577 17.038 126.235 17.038H126.23ZM126.428 11.3807C125.715 11.3807 125.129 11.6152 124.66 12.0891C124.191 12.5631 123.931 13.2002 123.88 14.0106H127.111C127.458 14.0106 127.743 13.9138 127.967 13.7252C128.192 13.5366 128.299 13.2563 128.299 12.8893C128.299 12.4459 128.125 12.0841 127.774 11.8037C127.422 11.5234 126.974 11.3858 126.433 11.3858L126.428 11.3807Z" fill="#4D4D4D"/>
<path d="M135.236 8.05786H135.995V17.5887H135.236V16.6254C134.588 17.3797 133.798 17.762 132.876 17.762C132.05 17.762 131.377 17.4511 130.863 16.8293C130.348 16.2075 130.088 15.3869 130.088 14.3727C130.088 13.2769 130.368 12.4002 130.924 11.7377C131.479 11.0751 132.213 10.7438 133.12 10.7438C134.028 10.7438 134.7 11.0547 135.241 11.6765V8.05786H135.236ZM132.978 17.0637C133.875 17.0637 134.629 16.6509 135.236 15.8201V12.5378C134.711 11.7988 134.007 11.4319 133.126 11.4319C132.422 11.4319 131.867 11.6867 131.464 12.2015C131.061 12.7111 130.857 13.4247 130.857 14.3421C130.857 15.1881 131.046 15.8507 131.433 16.3349C131.816 16.8191 132.33 17.0637 132.983 17.0637H132.978Z" fill="#4D4D4D"/>
<path d="M73.3564 32.3333L74.0547 33.7502C73.2188 34.3465 72.2912 34.6472 71.2821 34.6472C70.2729 34.6472 69.4728 34.3363 68.958 33.7196C68.4483 33.1029 68.1884 32.2518 68.1884 31.1764V25.8707H66.4912V24.4538H68.1884V21.3652H70.0232V24.4538H73.5144V25.8707H70.0232V31.1916C70.0232 31.788 70.1812 32.2263 70.4921 32.5066C70.803 32.7869 71.1751 32.9245 71.5981 32.9245C72.1587 32.9245 72.7397 32.7258 73.3513 32.3282L73.3564 32.3333Z" fill="#4D4D4D"/>
<path d="M81.2311 24.1991C82.2403 24.1991 83.015 24.4692 83.5552 25.0146C84.0955 25.5599 84.3605 26.3397 84.3605 27.3489V34.4282H82.4645V27.7668C82.4645 27.0736 82.3371 26.5844 82.0772 26.2939C81.8172 26.0033 81.4248 25.8555 80.8896 25.8555C79.855 25.8555 78.7184 26.3193 77.48 27.252V34.4282H75.584V20.1931H77.48V25.6975C78.7286 24.6986 79.9773 24.2042 81.226 24.2042L81.2311 24.1991Z" fill="#4D4D4D"/>
<path d="M91.3985 33.0521C92.5402 33.0521 93.5799 32.6393 94.5075 31.8136L95.4453 33.0878C94.8744 33.5924 94.217 33.9797 93.483 34.2448C92.744 34.5098 92.0152 34.6423 91.3017 34.6423C89.9459 34.6423 88.8145 34.1938 87.9124 33.2968C87.0102 32.3998 86.5566 31.1664 86.5566 29.5966C86.5566 28.0268 87.0051 26.7832 87.9022 25.7486C88.7992 24.714 90.0581 24.1941 91.6788 24.1941C92.744 24.1941 93.6665 24.4948 94.4514 25.0911C95.2363 25.6874 95.6287 26.5335 95.6287 27.6242C95.6287 28.4091 95.3892 29.0359 94.9101 29.5099C94.431 29.9839 93.7583 30.2184 92.8969 30.2184H88.4118C88.5291 31.095 88.8451 31.7882 89.3496 32.2927C89.8542 32.7973 90.5372 33.0521 91.4036 33.0521H91.3985ZM91.5973 25.6568C90.7206 25.6568 89.9867 25.9423 89.4057 26.5131C88.8196 27.0839 88.473 27.8637 88.3711 28.8474H92.6166C93.4677 28.8474 93.8908 28.404 93.8908 27.512C93.8908 27.0075 93.6818 26.5742 93.2639 26.2073C92.846 25.8403 92.2904 25.6568 91.5973 25.6568Z" fill="#4D4D4D"/>
<path d="M102.805 24.1992C103.269 24.1992 103.697 24.2859 104.079 24.4592L103.758 26.034C103.305 25.927 102.943 25.876 102.662 25.876C101.628 25.876 100.634 26.35 99.6911 27.2929V34.4283H97.8359V24.4592H99.6504V25.7333C100.486 24.7089 101.536 24.1992 102.8 24.1992H102.805Z" fill="#4D4D4D"/>
<path d="M109.145 24.1992C110.46 24.1992 111.495 24.556 112.244 25.2746C112.993 25.9932 113.37 27.0177 113.37 28.3428V34.4231H111.658V32.7871C110.914 34.0511 109.751 34.6831 108.166 34.6831C107.157 34.6831 106.332 34.3977 105.695 33.8268C105.057 33.256 104.736 32.517 104.736 31.6149C104.736 30.4732 105.19 29.6424 106.092 29.1226C106.994 28.6027 108.166 28.3428 109.599 28.3428C110.185 28.3428 110.863 28.3887 111.632 28.4804V28.2205C111.632 26.5997 110.786 25.7894 109.099 25.7894C107.993 25.7894 106.958 26.1971 105.99 27.0075L105.052 25.769C106.102 24.7191 107.463 24.1941 109.14 24.1941L109.145 24.1992ZM108.528 33.2305C109.512 33.2305 110.261 32.9094 110.781 32.2621C111.301 31.62 111.586 30.779 111.637 29.7393C111 29.6475 110.383 29.6017 109.782 29.6017C107.682 29.6017 106.632 30.2592 106.632 31.5741C106.632 32.0634 106.806 32.466 107.152 32.7718C107.499 33.0776 107.957 33.2305 108.528 33.2305Z" fill="#4D4D4D"/>
<path d="M121.128 24.1992C122.402 24.1992 123.432 24.6681 124.206 25.6059C124.986 26.5437 125.374 27.7669 125.374 29.2857C125.374 30.8809 124.945 32.1806 124.089 33.1846C123.233 34.1887 122.107 34.6882 120.71 34.6882C119.742 34.6882 118.829 34.4282 117.978 33.9084V38.1335H116.123V24.454H117.958V25.4683C118.901 24.6171 119.956 24.1941 121.128 24.1941V24.1992ZM120.552 33.0725C121.454 33.0725 122.168 32.7412 122.698 32.0838C123.228 31.4263 123.488 30.4987 123.488 29.301C123.488 28.1848 123.253 27.3235 122.79 26.717C122.326 26.1104 121.673 25.8097 120.837 25.8097C119.762 25.8097 118.809 26.2633 117.988 27.1655V32.252C118.814 32.7973 119.67 33.0674 120.562 33.0674L120.552 33.0725Z" fill="#4D4D4D"/>
<path d="M133.946 24.459H135.959L131.474 35.6819C131.117 36.584 130.643 37.267 130.057 37.7257C129.471 38.1844 128.834 38.4137 128.14 38.4137C127.264 38.4137 126.55 38.1283 126.005 37.5575L126.764 36.3037C127.203 36.6503 127.641 36.8235 128.079 36.8235C128.492 36.8235 128.839 36.691 129.124 36.426C129.409 36.161 129.664 35.7329 129.894 35.1518L130.291 34.1325L126.244 24.4641H128.161L131.193 32.0581L133.946 24.4641V24.459Z" fill="#4D4D4D"/>
</g>
<defs>
<clipPath id="clip0_521_4293">
<rect width="136" height="44.0812" fill="white"/>
</clipPath>
</defs>
</svg>
